<?xml version="1.0" encoding="UTF-8" standalone="no"?><svg xmlns="http://www.w3.org/2000/svg" xmlns:xlink="http://www.w3.org/1999/xlink" contentScriptType="application/ecmascript" contentStyleType="text/css" height="2298px" preserveAspectRatio="none" style="width:1179px;height:2298px;background:#FFFFFF;" version="1.1" viewBox="0 0 1179 2298" width="1179px" zoomAndPan="magnify"><defs><filter height="300%" id="f1llizvuanap51" width="300%" x="-1" y="-1"><feGaussianBlur result="blurOut" stdDeviation="2.0"/><feColorMatrix in="blurOut" result="blurOut2" type="matrix" values="0 0 0 0 0 0 0 0 0 0 0 0 0 0 0 0 0 0 .4 0"/><feOffset dx="4.0" dy="4.0" in="blurOut2" result="blurOut3"/><feBlend in="SourceGraphic" in2="blurOut3" mode="normal"/></filter></defs><g><rect fill="#DDDDDD" height="2286.7998" style="stroke:#A80036;stroke-width:1.0;" width="868.5" x="165.5" y="6"/><text fill="#000000" font-family="sans-serif" font-size="13" font-weight="bold" lengthAdjust="spacing" textLength="68" x="565.75" y="18.077">Chat Agent</text><rect fill="#FFFFFF" filter="url(#f1llizvuanap51)" height="347.9998" style="stroke:#A80036;stroke-width:1.0;" width="10" x="454" y="126.5998"/><rect fill="#FFFFFF" filter="url(#f1llizvuanap51)" height="29.6" style="stroke:#A80036;stroke-width:1.0;" width="10" x="624.5" y="1462.3996"/><rect fill="#FFFFFF" filter="url(#f1llizvuanap51)" height="163.6001" style="stroke:#A80036;stroke-width:1.0;" width="10" x="893" y="235.5996"/><rect fill="#FFFFFF" filter="url(#f1llizvuanap51)" height="88.8" style="stroke:#A80036;stroke-width:1.0;" width="10" x="985.5" y="1047.9994"/><rect fill="#FFFFFF" filter="url(#f1llizvuanap51)" height="88.8" style="stroke:#A80036;stroke-width:1.0;" width="10" x="985.5" y="1715.3997"/><rect fill="#FFFFFF" filter="url(#f1llizvuanap51)" height="329.8001" style="stroke:#000000;stroke-width:2.0;" width="1136.5" x="10" y="489.5996"/><rect fill="#FFFFFF" filter="url(#f1llizvuanap51)" height="239" style="stroke:#000000;stroke-width:2.0;" width="977" x="159.5" y="573.3997"/><rect fill="#FFFFFF" height="74.3999" style="stroke:none;stroke-width:1.0;" width="977" x="159.5" y="737.9997"/><line style="stroke:#A80036;stroke-width:1.0;stroke-dasharray:5.0,5.0;" x1="42" x2="42" y1="94.9998" y2="2205.9999"/><line style="stroke:#A80036;stroke-width:1.0;stroke-dasharray:5.0,5.0;" x1="215.5" x2="215.5" y1="440.0996" y2="2205.9999"/><line style="stroke:#A80036;stroke-width:1.0;stroke-dasharray:5.0,5.0;" x1="459" x2="459" y1="94.9998" y2="2205.9999"/><line style="stroke:#A80036;stroke-width:1.0;stroke-dasharray:5.0,5.0;" x1="629" x2="629" y1="934.0997" y2="2205.9999"/><line style="stroke:#A80036;stroke-width:1.0;stroke-dasharray:5.0,5.0;" x1="776" x2="776" y1="1680.8997" y2="2205.9999"/><line style="stroke:#A80036;stroke-width:1.0;stroke-dasharray:5.0,5.0;" x1="898" x2="898" y1="184.2997" y2="2205.9999"/><line style="stroke:#A80036;stroke-width:1.0;stroke-dasharray:5.0,5.0;" x1="990" x2="990" y1="996.6995" y2="2205.9999"/><line style="stroke:#A80036;stroke-width:1.0;stroke-dasharray:5.0,5.0;" x1="1097.5" x2="1097.5" y1="94.9998" y2="2205.9999"/><line style="stroke:#A80036;stroke-width:1.0;stroke-dasharray:5.0,5.0;" x1="1156.5" x2="1156.5" y1="94.9998" y2="2205.9999"/><text fill="#000000" font-family="sans-serif" font-size="14" lengthAdjust="spacing" textLength="38" x="20" y="91.2058">User1</text><ellipse cx="42" cy="21.1999" fill="#FEFECE" filter="url(#f1llizvuanap51)" rx="8" ry="8" style="stroke:#A80036;stroke-width:2.0;"/><path d="M42,29.1999 L42,56.1999 M29,37.1999 L55,37.1999 M42,56.1999 L29,71.1999 M42,56.1999 L55,71.1999 " fill="none" filter="url(#f1llizvuanap51)" style="stroke:#A80036;stroke-width:2.0;"/><text fill="#000000" font-family="sans-serif" font-size="14" lengthAdjust="spacing" textLength="38" x="20" y="2218.0058">User1</text><ellipse cx="42" cy="2231.7998" fill="#FEFECE" filter="url(#f1llizvuanap51)" rx="8" ry="8" style="stroke:#A80036;stroke-width:2.0;"/><path d="M42,2239.7998 L42,2266.7998 M29,2247.7998 L55,2247.7998 M42,2266.7998 L29,2281.7998 M42,2266.7998 L55,2281.7998 " fill="none" filter="url(#f1llizvuanap51)" style="stroke:#A80036;stroke-width:2.0;"/><rect fill="#FEFECE" filter="url(#f1llizvuanap51)" height="30.7999" style="stroke:#A80036;stroke-width:1.5;" width="89" x="169.5" y="2204.9999"/><text fill="#000000" font-family="sans-serif" font-size="14" lengthAdjust="spacing" textLength="75" x="176.5" y="2225.0058">UI Manager</text><rect fill="#FEFECE" filter="url(#f1llizvuanap51)" height="47.5999" style="stroke:#A80036;stroke-width:1.5;" width="136" x="389" y="42.3999"/><text fill="#000000" font-family="sans-serif" font-size="14" lengthAdjust="spacing" textLength="70" x="422" y="62.4059">Main Class</text><text fill="#000000" font-family="sans-serif" font-size="14" lengthAdjust="spacing" textLength="122" x="396" y="79.2058">(and other classes)</text><rect fill="#FEFECE" filter="url(#f1llizvuanap51)" height="47.5999" style="stroke:#A80036;stroke-width:1.5;" width="136" x="389" y="2204.9999"/><text fill="#000000" font-family="sans-serif" font-size="14" lengthAdjust="spacing" textLength="70" x="422" y="2225.0058">Main Class</text><text fill="#000000" font-family="sans-serif" font-size="14" lengthAdjust="spacing" textLength="122" x="396" y="2241.8057">(and other classes)</text><rect fill="#FEFECE" filter="url(#f1llizvuanap51)" height="30.7999" style="stroke:#A80036;stroke-width:1.5;" width="133" x="561" y="2204.9999"/><text fill="#000000" font-family="sans-serif" font-size="14" lengthAdjust="spacing" textLength="119" x="568" y="2225.0058">Chatting Session 1</text><rect fill="#FEFECE" filter="url(#f1llizvuanap51)" height="30.7999" style="stroke:#A80036;stroke-width:1.5;" width="133" x="708" y="2204.9999"/><text fill="#000000" font-family="sans-serif" font-size="14" lengthAdjust="spacing" textLength="119" x="715" y="2225.0058">Chatting Session 2</text><rect fill="#FEFECE" filter="url(#f1llizvuanap51)" height="64.3998" style="stroke:#A80036;stroke-width:1.5;" width="82" x="855" y="2204.9999"/><text fill="#000000" font-family="sans-serif" font-size="14" lengthAdjust="spacing" textLength="68" x="862" y="2225.0058">Distributed</text><text fill="#000000" font-family="sans-serif" font-size="14" lengthAdjust="spacing" textLength="30" x="881" y="2241.8057">Data</text><text fill="#000000" font-family="sans-serif" font-size="14" lengthAdjust="spacing" textLength="57" x="867.5" y="2258.6057">Manager</text><rect fill="#FEFECE" filter="url(#f1llizvuanap51)" height="64.3998" style="stroke:#A80036;stroke-width:1.5;" width="75" x="951" y="2204.9999"/><text fill="#000000" font-family="sans-serif" font-size="14" lengthAdjust="spacing" textLength="50" x="963.5" y="2225.0058">Remote</text><text fill="#000000" font-family="sans-serif" font-size="14" lengthAdjust="spacing" textLength="61" x="958" y="2241.8057">Database</text><text fill="#000000" font-family="sans-serif" font-size="14" lengthAdjust="spacing" textLength="57" x="960" y="2258.6057">Manager</text><text fill="#000000" font-family="sans-serif" font-size="14" lengthAdjust="spacing" textLength="52" x="1068.5" y="91.2058">Network</text><ellipse cx="1097.5" cy="21.1999" fill="#FEFECE" filter="url(#f1llizvuanap51)" rx="8" ry="8" style="stroke:#A80036;stroke-width:2.0;"/><path d="M1097.5,29.1999 L1097.5,56.1999 M1084.5,37.1999 L1110.5,37.1999 M1097.5,56.1999 L1084.5,71.1999 M1097.5,56.1999 L1110.5,71.1999 " fill="none" filter="url(#f1llizvuanap51)" style="stroke:#A80036;stroke-width:2.0;"/><text fill="#000000" font-family="sans-serif" font-size="14" lengthAdjust="spacing" textLength="52" x="1068.5" y="2218.0058">Network</text><ellipse cx="1097.5" cy="2231.7998" fill="#FEFECE" filter="url(#f1llizvuanap51)" rx="8" ry="8" style="stroke:#A80036;stroke-width:2.0;"/><path d="M1097.5,2239.7998 L1097.5,2266.7998 M1084.5,2247.7998 L1110.5,2247.7998 M1097.5,2266.7998 L1084.5,2281.7998 M1097.5,2266.7998 L1110.5,2281.7998 " fill="none" filter="url(#f1llizvuanap51)" style="stroke:#A80036;stroke-width:2.0;"/><text fill="#000000" font-family="sans-serif" font-size="14" lengthAdjust="spacing" textLength="35" x="1136.5" y="91.2058">Clock</text><ellipse cx="1157" cy="21.1999" fill="#FEFECE" filter="url(#f1llizvuanap51)" rx="8" ry="8" style="stroke:#A80036;stroke-width:2.0;"/><path d="M1157,29.1999 L1157,56.1999 M1144,37.1999 L1170,37.1999 M1157,56.1999 L1144,71.1999 M1157,56.1999 L1170,71.1999 " fill="none" filter="url(#f1llizvuanap51)" style="stroke:#A80036;stroke-width:2.0;"/><text fill="#000000" font-family="sans-serif" font-size="14" lengthAdjust="spacing" textLength="35" x="1136.5" y="2218.0058">Clock</text><ellipse cx="1157" cy="2231.7998" fill="#FEFECE" filter="url(#f1llizvuanap51)" rx="8" ry="8" style="stroke:#A80036;stroke-width:2.0;"/><path d="M1157,2239.7998 L1157,2266.7998 M1144,2247.7998 L1170,2247.7998 M1157,2266.7998 L1144,2281.7998 M1157,2266.7998 L1170,2281.7998 " fill="none" filter="url(#f1llizvuanap51)" style="stroke:#A80036;stroke-width:2.0;"/><rect fill="#FFFFFF" filter="url(#f1llizvuanap51)" height="347.9998" style="stroke:#A80036;stroke-width:1.0;" width="10" x="454" y="126.5998"/><rect fill="#FFFFFF" filter="url(#f1llizvuanap51)" height="29.6" style="stroke:#A80036;stroke-width:1.0;" width="10" x="624.5" y="1462.3996"/><rect fill="#FFFFFF" filter="url(#f1llizvuanap51)" height="163.6001" style="stroke:#A80036;stroke-width:1.0;" width="10" x="893" y="235.5996"/><rect fill="#FFFFFF" filter="url(#f1llizvuanap51)" height="88.8" style="stroke:#A80036;stroke-width:1.0;" width="10" x="985.5" y="1047.9994"/><rect fill="#FFFFFF" filter="url(#f1llizvuanap51)" height="88.8" style="stroke:#A80036;stroke-width:1.0;" width="10" x="985.5" y="1715.3997"/><polygon fill="#A80036" points="442,122.5998,452,126.5998,442,130.5998,446,126.5998" style="stroke:#A80036;stroke-width:1.0;"/><line style="stroke:#A80036;stroke-width:1.0;" x1="42" x2="448" y1="126.5998" y2="126.5998"/><text fill="#000000" font-family="sans-serif" font-size="13" lengthAdjust="spacing" textLength="76" x="49" y="121.0768">Opens Agent</text><polygon fill="#A80036" points="843,136.5998,853,140.5998,843,144.5998,847,140.5998" style="stroke:#A80036;stroke-width:1.0;"/><line style="stroke:#A80036;stroke-width:1.0;" x1="464" x2="849" y1="140.5998" y2="140.5998"/><rect fill="#FEFECE" filter="url(#f1llizvuanap51)" height="64.3998" style="stroke:#A80036;stroke-width:1.5;" width="82" x="855" y="134.5998"/><text fill="#000000" font-family="sans-serif" font-size="14" lengthAdjust="spacing" textLength="68" x="862" y="154.6058">Distributed</text><text fill="#000000" font-family="sans-serif" font-size="14" lengthAdjust="spacing" textLength="30" x="881" y="171.4057">Data</text><text fill="#000000" font-family="sans-serif" font-size="14" lengthAdjust="spacing" textLength="57" x="867.5" y="188.2056">Manager</text><polygon fill="#A80036" points="881,231.5996,891,235.5996,881,239.5996,885,235.5996" style="stroke:#A80036;stroke-width:1.0;"/><line style="stroke:#A80036;stroke-width:1.0;" x1="464" x2="887" y1="235.5996" y2="235.5996"/><text fill="#000000" font-family="sans-serif" font-size="13" lengthAdjust="spacing" textLength="136" x="471" y="230.0766">getConnectedUserList()</text><polygon fill="#A80036" points="1085.5,276.7996,1095.5,280.7996,1085.5,284.7996,1089.5,280.7996" style="stroke:#A80036;stroke-width:1.0;"/><line style="stroke:#A80036;stroke-width:1.0;" x1="903" x2="1091.5" y1="280.7996" y2="280.7996"/><text fill="#000000" font-family="sans-serif" font-size="13" lengthAdjust="spacing" textLength="69" x="910" y="259.6766">Request via</text><text fill="#000000" font-family="sans-serif" font-size="13" lengthAdjust="spacing" textLength="88" x="910" y="275.2766">UDP broadcast</text><polygon fill="#A80036" points="914,306.3996,904,310.3996,914,314.3996,910,310.3996" style="stroke:#A80036;stroke-width:1.0;"/><line style="stroke:#A80036;stroke-width:1.0;" x1="908" x2="1096.5" y1="310.3996" y2="310.3996"/><text fill="#000000" font-family="sans-serif" font-size="13" lengthAdjust="spacing" textLength="159" x="920" y="304.8766">User2_ID, ethernet address</text><polygon fill="#A80036" points="914,335.9997,904,339.9997,914,343.9997,910,339.9997" style="stroke:#A80036;stroke-width:1.0;"/><line style="stroke:#A80036;stroke-width:1.0;" x1="908" x2="1096.5" y1="339.9997" y2="339.9997"/><text fill="#000000" font-family="sans-serif" font-size="13" lengthAdjust="spacing" textLength="20" x="920" y="334.4767">. . .</text><polygon fill="#A80036" points="914,365.5997,904,369.5997,914,373.5997,910,369.5997" style="stroke:#A80036;stroke-width:1.0;"/><line style="stroke:#A80036;stroke-width:1.0;" x1="908" x2="1096.5" y1="369.5997" y2="369.5997"/><text fill="#000000" font-family="sans-serif" font-size="13" lengthAdjust="spacing" textLength="56" x="920" y="364.0767">UserN_ID</text><polygon fill="#A80036" points="475,395.1997,465,399.1997,475,403.1997,471,399.1997" style="stroke:#A80036;stroke-width:1.0;"/><line style="stroke:#A80036;stroke-width:1.0;" x1="469" x2="897" y1="399.1997" y2="399.1997"/><text fill="#000000" font-family="sans-serif" font-size="13" lengthAdjust="spacing" textLength="49" x="481" y="393.6767">user_list</text><polygon fill="#A80036" points="273.5,424.7997,263.5,428.7997,273.5,432.7997,269.5,428.7997" style="stroke:#A80036;stroke-width:1.0;"/><line style="stroke:#A80036;stroke-width:1.0;" x1="267.5" x2="453" y1="428.7997" y2="428.7997"/><text fill="#000000" font-family="sans-serif" font-size="13" lengthAdjust="spacing" textLength="57" x="279.5" y="423.2767">openUI() :</text><rect fill="#FEFECE" filter="url(#f1llizvuanap51)" height="30.7999" style="stroke:#A80036;stroke-width:1.5;" width="89" x="169.5" y="407.1997"/><text fill="#000000" font-family="sans-serif" font-size="14" lengthAdjust="spacing" textLength="75" x="176.5" y="427.2056">UI Manager</text><polygon fill="#A80036" points="227,470.5996,217,474.5996,227,478.5996,223,474.5996" style="stroke:#A80036;stroke-width:1.0;"/><line style="stroke:#A80036;stroke-width:1.0;" x1="221" x2="458" y1="474.5996" y2="474.5996"/><text fill="#000000" font-family="sans-serif" font-size="13" lengthAdjust="spacing" textLength="122" x="233" y="469.0766">inputDialogBox(login)</text><path d="M10,489.5996 L83,489.5996 L83,496.5996 L73,506.5996 L10,506.5996 L10,489.5996 " fill="#EEEEEE" style="stroke:#000000;stroke-width:1.0;"/><rect fill="none" height="329.8001" style="stroke:#000000;stroke-width:2.0;" width="1136.5" x="10" y="489.5996"/><text fill="#000000" font-family="sans-serif" font-size="13" font-weight="bold" lengthAdjust="spacing" textLength="28" x="25" y="502.6766">loop</text><text fill="#000000" font-family="sans-serif" font-size="11" font-weight="bold" lengthAdjust="spacing" textLength="110" x="98" y="501.8185">[if !isUsernameValid]</text><polygon fill="#A80036" points="204,524.7997,214,528.7997,204,532.7997,208,528.7997" style="stroke:#A80036;stroke-width:1.0;"/><line style="stroke:#A80036;stroke-width:1.0;" x1="42" x2="210" y1="528.7997" y2="528.7997"/><text fill="#000000" font-family="sans-serif" font-size="13" lengthAdjust="spacing" textLength="150" x="49" y="523.2766">Logins attempt as "name"</text><polygon fill="#A80036" points="447,554.3997,457,558.3997,447,562.3997,451,558.3997" style="stroke:#A80036;stroke-width:1.0;"/><line style="stroke:#A80036;stroke-width:1.0;" x1="216" x2="453" y1="558.3997" y2="558.3997"/><text fill="#000000" font-family="sans-serif" font-size="13" lengthAdjust="spacing" textLength="113" x="223" y="552.8767">eventLogin("name")</text><path d="M159.5,573.3997 L219.5,573.3997 L219.5,580.3997 L209.5,590.3997 L159.5,590.3997 L159.5,573.3997 " fill="#EEEEEE" style="stroke:#000000;stroke-width:1.0;"/><rect fill="none" height="239" style="stroke:#000000;stroke-width:2.0;" width="977" x="159.5" y="573.3997"/><text fill="#000000" font-family="sans-serif" font-size="13" font-weight="bold" lengthAdjust="spacing" textLength="15" x="174.5" y="586.4767">alt</text><text fill="#000000" font-family="sans-serif" font-size="11" font-weight="bold" lengthAdjust="spacing" textLength="86" x="234.5" y="585.6186">[name available]</text><line style="stroke:#A80036;stroke-width:1.0;" x1="459" x2="501" y1="612.5997" y2="612.5997"/><line style="stroke:#A80036;stroke-width:1.0;" x1="501" x2="501" y1="612.5997" y2="625.5997"/><line style="stroke:#A80036;stroke-width:1.0;" x1="460" x2="501" y1="625.5997" y2="625.5997"/><polygon fill="#A80036" points="470,621.5997,460,625.5997,470,629.5997,466,625.5997" style="stroke:#A80036;stroke-width:1.0;"/><text fill="#000000" font-family="sans-serif" font-size="13" lengthAdjust="spacing" textLength="140" x="466" y="607.0767">isUsernameValid = True</text><polygon fill="#A80036" points="886,651.1997,896,655.1997,886,659.1997,890,655.1997" style="stroke:#A80036;stroke-width:1.0;"/><line style="stroke:#A80036;stroke-width:1.0;" x1="459" x2="892" y1="655.1997" y2="655.1997"/><text fill="#000000" font-family="sans-serif" font-size="13" lengthAdjust="spacing" textLength="126" x="466" y="649.6767">notifyNewName(login)</text><polygon fill="#A80036" points="1085.5,696.3997,1095.5,700.3997,1085.5,704.3997,1089.5,700.3997" style="stroke:#A80036;stroke-width:1.0;"/><line style="stroke:#A80036;stroke-width:1.0;" x1="898" x2="1091.5" y1="700.3997" y2="700.3997"/><text fill="#000000" font-family="sans-serif" font-size="13" lengthAdjust="spacing" textLength="65" x="905" y="679.2767">Notification</text><text fill="#000000" font-family="sans-serif" font-size="13" lengthAdjust="spacing" textLength="109" x="905" y="694.8767">via UDP broadcast</text><polygon fill="#A80036" points="227,725.9997,217,729.9997,227,733.9997,223,729.9997" style="stroke:#A80036;stroke-width:1.0;"/><line style="stroke:#A80036;stroke-width:1.0;" x1="221" x2="458" y1="729.9997" y2="729.9997"/><text fill="#000000" font-family="sans-serif" font-size="13" lengthAdjust="spacing" textLength="98" x="233" y="724.4767">display(user_list)</text><line style="stroke:#000000;stroke-width:1.0;stroke-dasharray:2.0,2.0;" x1="159.5" x2="1136.5" y1="738.9997" y2="738.9997"/><text fill="#000000" font-family="sans-serif" font-size="11" font-weight="bold" lengthAdjust="spacing" textLength="110" x="164.5" y="749.2187">[name already taken]</text><polygon fill="#A80036" points="227,770.7997,217,774.7997,227,778.7997,223,774.7997" style="stroke:#A80036;stroke-width:1.0;"/><line style="stroke:#A80036;stroke-width:1.0;" x1="221" x2="458" y1="774.7997" y2="774.7997"/><text fill="#000000" font-family="sans-serif" font-size="13" lengthAdjust="spacing" textLength="219" x="233" y="769.2767">errorMessage("Name Already Taken")</text><polygon fill="#A80036" points="227,800.3997,217,804.3997,227,808.3997,223,804.3997" style="stroke:#A80036;stroke-width:1.0;"/><line style="stroke:#A80036;stroke-width:1.0;" x1="221" x2="458" y1="804.3997" y2="804.3997"/><text fill="#000000" font-family="sans-serif" font-size="13" lengthAdjust="spacing" textLength="122" x="233" y="798.8767">inputDialogBox(login)</text><polygon fill="#A80036" points="204,859.5997,214,863.5997,204,867.5997,208,863.5997" style="stroke:#A80036;stroke-width:1.0;"/><line style="stroke:#A80036;stroke-width:1.0;" x1="42" x2="210" y1="863.5997" y2="863.5997"/><text fill="#000000" font-family="sans-serif" font-size="13" lengthAdjust="spacing" textLength="138" x="49" y="842.4767">Starts Chatting Session</text><text fill="#000000" font-family="sans-serif" font-size="13" lengthAdjust="spacing" textLength="61" x="49" y="858.0767">with User2</text><polygon fill="#A80036" points="447,889.1997,457,893.1997,447,897.1997,451,893.1997" style="stroke:#A80036;stroke-width:1.0;"/><line style="stroke:#A80036;stroke-width:1.0;" x1="216" x2="453" y1="893.1997" y2="893.1997"/><text fill="#000000" font-family="sans-serif" font-size="13" lengthAdjust="spacing" textLength="126" x="223" y="887.6767">eventNewChat(User2)</text><polygon fill="#A80036" points="549,918.7997,559,922.7997,549,926.7997,553,922.7997" style="stroke:#A80036;stroke-width:1.0;"/><line style="stroke:#A80036;stroke-width:1.0;" x1="459" x2="555" y1="922.7997" y2="922.7997"/><text fill="#000000" font-family="sans-serif" font-size="13" lengthAdjust="spacing" textLength="78" x="466" y="917.2767">create(User2)</text><rect fill="#FEFECE" filter="url(#f1llizvuanap51)" height="30.7999" style="stroke:#A80036;stroke-width:1.5;" width="133" x="561" y="901.1997"/><text fill="#000000" font-family="sans-serif" font-size="14" lengthAdjust="spacing" textLength="119" x="568" y="921.2057">Chatting Session 1</text><polygon fill="#A80036" points="939,948.9996,949,952.9996,939,956.9996,943,952.9996" style="stroke:#A80036;stroke-width:1.0;"/><line style="stroke:#A80036;stroke-width:1.0;" x1="629.5" x2="945" y1="952.9996" y2="952.9996"/><rect fill="#FEFECE" filter="url(#f1llizvuanap51)" height="64.3998" style="stroke:#A80036;stroke-width:1.5;" width="75" x="951" y="946.9996"/><text fill="#000000" font-family="sans-serif" font-size="14" lengthAdjust="spacing" textLength="50" x="963.5" y="967.0056">Remote</text><text fill="#000000" font-family="sans-serif" font-size="14" lengthAdjust="spacing" textLength="61" x="958" y="983.8055">Database</text><text fill="#000000" font-family="sans-serif" font-size="14" lengthAdjust="spacing" textLength="57" x="960" y="1000.6054">Manager</text><polygon fill="#A80036" points="973.5,1043.9994,983.5,1047.9994,973.5,1051.9994,977.5,1047.9994" style="stroke:#A80036;stroke-width:1.0;"/><line style="stroke:#A80036;stroke-width:1.0;" x1="629.5" x2="979.5" y1="1047.9994" y2="1047.9994"/><text fill="#000000" font-family="sans-serif" font-size="13" lengthAdjust="spacing" textLength="126" x="636.5" y="1042.4764">retrieveHistory(User2)</text><polygon fill="#A80036" points="1085.5,1073.5995,1095.5,1077.5995,1085.5,1081.5995,1089.5,1077.5995" style="stroke:#A80036;stroke-width:1.0;"/><line style="stroke:#A80036;stroke-width:1.0;" x1="995.5" x2="1091.5" y1="1077.5995" y2="1077.5995"/><text fill="#000000" font-family="sans-serif" font-size="13" lengthAdjust="spacing" textLength="73" x="1002.5" y="1072.0764">SQL request</text><polygon fill="#A80036" points="1006.5,1103.1995,996.5,1107.1995,1006.5,1111.1995,1002.5,1107.1995" style="stroke:#A80036;stroke-width:1.0;"/><line style="stroke:#A80036;stroke-width:1.0;" x1="1000.5" x2="1096.5" y1="1107.1995" y2="1107.1995"/><text fill="#000000" font-family="sans-serif" font-size="13" lengthAdjust="spacing" textLength="78" x="1012.5" y="1101.6765">history_user2</text><polygon fill="#A80036" points="640.5,1132.7995,630.5,1136.7995,640.5,1140.7995,636.5,1136.7995" style="stroke:#A80036;stroke-width:1.0;"/><line style="stroke:#A80036;stroke-width:1.0;" x1="634.5" x2="989.5" y1="1136.7995" y2="1136.7995"/><text fill="#000000" font-family="sans-serif" font-size="13" lengthAdjust="spacing" textLength="78" x="646.5" y="1131.2765">history_user2</text><polygon fill="#A80036" points="227,1162.3995,217,1166.3995,227,1170.3995,223,1166.3995" style="stroke:#A80036;stroke-width:1.0;"/><line style="stroke:#A80036;stroke-width:1.0;" x1="221" x2="628.5" y1="1166.3995" y2="1166.3995"/><text fill="#000000" font-family="sans-serif" font-size="13" lengthAdjust="spacing" textLength="165" x="233" y="1160.8765">openChattingSession(User2)</text><polygon fill="#A80036" points="227,1191.9995,217,1195.9995,227,1199.9995,223,1195.9995" style="stroke:#A80036;stroke-width:1.0;"/><line style="stroke:#A80036;stroke-width:1.0;" x1="221" x2="628.5" y1="1195.9995" y2="1195.9995"/><text fill="#000000" font-family="sans-serif" font-size="13" lengthAdjust="spacing" textLength="127" x="233" y="1190.4765">display(history_user2)</text><polygon fill="#A80036" points="204,1221.5995,214,1225.5995,204,1229.5995,208,1225.5995" style="stroke:#A80036;stroke-width:1.0;"/><line style="stroke:#A80036;stroke-width:1.0;" x1="42" x2="210" y1="1225.5995" y2="1225.5995"/><text fill="#000000" font-family="sans-serif" font-size="13" lengthAdjust="spacing" textLength="116" x="49" y="1220.0765">Sends Message M1</text><polygon fill="#A80036" points="617.5,1251.1995,627.5,1255.1995,617.5,1259.1995,621.5,1255.1995" style="stroke:#A80036;stroke-width:1.0;"/><line style="stroke:#A80036;stroke-width:1.0;" x1="216" x2="623.5" y1="1255.1995" y2="1255.1995"/><text fill="#000000" font-family="sans-serif" font-size="13" lengthAdjust="spacing" textLength="141" x="223" y="1249.6765">eventSendMessage(M1)</text><polygon fill="#A80036" points="1145,1280.7995,1155,1284.7995,1145,1288.7995,1149,1284.7995" style="stroke:#A80036;stroke-width:1.0;"/><line style="stroke:#A80036;stroke-width:1.0;" x1="629.5" x2="1151" y1="1284.7995" y2="1284.7995"/><text fill="#000000" font-family="sans-serif" font-size="13" lengthAdjust="spacing" textLength="55" x="636.5" y="1279.2765">getTime()</text><polygon fill="#A80036" points="640.5,1310.3996,630.5,1314.3996,640.5,1318.3996,636.5,1314.3996" style="stroke:#A80036;stroke-width:1.0;"/><line style="stroke:#A80036;stroke-width:1.0;" x1="634.5" x2="1156" y1="1314.3996" y2="1314.3996"/><text fill="#000000" font-family="sans-serif" font-size="13" lengthAdjust="spacing" textLength="72" x="646.5" y="1308.8766">current_time</text><polygon fill="#A80036" points="1085.5,1339.9996,1095.5,1343.9996,1085.5,1347.9996,1089.5,1343.9996" style="stroke:#A80036;stroke-width:1.0;"/><line style="stroke:#A80036;stroke-width:1.0;" x1="629.5" x2="1091.5" y1="1343.9996" y2="1343.9996"/><text fill="#000000" font-family="sans-serif" font-size="13" lengthAdjust="spacing" textLength="145" x="636.5" y="1338.4766">sendMessage(User2,M1)</text><polygon fill="#A80036" points="978.5,1369.5996,988.5,1373.5996,978.5,1377.5996,982.5,1373.5996" style="stroke:#A80036;stroke-width:1.0;"/><line style="stroke:#A80036;stroke-width:1.0;" x1="629.5" x2="984.5" y1="1373.5996" y2="1373.5996"/><text fill="#000000" font-family="sans-serif" font-size="13" lengthAdjust="spacing" textLength="144" x="636.5" y="1368.0766">updateHistory(User2,M1)</text><polygon fill="#A80036" points="1085.5,1399.1996,1095.5,1403.1996,1085.5,1407.1996,1089.5,1403.1996" style="stroke:#A80036;stroke-width:1.0;"/><line style="stroke:#A80036;stroke-width:1.0;" x1="990.5" x2="1091.5" y1="1403.1996" y2="1403.1996"/><text fill="#000000" font-family="sans-serif" font-size="13" lengthAdjust="spacing" textLength="73" x="997.5" y="1397.6766">SQL request</text><polygon fill="#A80036" points="227,1428.7996,217,1432.7996,227,1436.7996,223,1432.7996" style="stroke:#A80036;stroke-width:1.0;"/><line style="stroke:#A80036;stroke-width:1.0;" x1="221" x2="628.5" y1="1432.7996" y2="1432.7996"/><text fill="#000000" font-family="sans-serif" font-size="13" lengthAdjust="spacing" textLength="100" x="233" y="1427.2766">addMessage(M1)</text><polygon fill="#A80036" points="645.5,1458.3996,635.5,1462.3996,645.5,1466.3996,641.5,1462.3996" style="stroke:#A80036;stroke-width:1.0;"/><line style="stroke:#A80036;stroke-width:1.0;" x1="639.5" x2="1096.5" y1="1462.3996" y2="1462.3996"/><text fill="#000000" font-family="sans-serif" font-size="13" lengthAdjust="spacing" textLength="159" x="651.5" y="1456.8766">receiveMessage(User2,M2)</text><polygon fill="#A80036" points="227,1487.9996,217,1491.9996,227,1495.9996,223,1491.9996" style="stroke:#A80036;stroke-width:1.0;"/><line style="stroke:#A80036;stroke-width:1.0;" x1="221" x2="628.5" y1="1491.9996" y2="1491.9996"/><text fill="#000000" font-family="sans-serif" font-size="13" lengthAdjust="spacing" textLength="100" x="233" y="1486.4766">addMessage(M2)</text><polygon fill="#A80036" points="204,1517.5997,214,1521.5997,204,1525.5997,208,1521.5997" style="stroke:#A80036;stroke-width:1.0;"/><line style="stroke:#A80036;stroke-width:1.0;" x1="42" x2="210" y1="1521.5997" y2="1521.5997"/><text fill="#000000" font-family="sans-serif" font-size="13" lengthAdjust="spacing" textLength="143" x="49" y="1516.0767">Closes Chatting Session</text><polygon fill="#A80036" points="447,1547.1997,457,1551.1997,447,1555.1997,451,1551.1997" style="stroke:#A80036;stroke-width:1.0;"/><line style="stroke:#A80036;stroke-width:1.0;" x1="216" x2="453" y1="1551.1997" y2="1551.1997"/><text fill="#000000" font-family="sans-serif" font-size="13" lengthAdjust="spacing" textLength="105" x="223" y="1545.6767">eventClose(chat1)</text><polygon fill="#A80036" points="617.5,1576.7997,627.5,1580.7997,617.5,1584.7997,621.5,1580.7997" style="stroke:#A80036;stroke-width:1.0;"/><line style="stroke:#A80036;stroke-width:1.0;" x1="459" x2="623.5" y1="1580.7997" y2="1580.7997"/><text fill="#000000" font-family="sans-serif" font-size="13" lengthAdjust="spacing" textLength="39" x="466" y="1575.2767">close()</text><line style="stroke:#A80036;stroke-width:2.0;" x1="620.5" x2="638.5" y1="1571.7997" y2="1589.7997"/><line style="stroke:#A80036;stroke-width:2.0;" x1="620.5" x2="638.5" y1="1589.7997" y2="1571.7997"/><polygon fill="#A80036" points="227,1606.3997,217,1610.3997,227,1614.3997,223,1610.3997" style="stroke:#A80036;stroke-width:1.0;"/><line style="stroke:#A80036;stroke-width:1.0;" x1="221" x2="458" y1="1610.3997" y2="1610.3997"/><text fill="#000000" font-family="sans-serif" font-size="13" lengthAdjust="spacing" textLength="168" x="233" y="1604.8767">closeChattingSession(User2)</text><polygon fill="#A80036" points="470,1635.9997,460,1639.9997,470,1643.9997,466,1639.9997" style="stroke:#A80036;stroke-width:1.0;"/><line style="stroke:#A80036;stroke-width:1.0;" x1="464" x2="1096.5" y1="1639.9997" y2="1639.9997"/><text fill="#000000" font-family="sans-serif" font-size="13" lengthAdjust="spacing" textLength="201" x="476" y="1634.4767">Receive Messsage M3 from User3</text><polygon fill="#A80036" points="696,1665.5997,706,1669.5997,696,1673.5997,700,1669.5997" style="stroke:#A80036;stroke-width:1.0;"/><line style="stroke:#A80036;stroke-width:1.0;" x1="459" x2="702" y1="1669.5997" y2="1669.5997"/><text fill="#000000" font-family="sans-serif" font-size="13" lengthAdjust="spacing" textLength="78" x="466" y="1664.0767">create(User3)</text><rect fill="#FEFECE" filter="url(#f1llizvuanap51)" height="30.7999" style="stroke:#A80036;stroke-width:1.5;" width="133" x="708" y="1647.9997"/><text fill="#000000" font-family="sans-serif" font-size="14" lengthAdjust="spacing" textLength="119" x="715" y="1668.0057">Chatting Session 2</text><polygon fill="#A80036" points="973.5,1711.3997,983.5,1715.3997,973.5,1719.3997,977.5,1715.3997" style="stroke:#A80036;stroke-width:1.0;"/><line style="stroke:#A80036;stroke-width:1.0;" x1="776.5" x2="979.5" y1="1715.3997" y2="1715.3997"/><text fill="#000000" font-family="sans-serif" font-size="13" lengthAdjust="spacing" textLength="126" x="783.5" y="1709.8767">retrieveHistory(User3)</text><polygon fill="#A80036" points="1085.5,1740.9997,1095.5,1744.9997,1085.5,1748.9997,1089.5,1744.9997" style="stroke:#A80036;stroke-width:1.0;"/><line style="stroke:#A80036;stroke-width:1.0;" x1="995.5" x2="1091.5" y1="1744.9997" y2="1744.9997"/><text fill="#000000" font-family="sans-serif" font-size="13" lengthAdjust="spacing" textLength="73" x="1002.5" y="1739.4767">SQL request</text><polygon fill="#A80036" points="1006.5,1770.5997,996.5,1774.5997,1006.5,1778.5997,1002.5,1774.5997" style="stroke:#A80036;stroke-width:1.0;"/><line style="stroke:#A80036;stroke-width:1.0;" x1="1000.5" x2="1096.5" y1="1774.5997" y2="1774.5997"/><text fill="#000000" font-family="sans-serif" font-size="13" lengthAdjust="spacing" textLength="78" x="1012.5" y="1769.0767">history_user3</text><polygon fill="#A80036" points="787.5,1800.1997,777.5,1804.1997,787.5,1808.1997,783.5,1804.1997" style="stroke:#A80036;stroke-width:1.0;"/><line style="stroke:#A80036;stroke-width:1.0;" x1="781.5" x2="989.5" y1="1804.1997" y2="1804.1997"/><text fill="#000000" font-family="sans-serif" font-size="13" lengthAdjust="spacing" textLength="78" x="793.5" y="1798.6767">history_user3</text><polygon fill="#A80036" points="227,1829.7997,217,1833.7997,227,1837.7997,223,1833.7997" style="stroke:#A80036;stroke-width:1.0;"/><line style="stroke:#A80036;stroke-width:1.0;" x1="221" x2="775.5" y1="1833.7997" y2="1833.7997"/><text fill="#000000" font-family="sans-serif" font-size="13" lengthAdjust="spacing" textLength="165" x="233" y="1828.2767">openChattingSession(User3)</text><polygon fill="#A80036" points="227,1859.3997,217,1863.3997,227,1867.3997,223,1863.3997" style="stroke:#A80036;stroke-width:1.0;"/><line style="stroke:#A80036;stroke-width:1.0;" x1="221" x2="775.5" y1="1863.3997" y2="1863.3997"/><text fill="#000000" font-family="sans-serif" font-size="13" lengthAdjust="spacing" textLength="127" x="233" y="1857.8767">display(history_user3)</text><polygon fill="#A80036" points="227,1888.9997,217,1892.9997,227,1896.9997,223,1892.9997" style="stroke:#A80036;stroke-width:1.0;"/><line style="stroke:#A80036;stroke-width:1.0;" x1="221" x2="775.5" y1="1892.9997" y2="1892.9997"/><text fill="#000000" font-family="sans-serif" font-size="13" lengthAdjust="spacing" textLength="100" x="233" y="1887.4767">addMessage(M3)</text><polygon fill="#A80036" points="204,1918.5998,214,1922.5998,204,1926.5998,208,1922.5998" style="stroke:#A80036;stroke-width:1.0;"/><line style="stroke:#A80036;stroke-width:1.0;" x1="42" x2="210" y1="1922.5998" y2="1922.5998"/><text fill="#000000" font-family="sans-serif" font-size="13" lengthAdjust="spacing" textLength="78" x="49" y="1917.0767">Closes Agent</text><polygon fill="#A80036" points="447,1948.1998,457,1952.1998,447,1956.1998,451,1952.1998" style="stroke:#A80036;stroke-width:1.0;"/><line style="stroke:#A80036;stroke-width:1.0;" x1="216" x2="453" y1="1952.1998" y2="1952.1998"/><text fill="#000000" font-family="sans-serif" font-size="13" lengthAdjust="spacing" textLength="73" x="223" y="1946.6768">eventClose()</text><polygon fill="#A80036" points="764.5,1977.7998,774.5,1981.7998,764.5,1985.7998,768.5,1981.7998" style="stroke:#A80036;stroke-width:1.0;"/><line style="stroke:#A80036;stroke-width:1.0;" x1="459" x2="770.5" y1="1981.7998" y2="1981.7998"/><text fill="#000000" font-family="sans-serif" font-size="13" lengthAdjust="spacing" textLength="39" x="466" y="1976.2768">close()</text><line style="stroke:#A80036;stroke-width:2.0;" x1="767.5" x2="785.5" y1="1972.7998" y2="1990.7998"/><line style="stroke:#A80036;stroke-width:2.0;" x1="767.5" x2="785.5" y1="1990.7998" y2="1972.7998"/><polygon fill="#A80036" points="886,2007.3998,896,2011.3998,886,2015.3998,890,2011.3998" style="stroke:#A80036;stroke-width:1.0;"/><line style="stroke:#A80036;stroke-width:1.0;" x1="459" x2="892" y1="2011.3998" y2="2011.3998"/><text fill="#000000" font-family="sans-serif" font-size="13" lengthAdjust="spacing" textLength="74" x="466" y="2005.8768">notifyUsers()</text><polygon fill="#A80036" points="1085.5,2052.5998,1095.5,2056.5998,1085.5,2060.5998,1089.5,2056.5998" style="stroke:#A80036;stroke-width:1.0;"/><line style="stroke:#A80036;stroke-width:1.0;" x1="898" x2="1091.5" y1="2056.5998" y2="2056.5998"/><text fill="#000000" font-family="sans-serif" font-size="13" lengthAdjust="spacing" textLength="65" x="905" y="2035.4768">Notification</text><text fill="#000000" font-family="sans-serif" font-size="13" lengthAdjust="spacing" textLength="109" x="905" y="2051.0768">via UDP broadcast</text><polygon fill="#A80036" points="886,2082.1998,896,2086.1998,886,2090.1998,890,2086.1998" style="stroke:#A80036;stroke-width:1.0;"/><line style="stroke:#A80036;stroke-width:1.0;" x1="459" x2="892" y1="2086.1998" y2="2086.1998"/><text fill="#000000" font-family="sans-serif" font-size="13" lengthAdjust="spacing" textLength="39" x="466" y="2080.6768">close()</text><line style="stroke:#A80036;stroke-width:2.0;" x1="889" x2="907" y1="2077.1998" y2="2095.1998"/><line style="stroke:#A80036;stroke-width:2.0;" x1="889" x2="907" y1="2095.1998" y2="2077.1998"/><polygon fill="#A80036" points="978.5,2111.7998,988.5,2115.7998,978.5,2119.7998,982.5,2115.7998" style="stroke:#A80036;stroke-width:1.0;"/><line style="stroke:#A80036;stroke-width:1.0;" x1="459" x2="984.5" y1="2115.7998" y2="2115.7998"/><text fill="#000000" font-family="sans-serif" font-size="13" lengthAdjust="spacing" textLength="39" x="466" y="2110.2768">close()</text><line style="stroke:#A80036;stroke-width:2.0;" x1="981.5" x2="999.5" y1="2106.7998" y2="2124.7998"/><line style="stroke:#A80036;stroke-width:2.0;" x1="981.5" x2="999.5" y1="2124.7998" y2="2106.7998"/><polygon fill="#A80036" points="227,2141.3999,217,2145.3999,227,2149.3999,223,2145.3999" style="stroke:#A80036;stroke-width:1.0;"/><line style="stroke:#A80036;stroke-width:1.0;" x1="221" x2="458" y1="2145.3999" y2="2145.3999"/><text fill="#000000" font-family="sans-serif" font-size="13" lengthAdjust="spacing" textLength="39" x="233" y="2139.8769">close()</text><line style="stroke:#A80036;stroke-width:2.0;" x1="207" x2="225" y1="2136.3999" y2="2154.3999"/><line style="stroke:#A80036;stroke-width:2.0;" x1="207" x2="225" y1="2154.3999" y2="2136.3999"/><line style="stroke:#A80036;stroke-width:1.0;" x1="459" x2="501" y1="2174.9999" y2="2174.9999"/><line style="stroke:#A80036;stroke-width:1.0;" x1="501" x2="501" y1="2174.9999" y2="2187.9999"/><line style="stroke:#A80036;stroke-width:1.0;" x1="460" x2="501" y1="2187.9999" y2="2187.9999"/><polygon fill="#A80036" points="470,2183.9999,460,2187.9999,470,2191.9999,466,2187.9999" style="stroke:#A80036;stroke-width:1.0;"/><text fill="#000000" font-family="sans-serif" font-size="13" lengthAdjust="spacing" textLength="39" x="466" y="2169.4769">close()</text><line style="stroke:#A80036;stroke-width:2.0;" x1="450" x2="468" y1="2178.9999" y2="2196.9999"/><line style="stroke:#A80036;stroke-width:2.0;" x1="450" x2="468" y1="2196.9999" y2="2178.9999"/><!--MD5=[72a003dd63754521de7fbbb6e211ea9a]
@startuml sequence_white_box
actor User1 as User
box "Chat Agent"
  participant  "UI Manager" as UI
  participant "Main Class\n(and other classes)" as chatAgent
  participant "Chatting Session 1" as chat1
  participant "Chatting Session 2" as chat2
  participant "Distributed\nData\nManager" as distributedManager
  participant "Remote\nDatabase\nManager" as databaseManager
end box

actor "Network" as Network
actor "Clock" as Clock

User -> chatAgent ++ : Opens Agent
  chatAgent -> distributedManager **
  chatAgent -> distributedManager ++ : getConnectedUserList()
    distributedManager -> Network : Request via\nUDP broadcast
    Network -> distributedManager : User2_ID, ethernet address
    Network -> distributedManager : . . . 
    Network -> distributedManager : UserN_ID
  distributedManager -> chatAgent - - : user_list 
  
  UI <- chatAgent ** : openUI() :
chatAgent -> UI - - : inputDialogBox(login)

loop if !isUsernameValid
User -> UI : Logins attempt as "name"
UI -> chatAgent : eventLogin("name")
alt name available
chatAgent -> chatAgent : isUsernameValid = True
chatAgent -> distributedManager : notifyNewName(login)
distributedManager -> Network : Notification\nvia UDP broadcast
UI <- chatAgent : display(user_list)
    else name already taken
UI <- chatAgent : errorMessage("Name Already Taken")
UI <- chatAgent - - : inputDialogBox(login)
    end
end

User -> UI : Starts Chatting Session\nwith User2
  UI -> chatAgent : eventNewChat(User2)
  chatAgent -> chat1 ** : create(User2)
  chat1 -> databaseManager ** 
  chat1 -> databaseManager ++ : retrieveHistory(User2)
    databaseManager -> Network : SQL request
    Network -> databaseManager : history_user2
  databaseManager -> chat1 - - : history_user2

  chat1 -> UI : openChattingSession(User2)
chat1 -> UI - - : display(history_user2)

User -> UI : Sends Message M1
  UI -> chat1 : eventSendMessage(M1)
  chat1 -> Clock : getTime()
  Clock -> chat1 : current_time

  chat1 -> Network : sendMessage(User2,M1)

  chat1 -> databaseManager : updateHistory(User2,M1)
    databaseManager -> Network : SQL request
chat1 -> UI - - : addMessage(M1)

Network -> chat1 ++ : receiveMessage(User2,M2)
chat1 -> UI - - : addMessage(M2)

User -> UI : Closes Chatting Session
UI -> chatAgent : eventClose(chat1)
chatAgent -> chat1 !! : close()
chatAgent -> UI : closeChattingSession(User2)

Network -> chatAgent : Receive Messsage M3 from User3
  chatAgent -> chat2 ** : create(User3)
  chat2 -> databaseManager ++ : retrieveHistory(User3)
    databaseManager -> Network : SQL request
    Network -> databaseManager : history_user3
  databaseManager -> chat2 - - : history_user3
  chat2 -> UI : openChattingSession(User3)
  chat2 -> UI : display(history_user3)
chat2 -> UI - - : addMessage(M3)

User -> UI : Closes Agent
UI -> chatAgent : eventClose()
chatAgent -> chat2 !! : close()
chatAgent -> distributedManager : notifyUsers()
distributedManager -> Network : Notification\nvia UDP broadcast
chatAgent -> distributedManager !! : close()
chatAgent -> databaseManager !! : close()
chatAgent -> UI !! : close()
chatAgent -> chatAgent !! : close()
@enduml

PlantUML version 1.2021.14(Fri Nov 12 17:46:50 CET 2021)
(GPL source distribution)
Java Runtime: OpenJDK Runtime Environment
JVM: OpenJDK 64-Bit Server VM
Default Encoding: UTF-8
Language: en
Country: US
--></g></svg>