<?xml version="1.0" encoding="UTF-8" standalone="no"?><svg xmlns="http://www.w3.org/2000/svg" xmlns:xlink="http://www.w3.org/1999/xlink" contentScriptType="application/ecmascript" contentStyleType="text/css" height="407px" preserveAspectRatio="none" style="width:1127px;height:407px;background:#FFFFFF;" version="1.1" viewBox="0 0 1127 407" width="1127px" zoomAndPan="magnify"><defs><filter height="300%" id="frq230fggmd5q" width="300%" x="-1" y="-1"><feGaussianBlur result="blurOut" stdDeviation="2.0"/><feColorMatrix in="blurOut" result="blurOut2" type="matrix" values="0 0 0 0 0 0 0 0 0 0 0 0 0 0 0 0 0 0 .4 0"/><feOffset dx="4.0" dy="4.0" in="blurOut2" result="blurOut3"/><feBlend in="SourceGraphic" in2="blurOut3" mode="normal"/></filter></defs><g><!--MD5=[f3cea06e74b8c7355fa3161a567319b7]
cluster ChatAgent--><rect fill="#FFFFFF" filter="url(#frq230fggmd5q)" height="388" style="stroke:#000000;stroke-width:1.5;" width="842" x="83" y="7"/><text fill="#000000" font-family="sans-serif" font-size="14" font-weight="bold" lengthAdjust="spacing" textLength="73" x="467.5" y="22.0059">ChatAgent</text><ellipse cx="189.4896" cy="74.8979" fill="#FEFECE" filter="url(#frq230fggmd5q)" rx="69.9896" ry="16.3979" style="stroke:#A80036;stroke-width:1.5;"/><text fill="#000000" font-family="sans-serif" font-size="14" lengthAdjust="spacing" textLength="88" x="142.4896" y="78.6509">Communicate</text><ellipse cx="189.4254" cy="358.0851" fill="#FEFECE" filter="url(#frq230fggmd5q)" rx="65.9254" ry="15.5851" style="stroke:#A80036;stroke-width:1.5;"/><text fill="#000000" font-family="sans-serif" font-size="14" lengthAdjust="spacing" textLength="76" x="148.4254" y="361.8381">Open Agent</text><ellipse cx="189.2523" cy="292.1505" fill="#FEFECE" filter="url(#frq230fggmd5q)" rx="66.2523" ry="15.6505" style="stroke:#A80036;stroke-width:1.5;"/><text fill="#000000" font-family="sans-serif" font-size="14" lengthAdjust="spacing" textLength="77" x="147.7523" y="295.9034">Close Agent</text><ellipse cx="189.5418" cy="221.8084" fill="#FEFECE" filter="url(#frq230fggmd5q)" rx="82.0418" ry="18.8084" style="stroke:#A80036;stroke-width:1.5;"/><text fill="#000000" font-family="sans-serif" font-size="14" lengthAdjust="spacing" textLength="120" x="126.5418" y="225.5613">Change Username</text><ellipse cx="189.6405" cy="147.0281" fill="#FEFECE" filter="url(#frq230fggmd5q)" rx="90.6405" ry="20.5281" style="stroke:#A80036;stroke-width:1.5;"/><text fill="#000000" font-family="sans-serif" font-size="14" lengthAdjust="spacing" textLength="141" x="116.1405" y="150.7811">Start Chatting Session</text><ellipse cx="499.1019" cy="244.1204" fill="#FEFECE" filter="url(#frq230fggmd5q)" rx="68.6019" ry="16.1204" style="stroke:#A80036;stroke-width:1.5;"/><text fill="#000000" font-family="sans-serif" font-size="14" lengthAdjust="spacing" textLength="84" x="454.1019" y="247.8734">Notify Agents</text><ellipse cx="498.8207" cy="343.0638" fill="#FEFECE" filter="url(#frq230fggmd5q)" rx="96.8207" ry="27.0638" style="stroke:#A80036;stroke-width:1.5;"/><text fill="#000000" font-family="sans-serif" font-size="14" lengthAdjust="spacing" textLength="119" x="436.3207" y="338.4168">Update Connected</text><text fill="#000000" font-family="sans-serif" font-size="14" lengthAdjust="spacing" textLength="56" x="467.8207" y="355.2168">User List</text><ellipse cx="810.9073" cy="162.9815" fill="#FEFECE" filter="url(#frq230fggmd5q)" rx="97.9073" ry="21.9815" style="stroke:#A80036;stroke-width:1.5;"/><text fill="#000000" font-family="sans-serif" font-size="14" lengthAdjust="spacing" textLength="158" x="730.0069" y="166.3566">Access History Database</text><ellipse cx="810.9917" cy="83.1983" fill="#FEFECE" filter="url(#frq230fggmd5q)" rx="86.4917" ry="19.6983" style="stroke:#008000;stroke-width:1.5;"/><text fill="#000000" font-family="sans-serif" font-size="14" lengthAdjust="spacing" textLength="131" x="742.4917" y="86.9513">Provide Date &amp; Time</text><ellipse cx="498.99" cy="82.898" fill="#FEFECE" filter="url(#frq230fggmd5q)" rx="72.49" ry="16.898" style="stroke:#A80036;stroke-width:1.5;"/><text fill="#000000" font-family="sans-serif" font-size="14" lengthAdjust="spacing" textLength="95" x="448.49" y="86.651">Send Message</text><ellipse cx="498.7814" cy="158.7563" fill="#FEFECE" filter="url(#frq230fggmd5q)" rx="79.2814" ry="18.2563" style="stroke:#A80036;stroke-width:1.5;"/><text fill="#000000" font-family="sans-serif" font-size="14" lengthAdjust="spacing" textLength="113" x="439.2814" y="162.5093">Receive Message</text><!--MD5=[8fc3522a43f8c7199df5e09e5bb0188e]
entity user--><ellipse cx="21" cy="190.5" fill="#FEFECE" filter="url(#frq230fggmd5q)" rx="8" ry="8" style="stroke:#A80036;stroke-width:1.5;"/><path d="M21,198.5 L21,225.5 M8,206.5 L34,206.5 M21,225.5 L8,240.5 M21,225.5 L34,240.5 " fill="none" filter="url(#frq230fggmd5q)" style="stroke:#A80036;stroke-width:1.5;"/><text fill="#000000" font-family="sans-serif" font-size="14" lengthAdjust="spacing" textLength="30" x="6" y="259.0059">User</text><!--MD5=[57220784cd10fd02b95ed95124c16164]
entity network--><ellipse cx="998" cy="212.5" fill="#FEFECE" filter="url(#frq230fggmd5q)" rx="8" ry="8" style="stroke:#FF0000;stroke-width:1.5;"/><path d="M998,220.5 L998,247.5 M985,228.5 L1011,228.5 M998,247.5 L985,262.5 M998,247.5 L1011,262.5 " fill="none" filter="url(#frq230fggmd5q)" style="stroke:#FF0000;stroke-width:1.5;"/><text fill="#FF0000" font-family="sans-serif" font-size="14" lengthAdjust="spacing" textLength="52" x="972" y="281.0059">Network</text><!--MD5=[7ab29d5a77da579a3d1f19f49a4e31e2]
entity clock--><ellipse cx="1102.5" cy="51.5" fill="#FEFECE" filter="url(#frq230fggmd5q)" rx="8" ry="8" style="stroke:#008000;stroke-width:1.5;"/><path d="M1102.5,59.5 L1102.5,86.5 M1089.5,67.5 L1115.5,67.5 M1102.5,86.5 L1089.5,101.5 M1102.5,86.5 L1115.5,101.5 " fill="none" filter="url(#frq230fggmd5q)" style="stroke:#008000;stroke-width:1.5;"/><text fill="#008000" font-family="sans-serif" font-size="14" lengthAdjust="spacing" textLength="35" x="1085" y="120.0059">Clock</text><!--MD5=[19f70f2ee37bb7284495b3009cbdfed8]
link user to Communicate--><path d="M32.19,180.75 C40.13,156.69 53.5,127.54 75,109 C89.95,96.1 109.65,88.1 128.44,83.13 " fill="none" id="user-Communicate" style="stroke:#A80036;stroke-width:1.0;"/><!--MD5=[c30f4012e5b6126a79e01b4514cb43bb]
link user to Open Agent--><path d="M34.29,263.01 C42.61,284.28 55.68,309.08 75,325 C90.84,338.05 111.62,345.94 131.07,350.71 " fill="none" id="user-Open Agent" style="stroke:#A80036;stroke-width:1.0;"/><!--MD5=[d339f393df8ac86009cc18a3756ad95a]
link user to Close Agent--><path d="M36.05,233.73 C46.31,241.79 60.83,252.22 75,259 C95.46,268.79 119.4,276.27 140.01,281.62 " fill="none" id="user-Close Agent" style="stroke:#A80036;stroke-width:1.0;"/><!--MD5=[c9e237ca7a1cd81b4916f81bc3a82ae6]
link user to Change Username--><path d="M36.2,222 C52.32,222 79.95,222 107.28,222 " fill="none" id="user-Change Username" style="stroke:#A80036;stroke-width:1.0;"/><!--MD5=[56cbe6eb279b4401a2c7b36e8dc2f03d]
link user to Start Chatting Session--><path d="M36.14,210.44 C46.43,202.47 60.97,192.06 75,185 C92.54,176.17 112.6,168.68 130.92,162.75 " fill="none" id="user-Start Chatting Session" style="stroke:#A80036;stroke-width:1.0;"/><!--MD5=[8c06610dbff135908f67469c2510eebd]
link Notify Agents to network--><path d="M567.54,244 C679.41,244 898.15,244 971.98,244 " fill="none" id="Notify Agents-network" style="stroke:#A80036;stroke-width:1.0;"/><!--MD5=[dc3f5fe9e2266cefa451323d264c3369]
link Update Connected\nUser List to network--><path d="M578.48,327.37 C693.09,304.54 900.4,263.24 971.94,248.99 " fill="none" id="Update Connected\nUser List-network" style="stroke:#A80036;stroke-width:1.0;"/><!--MD5=[e07a26bd19befc04b1e1b5adb0bdc655]
link Access History Database to network--><path d="M858.83,182.26 C883.66,192.61 914.6,205.73 942,218 C951.83,222.4 962.56,227.42 971.91,231.87 " fill="none" id="Access History Database-network" style="stroke:#A80036;stroke-width:1.0;"/><!--MD5=[e96eee8947a693da28a7c29cc4cee586]
link Provide Date & Time to clock--><path d="M897.68,83 C963.54,83 1049.09,83 1084.75,83 " fill="none" id="Provide Date &amp; Time-clock" style="stroke:#008000;stroke-width:1.0;"/><!--MD5=[6a3aa12438f5482c8004903c7e84965c]
reverse link Communicate to Send Message--><path d="M279.23,77.31 C326.14,78.53 382.94,80.01 426.91,81.15 " fill="none" id="Communicate-backto-Send Message" style="stroke:#A80036;stroke-width:1.0;"/><polygon fill="none" points="278.94,84.3,259.13,76.79,279.3,70.31,278.94,84.3" style="stroke:#A80036;stroke-width:1.0;"/><text fill="#000000" font-family="sans-serif" font-size="13" lengthAdjust="spacing" textLength="60" x="311" y="75.077">«extends»</text><!--MD5=[ac6825e5ee32df9eba9a0c36a5b3a87c]
reverse link Communicate to Receive Message--><path d="M255.29,92.7 C312.32,108.28 394.25,130.66 446.8,145.01 " fill="none" id="Communicate-backto-Receive Message" style="stroke:#A80036;stroke-width:1.0;"/><polygon fill="none" points="253.32,99.42,235.87,87.39,257.01,85.91,253.32,99.42" style="stroke:#A80036;stroke-width:1.0;"/><text fill="#000000" font-family="sans-serif" font-size="13" lengthAdjust="spacing" textLength="60" x="311" y="106.077">«extends»</text><!--MD5=[4de0ef255ebb1a62975b0c780a6ee574]
reverse link Start Chatting Session to Receive Message--><path d="M264.94,167.95 C279.75,171.3 295.28,174.24 310,176 C352.63,181.1 400.86,176.53 437.79,170.85 " fill="none" id="Start Chatting Session-backto-Receive Message" style="stroke:#A80036;stroke-width:1.0;stroke-dasharray:7.0,7.0;"/><polygon fill="none" points="263.12,174.71,245.33,163.2,266.41,161.11,263.12,174.71" style="stroke:#A80036;stroke-width:1.0;"/><text fill="#000000" font-family="sans-serif" font-size="13" lengthAdjust="spacing" textLength="55" x="313.5" y="172.077">«include»</text><!--MD5=[f279530711dba5f0fc250cf8d3ac1a87]
link Close Agent to Notify Agents--><path d="M245.12,283.47 C294.17,275.82 366.68,264.5 421.49,255.94 " fill="none" id="Close Agent-to-Notify Agents" style="stroke:#A80036;stroke-width:1.0;stroke-dasharray:7.0,7.0;"/><polygon fill="none" points="420.71,248.98,441.55,252.81,422.87,262.81,420.71,248.98" style="stroke:#A80036;stroke-width:1.0;"/><text fill="#000000" font-family="sans-serif" font-size="13" lengthAdjust="spacing" textLength="55" x="313.5" y="259.077">«include»</text><!--MD5=[61dbfcd7312701736d24cd0f6de9e241]
link Send Message to Access History Database--><path d="M548.44,95.5 C596.04,107.78 669.63,126.78 726.64,141.49 " fill="none" id="Send Message-to-Access History Database" style="stroke:#A80036;stroke-width:1.0;stroke-dasharray:7.0,7.0;"/><polygon fill="none" points="728.43,134.72,746.05,146.5,724.94,148.28,728.43,134.72" style="stroke:#A80036;stroke-width:1.0;"/><text fill="#000000" font-family="sans-serif" font-size="13" lengthAdjust="spacing" textLength="55" x="627" y="112.077">«include»</text><!--MD5=[c8a820765338173f26f75756c671e73f]
link Send Message to Provide Date & Time--><path d="M571.51,83 C610.79,83 660.28,83 703.98,83 " fill="none" id="Send Message-to-Provide Date &amp; Time" style="stroke:#A80036;stroke-width:1.0;stroke-dasharray:7.0,7.0;"/><polygon fill="none" points="704.24,76,724.24,83,704.24,90,704.24,76" style="stroke:#A80036;stroke-width:1.0;"/><text fill="#000000" font-family="sans-serif" font-size="13" lengthAdjust="spacing" textLength="55" x="627" y="79.077">«include»</text><!--MD5=[c3f66508caef6be0a419ec7c64676f3d]
link Open Agent to Update Connected\nUser List--><path d="M254.21,354.89 C291.51,353.07 339.71,350.72 383.39,348.59 " fill="none" id="Open Agent-to-Update Connected\nUser List" style="stroke:#A80036;stroke-width:1.0;stroke-dasharray:7.0,7.0;"/><polygon fill="none" points="383.1,341.6,403.42,347.61,383.78,355.58,383.1,341.6" style="stroke:#A80036;stroke-width:1.0;"/><text fill="#000000" font-family="sans-serif" font-size="13" lengthAdjust="spacing" textLength="55" x="313.5" y="345.077">«include»</text><!--MD5=[dd97be084615c178c0b439dafae825cd]
link Change Username to Notify Agents--><path d="M268.1,227.55 C312.38,230.72 367.93,234.69 413.34,237.94 " fill="none" id="Change Username-to-Notify Agents" style="stroke:#A80036;stroke-width:1.0;stroke-dasharray:7.0,7.0;"/><polygon fill="none" points="413.96,230.97,433.41,239.38,412.96,244.93,413.96,230.97" style="stroke:#A80036;stroke-width:1.0;"/><text fill="#000000" font-family="sans-serif" font-size="13" lengthAdjust="spacing" textLength="55" x="313.5" y="228.077">«include»</text><!--MD5=[ee19a790122d991f8f8959f923378861]
@startuml usecase
left to right direction
:User: as user
    :Network: as network #line:red;text:red
    :Clock: as clock #line:green;text:green
rectangle ChatAgent{
 user- -(Communicate)
 user- -(Open Agent)
 user- -(Close Agent)
 user- -(Change Username)
 user- -(Start Chatting Session)

(Notify Agents)- - -network
(Update Connected\nUser List)-network
(Access History Database)- -network
 
 (Provide Date & Time) #line:green
 (Provide Date & Time)- - -clock #green

 (Communicate)<|- -(Send Message) : <<extends>>
 (Communicate)<|- -(Receive Message) : <<extends>>

 
 (Start Chatting Session)<|..(Receive Message) : <<include>>
 (Close Agent)..|>(Notify Agents) : <<include>>

 (Send Message)..|>(Access History Database) : <<include>>
 (Send Message)..|>(Provide Date & Time) : <<include>>

 (Open Agent)..|>(Update Connected\nUser List) : <<include>>
 (Change Username)..|>(Notify Agents) : <<include>>
}
@enduml

PlantUML version 1.2021.14(Fri Nov 12 17:46:50 CET 2021)
(GPL source distribution)
Java Runtime: OpenJDK Runtime Environment
JVM: OpenJDK 64-Bit Server VM
Default Encoding: UTF-8
Language: en
Country: US
--></g></svg>