<?xml version="1.0" encoding="UTF-8" standalone="no"?><svg xmlns="http://www.w3.org/2000/svg" xmlns:xlink="http://www.w3.org/1999/xlink" contentScriptType="application/ecmascript" contentStyleType="text/css" height="506px" preserveAspectRatio="none" style="width:803px;height:506px;background:#FFFFFF;" version="1.1" viewBox="0 0 803 506" width="803px" zoomAndPan="magnify"><defs><filter height="300%" id="f95c0pte6zeaj" width="300%" x="-1" y="-1"><feGaussianBlur result="blurOut" stdDeviation="2.0"/><feColorMatrix in="blurOut" result="blurOut2" type="matrix" values="0 0 0 0 0 0 0 0 0 0 0 0 0 0 0 0 0 0 .4 0"/><feOffset dx="4.0" dy="4.0" in="blurOut2" result="blurOut3"/><feBlend in="SourceGraphic" in2="blurOut3" mode="normal"/></filter></defs><g><!--MD5=[4520fda4e10d4d791ce48fe025810cd4]
class main--><rect codeLine="1" fill="#FEFECE" filter="url(#f95c0pte6zeaj)" height="103.3438" id="main" style="stroke:#A80036;stroke-width:1.5;" width="223" x="312.5" y="240"/><ellipse cx="405.75" cy="256" fill="#A9DCDF" rx="11" ry="11" style="stroke:#A80036;stroke-width:1.0;"/><path d="M407.9375,257.7656 L403.7969,257.7656 L403.375,258.7969 L403.7969,258.7969 Q404.4063,258.7969 404.6719,259.0313 Q404.9375,259.2656 404.9375,259.6563 Q404.9375,260.0313 404.6719,260.2656 Q404.4063,260.5 403.7969,260.5 L401.5,260.5 Q400.8906,260.5 400.6406,260.2656 Q400.375,260.0313 400.375,259.6406 Q400.375,259.2656 400.6563,259.0313 Q400.9219,258.7813 401.5469,258.7969 L404.2188,252.1406 L403.1094,252.1406 Q402.5,252.1406 402.2344,251.9063 Q401.9688,251.6719 401.9688,251.2813 Q401.9688,250.9063 402.2344,250.6719 Q402.5,250.4375 403.1094,250.4375 L406.7813,250.4375 L410.1719,258.7969 Q410.7656,258.7969 410.9531,258.9375 Q411.3438,259.2031 411.3438,259.6563 Q411.3438,260.0313 411.0781,260.2656 Q410.8281,260.5 410.2188,260.5 L407.9219,260.5 Q407.3125,260.5 407.0469,260.2656 Q406.7813,260.0313 406.7813,259.6406 Q406.7813,259.2656 407.0469,259.0313 Q407.3125,258.7969 407.9219,258.7969 L408.3438,258.7969 L407.9375,257.7656 Z M407.2188,256.0625 L405.8594,252.6875 L404.4844,256.0625 L407.2188,256.0625 Z " fill="#000000"/><text fill="#000000" font-family="sans-serif" font-size="12" font-style="italic" lengthAdjust="spacing" textLength="28" x="426.25" y="260.9102">main</text><line style="stroke:#A80036;stroke-width:1.5;" x1="313.5" x2="534.5" y1="272" y2="272"/><line style="stroke:#A80036;stroke-width:1.5;" x1="313.5" x2="534.5" y1="280" y2="280"/><rect fill="#F24D5C" height="6" style="stroke:#C82930;stroke-width:1.0;" width="6" x="320.5" y="288"/><text fill="#000000" font-family="sans-serif" font-size="11" lengthAdjust="spacing" textLength="166" x="332.5" y="295.4189">boolean verifyUnicity(String name)</text><rect fill="#F24D5C" height="6" style="stroke:#C82930;stroke-width:1.0;" width="6" x="320.5" y="301.8359"/><text fill="#000000" font-family="sans-serif" font-size="11" lengthAdjust="spacing" textLength="162" x="332.5" y="309.2549">void waitForConnectionRequest()</text><rect fill="#F24D5C" height="6" style="stroke:#C82930;stroke-width:1.0;" width="6" x="320.5" y="315.6719"/><text fill="#000000" font-family="sans-serif" font-size="11" lengthAdjust="spacing" textLength="197" x="332.5" y="323.0908">void receiveNotification(Notification notif)</text><rect fill="#F24D5C" height="6" style="stroke:#C82930;stroke-width:1.0;" width="6" x="320.5" y="329.5078"/><text fill="#000000" font-family="sans-serif" font-size="11" lengthAdjust="spacing" textLength="53" x="332.5" y="336.9268">void main()</text><!--MD5=[d602b77267d5088762cb6a59b8ed96b1]
class UIManager--><rect codeLine="8" fill="#FEFECE" filter="url(#f95c0pte6zeaj)" height="131.0156" id="UIManager" style="stroke:#A80036;stroke-width:1.5;" width="218" x="320" y="28"/><ellipse cx="394.25" cy="44" fill="#A9DCDF" rx="11" ry="11" style="stroke:#A80036;stroke-width:1.0;"/><path d="M396.4375,45.7656 L392.2969,45.7656 L391.875,46.7969 L392.2969,46.7969 Q392.9063,46.7969 393.1719,47.0313 Q393.4375,47.2656 393.4375,47.6563 Q393.4375,48.0313 393.1719,48.2656 Q392.9063,48.5 392.2969,48.5 L390,48.5 Q389.3906,48.5 389.1406,48.2656 Q388.875,48.0313 388.875,47.6406 Q388.875,47.2656 389.1563,47.0313 Q389.4219,46.7813 390.0469,46.7969 L392.7188,40.1406 L391.6094,40.1406 Q391,40.1406 390.7344,39.9063 Q390.4688,39.6719 390.4688,39.2813 Q390.4688,38.9063 390.7344,38.6719 Q391,38.4375 391.6094,38.4375 L395.2813,38.4375 L398.6719,46.7969 Q399.2656,46.7969 399.4531,46.9375 Q399.8438,47.2031 399.8438,47.6563 Q399.8438,48.0313 399.5781,48.2656 Q399.3281,48.5 398.7188,48.5 L396.4219,48.5 Q395.8125,48.5 395.5469,48.2656 Q395.2813,48.0313 395.2813,47.6406 Q395.2813,47.2656 395.5469,47.0313 Q395.8125,46.7969 396.4219,46.7969 L396.8438,46.7969 L396.4375,45.7656 Z M395.7188,44.0625 L394.3594,40.6875 L392.9844,44.0625 L395.7188,44.0625 Z " fill="#000000"/><text fill="#000000" font-family="sans-serif" font-size="12" font-style="italic" lengthAdjust="spacing" textLength="61" x="414.75" y="48.9102">UIManager</text><line style="stroke:#A80036;stroke-width:1.5;" x1="321" x2="537" y1="60" y2="60"/><line style="stroke:#A80036;stroke-width:1.5;" x1="321" x2="537" y1="68" y2="68"/><ellipse cx="331" cy="79" fill="#84BE84" rx="3" ry="3" style="stroke:#038048;stroke-width:1.0;"/><text fill="#000000" font-family="sans-serif" font-size="11" lengthAdjust="spacing" textLength="64" x="340" y="83.4189">void openUI()</text><ellipse cx="331" cy="92.8359" fill="#84BE84" rx="3" ry="3" style="stroke:#038048;stroke-width:1.0;"/><text fill="#000000" font-family="sans-serif" font-size="11" lengthAdjust="spacing" textLength="159" x="340" y="97.2549">void inputDialogBox(String Login)</text><ellipse cx="331" cy="106.6719" fill="#84BE84" rx="3" ry="3" style="stroke:#038048;stroke-width:1.0;"/><text fill="#000000" font-family="sans-serif" font-size="11" lengthAdjust="spacing" textLength="190" x="340" y="111.0908">void openChattingSession(userID User)</text><ellipse cx="331" cy="120.5078" fill="#84BE84" rx="3" ry="3" style="stroke:#038048;stroke-width:1.0;"/><text fill="#000000" font-family="sans-serif" font-size="11" lengthAdjust="spacing" textLength="192" x="340" y="124.9268">void closeChattingSession(userID User)</text><ellipse cx="331" cy="134.3438" fill="#84BE84" rx="3" ry="3" style="stroke:#038048;stroke-width:1.0;"/><text fill="#000000" font-family="sans-serif" font-size="11" lengthAdjust="spacing" textLength="184" x="340" y="138.7627">void addMessage(message Message)</text><ellipse cx="331" cy="148.1797" fill="#84BE84" rx="3" ry="3" style="stroke:#038048;stroke-width:1.0;"/><text fill="#000000" font-family="sans-serif" font-size="11" lengthAdjust="spacing" textLength="186" x="340" y="152.5986">void addHistory(message[] Messages)</text><!--MD5=[2537d44d4b901bc17a46e4edeb5b4130]
class DistributedDataManager--><rect codeLine="17" fill="#FEFECE" filter="url(#f95c0pte6zeaj)" height="103.3438" id="DistributedDataManager" style="stroke:#A80036;stroke-width:1.5;" width="250" x="27" y="240"/><ellipse cx="80.75" cy="256" fill="#A9DCDF" rx="11" ry="11" style="stroke:#A80036;stroke-width:1.0;"/><path d="M82.9375,257.7656 L78.7969,257.7656 L78.375,258.7969 L78.7969,258.7969 Q79.4063,258.7969 79.6719,259.0313 Q79.9375,259.2656 79.9375,259.6563 Q79.9375,260.0313 79.6719,260.2656 Q79.4063,260.5 78.7969,260.5 L76.5,260.5 Q75.8906,260.5 75.6406,260.2656 Q75.375,260.0313 75.375,259.6406 Q75.375,259.2656 75.6563,259.0313 Q75.9219,258.7813 76.5469,258.7969 L79.2188,252.1406 L78.1094,252.1406 Q77.5,252.1406 77.2344,251.9063 Q76.9688,251.6719 76.9688,251.2813 Q76.9688,250.9063 77.2344,250.6719 Q77.5,250.4375 78.1094,250.4375 L81.7813,250.4375 L85.1719,258.7969 Q85.7656,258.7969 85.9531,258.9375 Q86.3438,259.2031 86.3438,259.6563 Q86.3438,260.0313 86.0781,260.2656 Q85.8281,260.5 85.2188,260.5 L82.9219,260.5 Q82.3125,260.5 82.0469,260.2656 Q81.7813,260.0313 81.7813,259.6406 Q81.7813,259.2656 82.0469,259.0313 Q82.3125,258.7969 82.9219,258.7969 L83.3438,258.7969 L82.9375,257.7656 Z M82.2188,256.0625 L80.8594,252.6875 L79.4844,256.0625 L82.2188,256.0625 Z " fill="#000000"/><text fill="#000000" font-family="sans-serif" font-size="12" font-style="italic" lengthAdjust="spacing" textLength="134" x="101.25" y="260.9102">DistributedDataManager</text><line style="stroke:#A80036;stroke-width:1.5;" x1="28" x2="276" y1="272" y2="272"/><line style="stroke:#A80036;stroke-width:1.5;" x1="28" x2="276" y1="280" y2="280"/><rect fill="#F24D5C" height="6" style="stroke:#C82930;stroke-width:1.0;" width="6" x="35" y="288"/><text fill="#000000" font-family="sans-serif" font-size="11" lengthAdjust="spacing" textLength="156" x="47" y="295.4189">void sendUPDBroadcast(String )</text><ellipse cx="38" cy="304.8359" fill="#84BE84" rx="3" ry="3" style="stroke:#038048;stroke-width:1.0;"/><text fill="#000000" font-family="sans-serif" font-size="11" lengthAdjust="spacing" textLength="158" x="47" y="309.2549">UserList getConnectedUserList()</text><ellipse cx="38" cy="318.6719" fill="#84BE84" rx="3" ry="3" style="stroke:#038048;stroke-width:1.0;"/><text fill="#000000" font-family="sans-serif" font-size="11" lengthAdjust="spacing" textLength="87" x="47" y="323.0908">void notifyUsers()</text><ellipse cx="38" cy="332.5078" fill="#84BE84" rx="3" ry="3" style="stroke:#038048;stroke-width:1.0;"/><text fill="#000000" font-family="sans-serif" font-size="11" lengthAdjust="spacing" textLength="224" x="47" y="336.9268">void notifyNewName(userID User,string Login)</text><!--MD5=[02f642c9d723d92eda05eaec770a69a3]
class RemoteDatabaseManager--><rect codeLine="24" fill="#FEFECE" filter="url(#f95c0pte6zeaj)" height="103.3438" id="RemoteDatabaseManager" style="stroke:#A80036;stroke-width:1.5;" width="278" x="7" y="42"/><ellipse cx="68.75" cy="58" fill="#A9DCDF" rx="11" ry="11" style="stroke:#A80036;stroke-width:1.0;"/><path d="M70.9375,59.7656 L66.7969,59.7656 L66.375,60.7969 L66.7969,60.7969 Q67.4063,60.7969 67.6719,61.0313 Q67.9375,61.2656 67.9375,61.6563 Q67.9375,62.0313 67.6719,62.2656 Q67.4063,62.5 66.7969,62.5 L64.5,62.5 Q63.8906,62.5 63.6406,62.2656 Q63.375,62.0313 63.375,61.6406 Q63.375,61.2656 63.6563,61.0313 Q63.9219,60.7813 64.5469,60.7969 L67.2188,54.1406 L66.1094,54.1406 Q65.5,54.1406 65.2344,53.9063 Q64.9688,53.6719 64.9688,53.2813 Q64.9688,52.9063 65.2344,52.6719 Q65.5,52.4375 66.1094,52.4375 L69.7813,52.4375 L73.1719,60.7969 Q73.7656,60.7969 73.9531,60.9375 Q74.3438,61.2031 74.3438,61.6563 Q74.3438,62.0313 74.0781,62.2656 Q73.8281,62.5 73.2188,62.5 L70.9219,62.5 Q70.3125,62.5 70.0469,62.2656 Q69.7813,62.0313 69.7813,61.6406 Q69.7813,61.2656 70.0469,61.0313 Q70.3125,60.7969 70.9219,60.7969 L71.3438,60.7969 L70.9375,59.7656 Z M70.2188,58.0625 L68.8594,54.6875 L67.4844,58.0625 L70.2188,58.0625 Z " fill="#000000"/><text fill="#000000" font-family="sans-serif" font-size="12" font-style="italic" lengthAdjust="spacing" textLength="146" x="89.25" y="62.9102">RemoteDatabaseManager</text><line style="stroke:#A80036;stroke-width:1.5;" x1="8" x2="284" y1="74" y2="74"/><rect fill="none" height="6" style="stroke:#C82930;stroke-width:1.0;" width="6" x="15" y="82"/><text fill="#000000" font-family="sans-serif" font-size="11" lengthAdjust="spacing" textLength="142" x="27" y="89.4189">database_ip_address : String</text><line style="stroke:#A80036;stroke-width:1.5;" x1="8" x2="284" y1="95.8359" y2="95.8359"/><rect fill="#F24D5C" height="6" style="stroke:#C82930;stroke-width:1.0;" width="6" x="15" y="103.8359"/><text fill="#000000" font-family="sans-serif" font-size="11" lengthAdjust="spacing" textLength="211" x="27" y="111.2549">void sendSQLRequest(String SQL_request)</text><ellipse cx="18" cy="120.6719" fill="#84BE84" rx="3" ry="3" style="stroke:#038048;stroke-width:1.0;"/><text fill="#000000" font-family="sans-serif" font-size="11" lengthAdjust="spacing" textLength="189" x="27" y="125.0908">message[] retrieveHistory(userID User)</text><ellipse cx="18" cy="134.5078" fill="#84BE84" rx="3" ry="3" style="stroke:#038048;stroke-width:1.0;"/><text fill="#000000" font-family="sans-serif" font-size="11" lengthAdjust="spacing" textLength="252" x="27" y="138.9268">void updateHistory(userID User, message Message)</text><!--MD5=[410a85792e878c4a58d0df776009769b]
class ChattingSession--><rect codeLine="31" fill="#FEFECE" filter="url(#f95c0pte6zeaj)" height="172.5234" id="ChattingSession" style="stroke:#A80036;stroke-width:1.5;" width="216" x="573" y="7"/><ellipse cx="630.75" cy="23" fill="#ADD1B2" rx="11" ry="11" style="stroke:#A80036;stroke-width:1.0;"/><path d="M633.5156,18.875 Q633.6719,18.6563 633.8594,18.5469 Q634.0469,18.4375 634.2656,18.4375 Q634.6406,18.4375 634.875,18.7031 Q635.1094,18.9531 635.1094,19.5625 L635.1094,21.0156 Q635.1094,21.625 634.875,21.8906 Q634.6406,22.1563 634.2656,22.1563 Q633.9219,22.1563 633.7188,21.9531 Q633.5156,21.7656 633.4063,21.25 Q633.3594,20.8906 633.1719,20.7031 Q632.8438,20.3281 632.2344,20.1094 Q631.625,19.8906 631,19.8906 Q630.2344,19.8906 629.5938,20.2188 Q628.9688,20.5469 628.4688,21.2969 Q627.9844,22.0469 627.9844,23.0781 L627.9844,24.1719 Q627.9844,25.4063 628.875,26.2344 Q629.7656,27.0469 631.3594,27.0469 Q632.2969,27.0469 632.9531,26.7969 Q633.3438,26.6406 633.7656,26.2031 Q634.0313,25.9375 634.1719,25.8594 Q634.3281,25.7813 634.5313,25.7813 Q634.8594,25.7813 635.1094,26.0469 Q635.375,26.2969 635.375,26.6406 Q635.375,26.9844 635.0313,27.3906 Q634.5313,27.9688 633.7344,28.2969 Q632.6563,28.75 631.3594,28.75 Q629.8438,28.75 628.6406,28.125 Q627.6563,27.625 626.9688,26.5625 Q626.2813,25.4844 626.2813,24.2031 L626.2813,23.0469 Q626.2813,21.7188 626.8906,20.5781 Q627.5156,19.4219 628.6094,18.8125 Q629.7031,18.1875 630.9375,18.1875 Q631.6719,18.1875 632.3125,18.3594 Q632.9688,18.5156 633.5156,18.875 Z " fill="#000000"/><text fill="#000000" font-family="sans-serif" font-size="12" lengthAdjust="spacing" textLength="92" x="651.25" y="27.9102">ChattingSession</text><line style="stroke:#A80036;stroke-width:1.5;" x1="574" x2="788" y1="39" y2="39"/><rect fill="none" height="6" style="stroke:#C82930;stroke-width:1.0;" width="6" x="581" y="47"/><text fill="#000000" font-family="sans-serif" font-size="11" lengthAdjust="spacing" textLength="119" x="593" y="54.4189">user_ip_address : String</text><rect fill="none" height="6" style="stroke:#C82930;stroke-width:1.0;" width="6" x="581" y="60.8359"/><text fill="#000000" font-family="sans-serif" font-size="11" lengthAdjust="spacing" textLength="76" x="593" y="68.2549">user_id : userID</text><rect fill="none" height="6" style="stroke:#C82930;stroke-width:1.0;" width="6" x="581" y="74.6719"/><text fill="#000000" font-family="sans-serif" font-size="11" lengthAdjust="spacing" textLength="85" x="593" y="82.0908">username : String</text><line style="stroke:#A80036;stroke-width:1.5;" x1="574" x2="788" y1="88.5078" y2="88.5078"/><rect fill="#F24D5C" height="6" style="stroke:#C82930;stroke-width:1.0;" width="6" x="581" y="96.5078"/><text fill="#000000" font-family="sans-serif" font-size="11" lengthAdjust="spacing" textLength="70" x="593" y="103.9268">Date getTime()</text><rect fill="#F24D5C" height="6" style="stroke:#C82930;stroke-width:1.0;" width="6" x="581" y="110.3438"/><text fill="#000000" font-family="sans-serif" font-size="11" lengthAdjust="spacing" textLength="190" x="593" y="117.7627">void sendMessage(message Message)</text><rect fill="#F24D5C" height="6" style="stroke:#C82930;stroke-width:1.0;" width="6" x="581" y="124.1797"/><text fill="#000000" font-family="sans-serif" font-size="11" lengthAdjust="spacing" textLength="135" x="593" y="131.5986">Message receiveMessage()</text><rect fill="#F24D5C" height="6" style="stroke:#C82930;stroke-width:1.0;" width="6" x="581" y="138.0156"/><text fill="#000000" font-family="sans-serif" font-size="11" lengthAdjust="spacing" textLength="122" x="593" y="145.4346">void sendFile(string Path)</text><rect fill="#F24D5C" height="6" style="stroke:#C82930;stroke-width:1.0;" width="6" x="581" y="151.8516"/><text fill="#000000" font-family="sans-serif" font-size="11" lengthAdjust="spacing" textLength="83" x="593" y="159.2705">void receiveFile()</text><ellipse cx="584" cy="168.6875" fill="#84BE84" rx="3" ry="3" style="stroke:#038048;stroke-width:1.0;"/><text fill="#000000" font-family="sans-serif" font-size="11" lengthAdjust="spacing" textLength="57" x="593" y="173.1064">void close()</text><!--MD5=[bea5b0d46523efab5ea1c1d339f396f0]
class Message--><rect codeLine="43" fill="#FEFECE" filter="url(#f95c0pte6zeaj)" height="75.6719" id="Message" style="stroke:#A80036;stroke-width:1.5;" width="85" x="642.5" y="253.5"/><ellipse cx="658.4" cy="269.5" fill="#ADD1B2" rx="11" ry="11" style="stroke:#A80036;stroke-width:1.0;"/><path d="M661.1656,265.375 Q661.3219,265.1563 661.5094,265.0469 Q661.6969,264.9375 661.9156,264.9375 Q662.2906,264.9375 662.525,265.2031 Q662.7594,265.4531 662.7594,266.0625 L662.7594,267.5156 Q662.7594,268.125 662.525,268.3906 Q662.2906,268.6563 661.9156,268.6563 Q661.5719,268.6563 661.3688,268.4531 Q661.1656,268.2656 661.0563,267.75 Q661.0094,267.3906 660.8219,267.2031 Q660.4938,266.8281 659.8844,266.6094 Q659.275,266.3906 658.65,266.3906 Q657.8844,266.3906 657.2438,266.7188 Q656.6188,267.0469 656.1188,267.7969 Q655.6344,268.5469 655.6344,269.5781 L655.6344,270.6719 Q655.6344,271.9063 656.525,272.7344 Q657.4156,273.5469 659.0094,273.5469 Q659.9469,273.5469 660.6031,273.2969 Q660.9938,273.1406 661.4156,272.7031 Q661.6813,272.4375 661.8219,272.3594 Q661.9781,272.2813 662.1813,272.2813 Q662.5094,272.2813 662.7594,272.5469 Q663.025,272.7969 663.025,273.1406 Q663.025,273.4844 662.6813,273.8906 Q662.1813,274.4688 661.3844,274.7969 Q660.3063,275.25 659.0094,275.25 Q657.4938,275.25 656.2906,274.625 Q655.3063,274.125 654.6188,273.0625 Q653.9313,271.9844 653.9313,270.7031 L653.9313,269.5469 Q653.9313,268.2188 654.5406,267.0781 Q655.1656,265.9219 656.2594,265.3125 Q657.3531,264.6875 658.5875,264.6875 Q659.3219,264.6875 659.9625,264.8594 Q660.6188,265.0156 661.1656,265.375 Z " fill="#000000"/><text fill="#000000" font-family="sans-serif" font-size="12" lengthAdjust="spacing" textLength="51" x="672.6" y="274.4102">Message</text><line style="stroke:#A80036;stroke-width:1.5;" x1="643.5" x2="726.5" y1="285.5" y2="285.5"/><text fill="#000000" font-family="sans-serif" font-size="11" lengthAdjust="spacing" textLength="50" x="648.5" y="300.9189">time : Date</text><text fill="#000000" font-family="sans-serif" font-size="11" lengthAdjust="spacing" textLength="73" x="648.5" y="314.7549">content : String</text><line style="stroke:#A80036;stroke-width:1.5;" x1="643.5" x2="726.5" y1="321.1719" y2="321.1719"/><!--MD5=[24a4751dab83c56cb9aa5f8fcf627ca0]
class UserList--><rect codeLine="48" fill="#FEFECE" filter="url(#f95c0pte6zeaj)" height="89.5078" id="UserList" style="stroke:#A80036;stroke-width:1.5;" width="138" x="437" y="403"/><ellipse cx="478.55" cy="419" fill="#ADD1B2" rx="11" ry="11" style="stroke:#A80036;stroke-width:1.0;"/><path d="M481.3156,414.875 Q481.4719,414.6563 481.6594,414.5469 Q481.8469,414.4375 482.0656,414.4375 Q482.4406,414.4375 482.675,414.7031 Q482.9094,414.9531 482.9094,415.5625 L482.9094,417.0156 Q482.9094,417.625 482.675,417.8906 Q482.4406,418.1563 482.0656,418.1563 Q481.7219,418.1563 481.5188,417.9531 Q481.3156,417.7656 481.2063,417.25 Q481.1594,416.8906 480.9719,416.7031 Q480.6438,416.3281 480.0344,416.1094 Q479.425,415.8906 478.8,415.8906 Q478.0344,415.8906 477.3938,416.2188 Q476.7688,416.5469 476.2688,417.2969 Q475.7844,418.0469 475.7844,419.0781 L475.7844,420.1719 Q475.7844,421.4063 476.675,422.2344 Q477.5656,423.0469 479.1594,423.0469 Q480.0969,423.0469 480.7531,422.7969 Q481.1438,422.6406 481.5656,422.2031 Q481.8313,421.9375 481.9719,421.8594 Q482.1281,421.7813 482.3313,421.7813 Q482.6594,421.7813 482.9094,422.0469 Q483.175,422.2969 483.175,422.6406 Q483.175,422.9844 482.8313,423.3906 Q482.3313,423.9688 481.5344,424.2969 Q480.4563,424.75 479.1594,424.75 Q477.6438,424.75 476.4406,424.125 Q475.4563,423.625 474.7688,422.5625 Q474.0813,421.4844 474.0813,420.2031 L474.0813,419.0469 Q474.0813,417.7188 474.6906,416.5781 Q475.3156,415.4219 476.4094,414.8125 Q477.5031,414.1875 478.7375,414.1875 Q479.4719,414.1875 480.1125,414.3594 Q480.7688,414.5156 481.3156,414.875 Z " fill="#000000"/><text fill="#000000" font-family="sans-serif" font-size="12" lengthAdjust="spacing" textLength="47" x="498.45" y="423.9102">UserList</text><line style="stroke:#A80036;stroke-width:1.5;" x1="438" x2="574" y1="435" y2="435"/><text fill="#000000" font-family="sans-serif" font-size="11" lengthAdjust="spacing" textLength="90" x="443" y="450.4189">user_list : UserList</text><text fill="#000000" font-family="sans-serif" font-size="11" lengthAdjust="spacing" textLength="85" x="443" y="464.2549">username : String</text><text fill="#000000" font-family="sans-serif" font-size="11" lengthAdjust="spacing" textLength="126" x="443" y="478.0908">map : Map&lt;userID, String&gt;</text><line style="stroke:#A80036;stroke-width:1.5;" x1="438" x2="574" y1="484.5078" y2="484.5078"/><!--MD5=[cbca7c54d7afdf4880cd4bf31c393a57]
class userID--><rect codeLine="54" fill="#FEFECE" filter="url(#f95c0pte6zeaj)" height="61.8359" id="userID" style="stroke:#A80036;stroke-width:1.5;" width="69" x="610.5" y="417"/><ellipse cx="625.5" cy="433" fill="#ADD1B2" rx="11" ry="11" style="stroke:#A80036;stroke-width:1.0;"/><path d="M628.2656,428.875 Q628.4219,428.6563 628.6094,428.5469 Q628.7969,428.4375 629.0156,428.4375 Q629.3906,428.4375 629.625,428.7031 Q629.8594,428.9531 629.8594,429.5625 L629.8594,431.0156 Q629.8594,431.625 629.625,431.8906 Q629.3906,432.1563 629.0156,432.1563 Q628.6719,432.1563 628.4688,431.9531 Q628.2656,431.7656 628.1563,431.25 Q628.1094,430.8906 627.9219,430.7031 Q627.5938,430.3281 626.9844,430.1094 Q626.375,429.8906 625.75,429.8906 Q624.9844,429.8906 624.3438,430.2188 Q623.7188,430.5469 623.2188,431.2969 Q622.7344,432.0469 622.7344,433.0781 L622.7344,434.1719 Q622.7344,435.4063 623.625,436.2344 Q624.5156,437.0469 626.1094,437.0469 Q627.0469,437.0469 627.7031,436.7969 Q628.0938,436.6406 628.5156,436.2031 Q628.7813,435.9375 628.9219,435.8594 Q629.0781,435.7813 629.2813,435.7813 Q629.6094,435.7813 629.8594,436.0469 Q630.125,436.2969 630.125,436.6406 Q630.125,436.9844 629.7813,437.3906 Q629.2813,437.9688 628.4844,438.2969 Q627.4063,438.75 626.1094,438.75 Q624.5938,438.75 623.3906,438.125 Q622.4063,437.625 621.7188,436.5625 Q621.0313,435.4844 621.0313,434.2031 L621.0313,433.0469 Q621.0313,431.7188 621.6406,430.5781 Q622.2656,429.4219 623.3594,428.8125 Q624.4531,428.1875 625.6875,428.1875 Q626.4219,428.1875 627.0625,428.3594 Q627.7188,428.5156 628.2656,428.875 Z " fill="#000000"/><text fill="#000000" font-family="sans-serif" font-size="12" lengthAdjust="spacing" textLength="37" x="639.5" y="437.9102">userID</text><line style="stroke:#A80036;stroke-width:1.5;" x1="611.5" x2="678.5" y1="449" y2="449"/><text fill="#000000" font-family="sans-serif" font-size="11" lengthAdjust="spacing" textLength="29" x="616.5" y="464.4189">ID : int</text><line style="stroke:#A80036;stroke-width:1.5;" x1="611.5" x2="678.5" y1="470.8359" y2="470.8359"/><!--MD5=[fb4a3ef56b90ccd3601dc17eebd18d83]
reverse link RemoteDatabaseManager to main--><path codeLine="60" d="M222.35,148.33 C262.93,176.94 312.5,211.89 352.35,239.98 " fill="none" id="RemoteDatabaseManager-backto-main" style="stroke:#A80036;stroke-width:1.0;"/><polygon fill="#A80036" points="217.95,145.23,222.9937,153.6894,222.034,148.1145,227.6089,147.1549,217.95,145.23" style="stroke:#A80036;stroke-width:1.0;"/><text fill="#000000" font-family="sans-serif" font-size="13" lengthAdjust="spacing" textLength="7" x="220.148" y="166.7519">1</text><!--MD5=[342470d84a68206c6868338f70b7f700]
reverse link DistributedDataManager to main--><path codeLine="61" d="M282.35,291.5 C292.36,291.5 302.38,291.5 312.4,291.5 " fill="none" id="DistributedDataManager-backto-main" style="stroke:#A80036;stroke-width:1.0;"/><polygon fill="#A80036" points="277.11,291.5,286.11,295.5,282.11,291.5,286.11,287.5,277.11,291.5" style="stroke:#A80036;stroke-width:1.0;"/><text fill="#000000" font-family="sans-serif" font-size="13" lengthAdjust="spacing" textLength="7" x="284.9472" y="288.5079">1</text><!--MD5=[d566c10f5fd84f0da7893084dc815b76]
reverse link UIManager to main--><path codeLine="62" d="M427.21,164.49 C426.58,189.36 425.88,216.86 425.29,239.81 " fill="none" id="UIManager-backto-main" style="stroke:#A80036;stroke-width:1.0;"/><polygon fill="#A80036" points="427.35,159.22,423.12,168.1142,427.2215,164.2183,431.1173,168.3198,427.35,159.22" style="stroke:#A80036;stroke-width:1.0;"/><text fill="#000000" font-family="sans-serif" font-size="13" lengthAdjust="spacing" textLength="7" x="419.8189" y="180.3348">1</text><!--MD5=[48f586ba602983cb5a7be69e50d98794]
reverse link ChattingSession to main--><path codeLine="63" d="M568.48,180.31 C541.8,200.66 514.19,221.71 490.35,239.9 " fill="none" id="ChattingSession-backto-main" style="stroke:#A80036;stroke-width:1.0;"/><polygon fill="#A80036" points="572.75,177.05,563.164,179.3102,568.7689,180.0751,568.0041,185.68,572.75,177.05" style="stroke:#A80036;stroke-width:1.0;"/><text fill="#000000" font-family="sans-serif" font-size="13" lengthAdjust="spacing" textLength="20" x="545.1746" y="179.4116">0..*</text><!--MD5=[8c9babbd87fba3c124342ea8c8cad23e]
reverse link UIManager to ChattingSession--><path codeLine="64" d="M543.4,93.5 C553.21,93.5 563.02,93.5 572.83,93.5 " fill="none" id="UIManager-backto-ChattingSession" style="stroke:#A80036;stroke-width:1.0;"/><polygon fill="#A80036" points="538.27,93.5,547.27,97.5,543.27,93.5,547.27,89.5,538.27,93.5" style="stroke:#A80036;stroke-width:1.0;"/><!--MD5=[b259fcf2890f91fafce0d0dcfff19b71]
link UserList to userID--><path codeLine="65" d="M575.23,448 C585.21,448 595.19,448 605.17,448 " fill="none" id="UserList-to-userID" style="stroke:#A80036;stroke-width:1.0;"/><polygon fill="#A80036" points="610.39,448,601.39,444,605.39,448,601.39,452,610.39,448" style="stroke:#A80036;stroke-width:1.0;"/><text fill="#000000" font-family="sans-serif" font-size="13" lengthAdjust="spacing" textLength="20" x="582.4438" y="444.116">0..*</text><!--MD5=[575ae5f8a95ff5e63e8c0ce37e6efb43]
link main to userID--><path codeLine="66" d="M505.76,343.08 C533.92,361.25 565.32,382.36 593,403 C597.43,406.3 601.97,409.86 606.44,413.48 " fill="none" id="main-to-userID" style="stroke:#A80036;stroke-width:1.0;"/><polygon fill="#A80036" points="610.52,416.81,606.0732,408.0222,606.6451,413.65,601.0173,414.222,610.52,416.81" style="stroke:#A80036;stroke-width:1.0;"/><!--MD5=[c00eaf3dc59855bcedd6fa91d12be3a5]
link ChattingSession to userID--><path codeLine="67" d="M729.48,180.23 C750.55,228.95 766.14,290.52 745,343 C732.67,373.62 706.53,400.28 684.07,418.94 " fill="none" id="ChattingSession-to-userID" style="stroke:#A80036;stroke-width:1.0;"/><polygon fill="#A80036" points="679.92,422.33,689.417,419.721,683.7879,419.1615,684.3474,413.5324,679.92,422.33" style="stroke:#A80036;stroke-width:1.0;"/><!--MD5=[92552366479dc42050c6f8563d855510]
link main to UserList--><path codeLine="68" d="M450.85,343.09 C460.28,360.86 470.85,380.77 480.19,398.37 " fill="none" id="main-to-UserList" style="stroke:#A80036;stroke-width:1.0;"/><polygon fill="#A80036" points="482.54,402.79,481.8539,392.9651,480.196,398.3735,474.7875,396.7155,482.54,402.79" style="stroke:#A80036;stroke-width:1.0;"/><!--MD5=[bcbfe92bd5a886e938b40b2ec469097b]
link ChattingSession to UserList--><path codeLine="69" d="M638.41,180.28 C604.46,248.67 558.14,341.98 530.24,398.17 " fill="none" id="ChattingSession-to-UserList" style="stroke:#A80036;stroke-width:1.0;"/><polygon fill="#A80036" points="527.93,402.82,535.5085,396.5299,530.1489,398.3393,528.3394,392.9797,527.93,402.82" style="stroke:#A80036;stroke-width:1.0;"/><!--MD5=[57f4c6d2b6a1e4be654f071f327efb56]
link ChattingSession to Message--><path codeLine="70" d="M682.75,180.18 C683.23,203.63 683.73,228.04 684.13,247.92 " fill="none" id="ChattingSession-to-Message" style="stroke:#A80036;stroke-width:1.0;"/><polygon fill="#A80036" points="684.24,253.13,688.0587,244.0516,684.1397,248.131,680.0603,244.212,684.24,253.13" style="stroke:#A80036;stroke-width:1.0;"/><!--MD5=[fa7045a6c40818aa15b2b1ef6a2d3648]
link main to Message--><path codeLine="71" d="M535.64,291.5 C569.56,291.5 603.48,291.5 637.4,291.5 " fill="none" id="main-to-Message" style="stroke:#A80036;stroke-width:1.0;"/><polygon fill="#A80036" points="642.41,291.5,633.41,287.5,637.41,291.5,633.41,295.5,642.41,291.5" style="stroke:#A80036;stroke-width:1.0;"/><!--MD5=[f73e28f618585ffac4e4b38dd3cef932]
@startuml class
abstract class main {
    -boolean verifyUnicity(String name)
    -void waitForConnectionRequest()
    -void receiveNotification(Notification notif)
    -void main()
}

abstract class UIManager {
    +void openUI()
    +void inputDialogBox(String Login)
    +void openChattingSession(userID User)
    +void closeChattingSession(userID User)
    +void addMessage(message Message)
    +void addHistory(message[] Messages)
}

abstract class DistributedDataManager {
    -void sendUPDBroadcast(String )
    +UserList getConnectedUserList()
    +void notifyUsers()
    +void notifyNewName(userID User,string Login)
}

abstract class  RemoteDatabaseManager{
    - database_ip_address : String 
    -void sendSQLRequest(String SQL_request)
    +message[] retrieveHistory(userID User)
    +void updateHistory(userID User, message Message)
}

class ChattingSession{
    - user_ip_address : String 
    - user_id : userID
    - username : String
    -Date getTime()
    -void sendMessage(message Message)
    -Message receiveMessage()
    -void sendFile(string Path)
    -void receiveFile()
    +void close()
}

class Message{
    time : Date
    content : String
}

class UserList{
    user_list : UserList
    username : String
    map : Map<userID, String> 
}

class userID{
    ID : int
} 



RemoteDatabaseManager "1" <- - main
DistributedDataManager "1" <- main
UIManager "1" <- main
ChattingSession "0..*" <- - main
UIManager <- ChattingSession
UserList -> "0..*" userID
main - -> userID
ChattingSession -> userID
main - -> UserList
ChattingSession -> UserList
ChattingSession -> Message
main -> Message

@enduml

PlantUML version 1.2021.14(Fri Nov 12 17:46:50 CET 2021)
(GPL source distribution)
Java Runtime: Java(TM) SE Runtime Environment
JVM: Java HotSpot(TM) 64-Bit Server VM
Default Encoding: Cp1252
Language: en
Country: US
--></g></svg>