<?xml version="1.0" encoding="UTF-8" standalone="no"?><svg xmlns="http://www.w3.org/2000/svg" xmlns:xlink="http://www.w3.org/1999/xlink" contentScriptType="application/ecmascript" contentStyleType="text/css" height="855px" preserveAspectRatio="none" style="width:991px;height:855px;background:#FFFFFF;" version="1.1" viewBox="0 0 991 855" width="991px" zoomAndPan="magnify"><defs><filter height="300%" id="f1a7gct86h2nn5" width="300%" x="-1" y="-1"><feGaussianBlur result="blurOut" stdDeviation="2.0"/><feColorMatrix in="blurOut" result="blurOut2" type="matrix" values="0 0 0 0 0 0 0 0 0 0 0 0 0 0 0 0 0 0 .4 0"/><feOffset dx="4.0" dy="4.0" in="blurOut2" result="blurOut3"/><feBlend in="SourceGraphic" in2="blurOut3" mode="normal"/></filter></defs><g><!--MD5=[a520837ef4416b7ac44f8bb1541877a6]
class JFrame--><rect codeLine="1" fill="#FEFECE" filter="url(#f1a7gct86h2nn5)" height="48" id="JFrame" style="stroke:#A80036;stroke-width:1.5;" width="73" x="779" y="346"/><ellipse cx="794" cy="362" fill="#A9DCDF" rx="11" ry="11" style="stroke:#A80036;stroke-width:1.0;"/><path d="M796.3594,366.25 L795.625,363.7813 L792.8594,363.7813 L792.1094,366.25 L790.2031,366.25 L793.7969,355.5938 L794.7031,355.5938 L798.2969,366.25 L796.3594,366.25 Z M794.25,359.1406 L793.2656,362.4063 L795.2188,362.4063 L794.25,359.1406 Z " fill="#000000"/><text fill="#000000" font-family="sans-serif" font-size="12" font-style="italic" lengthAdjust="spacing" textLength="41" x="808" y="367.1">JFrame</text><line style="stroke:#A80036;stroke-width:1.5;" x1="780" x2="851" y1="378" y2="378"/><line style="stroke:#A80036;stroke-width:1.5;" x1="780" x2="851" y1="386" y2="386"/><!--MD5=[bd6540b157a5c9c71b9ce9408359f326]
class ChangeNameWindow--><rect codeLine="3" fill="#FEFECE" filter="url(#f1a7gct86h2nn5)" height="74.3998" id="ChangeNameWindow" style="stroke:#A80036;stroke-width:1.5;" width="178" x="726.5" y="553.5"/><ellipse cx="752.75" cy="569.5" fill="#ADD1B2" rx="11" ry="11" style="stroke:#A80036;stroke-width:1.0;"/><path d="M752.5,574.6875 Q751.3438,574.6875 750.375,574.125 Q749.4219,573.5469 748.8438,572.3438 Q748.2813,571.1406 748.2813,569.2656 Q748.2813,567.7031 748.6563,566.6406 Q749.0469,565.5781 749.6719,564.9531 Q750.2969,564.3125 751.0469,564.0313 Q751.8125,563.75 752.5625,563.75 Q753.75,563.75 754.6094,564.2969 Q755.4688,564.8438 755.9063,565.8281 L754.7031,566.7344 L754.5625,566.8125 L754.4844,566.6875 Q754.5,566.5625 754.4531,566.4375 Q754.4063,566.3125 754.2813,566.0625 Q753.9063,565.625 753.5,565.4688 Q753.1094,565.2969 752.6563,565.2969 Q752.0156,565.2969 751.4375,565.75 Q750.875,566.1875 750.5313,567.0469 Q750.1875,567.9063 750.1875,569.1719 Q750.1875,571.0156 750.8594,572.0625 Q751.5313,573.1094 752.5469,573.1094 Q753.1719,573.1094 753.625,572.8438 Q754.0938,572.5625 754.4688,571.9375 L755.7969,572.9219 Q755.2031,573.8906 754.3906,574.2969 Q753.5781,574.6875 752.5,574.6875 Z " fill="#000000"/><text fill="#000000" font-family="sans-serif" font-size="12" lengthAdjust="spacing" textLength="121" x="769.25" y="573.448">ChangeNameWindow</text><line style="stroke:#A80036;stroke-width:1.5;" x1="727.5" x2="903.5" y1="585.5" y2="585.5"/><ellipse cx="737.5" cy="596.5" rx="3" ry="3" style="stroke:#038048;stroke-width:1.0;fill:none;"/><text fill="#000000" font-family="sans-serif" font-size="11" lengthAdjust="spacing" textLength="152" x="746.5" y="599.7189">textFieldUsername : JTextField</text><ellipse cx="737.5" cy="609.6999" rx="3" ry="3" style="stroke:#038048;stroke-width:1.0;fill:none;"/><text fill="#000000" font-family="sans-serif" font-size="11" lengthAdjust="spacing" textLength="115" x="746.5" y="612.9188">ButtonChange : JButton</text><line style="stroke:#A80036;stroke-width:1.5;" x1="727.5" x2="903.5" y1="619.8998" y2="619.8998"/><!--MD5=[2d8c4289bb624967d854a5ab22864125]
class ChatWindow--><rect codeLine="7" fill="#FEFECE" filter="url(#f1a7gct86h2nn5)" height="140.3993" id="ChatWindow" style="stroke:#A80036;stroke-width:1.5;" width="180" x="563.5" y="300"/><ellipse cx="614.25" cy="316" fill="#ADD1B2" rx="11" ry="11" style="stroke:#A80036;stroke-width:1.0;"/><path d="M614,321.1875 Q612.8438,321.1875 611.875,320.625 Q610.9219,320.0469 610.3438,318.8438 Q609.7813,317.6406 609.7813,315.7656 Q609.7813,314.2031 610.1563,313.1406 Q610.5469,312.0781 611.1719,311.4531 Q611.7969,310.8125 612.5469,310.5313 Q613.3125,310.25 614.0625,310.25 Q615.25,310.25 616.1094,310.7969 Q616.9688,311.3438 617.4063,312.3281 L616.2031,313.2344 L616.0625,313.3125 L615.9844,313.1875 Q616,313.0625 615.9531,312.9375 Q615.9063,312.8125 615.7813,312.5625 Q615.4063,312.125 615,311.9688 Q614.6094,311.7969 614.1563,311.7969 Q613.5156,311.7969 612.9375,312.25 Q612.375,312.6875 612.0313,313.5469 Q611.6875,314.4063 611.6875,315.6719 Q611.6875,317.5156 612.3594,318.5625 Q613.0313,319.6094 614.0469,319.6094 Q614.6719,319.6094 615.125,319.3438 Q615.5938,319.0625 615.9688,318.4375 L617.2969,319.4219 Q616.7031,320.3906 615.8906,320.7969 Q615.0781,321.1875 614,321.1875 Z " fill="#000000"/><text fill="#000000" font-family="sans-serif" font-size="12" lengthAdjust="spacing" textLength="70" x="634.75" y="319.948">ChatWindow</text><line style="stroke:#A80036;stroke-width:1.5;" x1="564.5" x2="742.5" y1="332" y2="332"/><ellipse cx="574.5" cy="343" rx="3" ry="3" style="stroke:#038048;stroke-width:1.0;fill:none;"/><text fill="#000000" font-family="sans-serif" font-size="11" lengthAdjust="spacing" textLength="154" x="583.5" y="346.2189">remoteUserList : JList&lt;UserID&gt;</text><ellipse cx="574.5" cy="356.1999" rx="3" ry="3" style="stroke:#038048;stroke-width:1.0;fill:none;"/><text fill="#000000" font-family="sans-serif" font-size="11" lengthAdjust="spacing" textLength="144" x="583.5" y="359.4188">ButtonChangeName : JButton</text><ellipse cx="574.5" cy="369.3998" rx="3" ry="3" style="stroke:#038048;stroke-width:1.0;fill:none;"/><text fill="#000000" font-family="sans-serif" font-size="11" lengthAdjust="spacing" textLength="102" x="583.5" y="372.6187">ButtonSend : JButton</text><ellipse cx="574.5" cy="382.5997" rx="3" ry="3" style="stroke:#038048;stroke-width:1.0;fill:none;"/><text fill="#000000" font-family="sans-serif" font-size="11" lengthAdjust="spacing" textLength="119" x="583.5" y="385.8186">ButtonSendFile : JButton</text><ellipse cx="574.5" cy="395.7996" rx="3" ry="3" style="stroke:#038048;stroke-width:1.0;fill:none;"/><text fill="#000000" font-family="sans-serif" font-size="11" lengthAdjust="spacing" textLength="95" x="583.5" y="399.0185">ButtonExit : JButton</text><ellipse cx="574.5" cy="408.9995" rx="3" ry="3" style="stroke:#038048;stroke-width:1.0;fill:none;"/><text fill="#000000" font-family="sans-serif" font-size="11" lengthAdjust="spacing" textLength="144" x="583.5" y="412.2184">message_history : JTextArea</text><ellipse cx="574.5" cy="422.1994" rx="3" ry="3" style="stroke:#038048;stroke-width:1.0;fill:none;"/><text fill="#000000" font-family="sans-serif" font-size="11" lengthAdjust="spacing" textLength="105" x="583.5" y="425.4183">message : JTextArea</text><line style="stroke:#A80036;stroke-width:1.5;" x1="564.5" x2="742.5" y1="432.3993" y2="432.3993"/><!--MD5=[3064bca9b04637f65fbf0ccfc5c70c47]
class ConnectWindow--><rect codeLine="16" fill="#FEFECE" filter="url(#f1a7gct86h2nn5)" height="193.1989" id="ConnectWindow" style="stroke:#A80036;stroke-width:1.5;" width="238" x="441.5" y="7"/><ellipse cx="511.25" cy="23" fill="#ADD1B2" rx="11" ry="11" style="stroke:#A80036;stroke-width:1.0;"/><path d="M511,28.1875 Q509.8438,28.1875 508.875,27.625 Q507.9219,27.0469 507.3438,25.8438 Q506.7813,24.6406 506.7813,22.7656 Q506.7813,21.2031 507.1563,20.1406 Q507.5469,19.0781 508.1719,18.4531 Q508.7969,17.8125 509.5469,17.5313 Q510.3125,17.25 511.0625,17.25 Q512.25,17.25 513.1094,17.7969 Q513.9688,18.3438 514.4063,19.3281 L513.2031,20.2344 L513.0625,20.3125 L512.9844,20.1875 Q513,20.0625 512.9531,19.9375 Q512.9063,19.8125 512.7813,19.5625 Q512.4063,19.125 512,18.9688 Q511.6094,18.7969 511.1563,18.7969 Q510.5156,18.7969 509.9375,19.25 Q509.375,19.6875 509.0313,20.5469 Q508.6875,21.4063 508.6875,22.6719 Q508.6875,24.5156 509.3594,25.5625 Q510.0313,26.6094 511.0469,26.6094 Q511.6719,26.6094 512.125,26.3438 Q512.5938,26.0625 512.9688,25.4375 L514.2969,26.4219 Q513.7031,27.3906 512.8906,27.7969 Q512.0781,28.1875 511,28.1875 Z " fill="#000000"/><text fill="#000000" font-family="sans-serif" font-size="12" lengthAdjust="spacing" textLength="90" x="531.75" y="26.948">ConnectWindow</text><line style="stroke:#A80036;stroke-width:1.5;" x1="442.5" x2="678.5" y1="39" y2="39"/><ellipse cx="452.5" cy="50" rx="3" ry="3" style="stroke:#038048;stroke-width:1.0;fill:none;"/><text fill="#000000" font-family="sans-serif" font-size="11" lengthAdjust="spacing" textLength="152" x="461.5" y="53.2189">textFieldUsername : JTextField</text><ellipse cx="452.5" cy="63.1999" rx="3" ry="3" style="stroke:#038048;stroke-width:1.0;fill:none;"/><text fill="#000000" font-family="sans-serif" font-size="11" lengthAdjust="spacing" textLength="123" x="461.5" y="66.4188">textFieldURL : JTextField</text><ellipse cx="452.5" cy="76.3998" rx="3" ry="3" style="stroke:#038048;stroke-width:1.0;fill:none;"/><text fill="#000000" font-family="sans-serif" font-size="11" lengthAdjust="spacing" textLength="148" x="461.5" y="79.6187">textFieldDatabase : JTextField</text><ellipse cx="452.5" cy="89.5997" rx="3" ry="3" style="stroke:#038048;stroke-width:1.0;fill:none;"/><text fill="#000000" font-family="sans-serif" font-size="11" lengthAdjust="spacing" textLength="165" x="461.5" y="92.8186">textFieldPasswordDB : JTextField</text><ellipse cx="452.5" cy="102.7996" rx="3" ry="3" style="stroke:#038048;stroke-width:1.0;fill:none;"/><text fill="#000000" font-family="sans-serif" font-size="11" lengthAdjust="spacing" textLength="112" x="461.5" y="106.0185">textFieldID : JTextField</text><ellipse cx="452.5" cy="115.9995" rx="3" ry="3" style="stroke:#038048;stroke-width:1.0;fill:none;"/><text fill="#000000" font-family="sans-serif" font-size="11" lengthAdjust="spacing" textLength="150" x="461.5" y="119.2184">textFieldPassword : JTextField</text><ellipse cx="452.5" cy="129.1994" rx="3" ry="3" style="stroke:#038048;stroke-width:1.0;fill:none;"/><text fill="#000000" font-family="sans-serif" font-size="11" lengthAdjust="spacing" textLength="212" x="461.5" y="132.4183">chckbxUseCentralizedHistory : JCheckBox</text><ellipse cx="452.5" cy="142.3993" rx="3" ry="3" style="stroke:#038048;stroke-width:1.0;fill:none;"/><text fill="#000000" font-family="sans-serif" font-size="11" lengthAdjust="spacing" textLength="129" x="461.5" y="145.6182">rdbtnSignIn : JRadioButton</text><ellipse cx="452.5" cy="155.5992" rx="3" ry="3" style="stroke:#038048;stroke-width:1.0;fill:none;"/><text fill="#000000" font-family="sans-serif" font-size="11" lengthAdjust="spacing" textLength="134" x="461.5" y="158.8181">rdbtnSignUp : JRadioButton</text><ellipse cx="452.5" cy="168.7991" rx="3" ry="3" style="stroke:#038048;stroke-width:1.0;fill:none;"/><text fill="#000000" font-family="sans-serif" font-size="11" lengthAdjust="spacing" textLength="95" x="461.5" y="172.018">ButtonExit : JButton</text><ellipse cx="452.5" cy="181.999" rx="3" ry="3" style="stroke:#038048;stroke-width:1.0;fill:none;"/><text fill="#000000" font-family="sans-serif" font-size="11" lengthAdjust="spacing" textLength="118" x="461.5" y="185.2179">ButtonConnect : JButton</text><line style="stroke:#A80036;stroke-width:1.5;" x1="442.5" x2="678.5" y1="192.1989" y2="192.1989"/><!--MD5=[f3775d03354a5eb827d1f9f15c1e02ae]
class DDC_deamon--><rect codeLine="31" fill="#FEFECE" filter="url(#f1a7gct86h2nn5)" height="61.1999" id="DDC_deamon" style="stroke:#A80036;stroke-width:1.5;" width="111" x="72" y="560"/><ellipse cx="87" cy="576" fill="#ADD1B2" rx="11" ry="11" style="stroke:#A80036;stroke-width:1.0;"/><path d="M86.75,581.1875 Q85.5938,581.1875 84.625,580.625 Q83.6719,580.0469 83.0938,578.8438 Q82.5313,577.6406 82.5313,575.7656 Q82.5313,574.2031 82.9063,573.1406 Q83.2969,572.0781 83.9219,571.4531 Q84.5469,570.8125 85.2969,570.5313 Q86.0625,570.25 86.8125,570.25 Q88,570.25 88.8594,570.7969 Q89.7188,571.3438 90.1563,572.3281 L88.9531,573.2344 L88.8125,573.3125 L88.7344,573.1875 Q88.75,573.0625 88.7031,572.9375 Q88.6563,572.8125 88.5313,572.5625 Q88.1563,572.125 87.75,571.9688 Q87.3594,571.7969 86.9063,571.7969 Q86.2656,571.7969 85.6875,572.25 Q85.125,572.6875 84.7813,573.5469 Q84.4375,574.4063 84.4375,575.6719 Q84.4375,577.5156 85.1094,578.5625 Q85.7813,579.6094 86.7969,579.6094 Q87.4219,579.6094 87.875,579.3438 Q88.3438,579.0625 88.7188,578.4375 L90.0469,579.4219 Q89.4531,580.3906 88.6406,580.7969 Q87.8281,581.1875 86.75,581.1875 Z " fill="#000000"/><text fill="#000000" font-family="sans-serif" font-size="12" lengthAdjust="spacing" textLength="79" x="101" y="579.948">DDC_deamon</text><line style="stroke:#A80036;stroke-width:1.5;" x1="73" x2="182" y1="592" y2="592"/><line style="stroke:#A80036;stroke-width:1.5;" x1="73" x2="182" y1="600" y2="600"/><ellipse cx="83" cy="611" fill="#84BE84" rx="3" ry="3" style="stroke:#038048;stroke-width:1.0;"/><text fill="#000000" font-family="sans-serif" font-size="11" lengthAdjust="spacing" textLength="47" x="92" y="614.2189">void run()</text><!--MD5=[7c67454ec8f7c371089faa9a0849bd98]
class DistributedDataController--><rect codeLine="35" fill="#FEFECE" filter="url(#f1a7gct86h2nn5)" height="140.3993" id="DistributedDataController" style="stroke:#A80036;stroke-width:1.5;" width="255" x="7" y="701"/><ellipse cx="60.75" cy="717" fill="#A9DCDF" rx="11" ry="11" style="stroke:#A80036;stroke-width:1.0;"/><path d="M63.1094,721.25 L62.375,718.7813 L59.6094,718.7813 L58.8594,721.25 L56.9531,721.25 L60.5469,710.5938 L61.4531,710.5938 L65.0469,721.25 L63.1094,721.25 Z M61,714.1406 L60.0156,717.4063 L61.9688,717.4063 L61,714.1406 Z " fill="#000000"/><text fill="#000000" font-family="sans-serif" font-size="12" font-style="italic" lengthAdjust="spacing" textLength="139" x="81.25" y="722.1">DistributedDataController</text><line style="stroke:#A80036;stroke-width:1.5;" x1="8" x2="261" y1="733" y2="733"/><rect fill="none" height="6" style="stroke:#C82930;stroke-width:1.0;" width="6" x="15" y="741"/><text fill="#000000" font-family="sans-serif" font-size="11" lengthAdjust="spacing" textLength="141" x="27" y="747.2189">ddc_deamon : DDC_deamon</text><rect fill="none" height="6" style="stroke:#C82930;stroke-width:1.0;" width="6" x="15" y="754.1999"/><text fill="#000000" font-family="sans-serif" font-size="11" lengthAdjust="spacing" textLength="141" x="27" y="760.4188">user_list : ArrayList&lt;UserID&gt;</text><line style="stroke:#A80036;stroke-width:1.5;" x1="8" x2="261" y1="767.3998" y2="767.3998"/><rect fill="#F24D5C" height="6" style="stroke:#C82930;stroke-width:1.0;" width="6" x="15" y="775.3998"/><text fill="#000000" font-family="sans-serif" font-size="11" lengthAdjust="spacing" textLength="159" x="27" y="781.6187">void sendUPDBroadcast(String )</text><ellipse cx="18" cy="791.5997" fill="#84BE84" rx="3" ry="3" style="stroke:#038048;stroke-width:1.0;"/><text fill="#000000" font-family="sans-serif" font-size="11" lengthAdjust="spacing" textLength="98" x="27" y="794.8186">void start_deamon()</text><ellipse cx="18" cy="804.7996" fill="#84BE84" rx="3" ry="3" style="stroke:#038048;stroke-width:1.0;"/><text fill="#000000" font-family="sans-serif" font-size="11" lengthAdjust="spacing" textLength="161" x="27" y="808.0185">UserList getConnectedUserList()</text><ellipse cx="18" cy="817.9995" fill="#84BE84" rx="3" ry="3" style="stroke:#038048;stroke-width:1.0;"/><text fill="#000000" font-family="sans-serif" font-size="11" lengthAdjust="spacing" textLength="87" x="27" y="821.2184">void notifyUsers()</text><ellipse cx="18" cy="831.1994" fill="#84BE84" rx="3" ry="3" style="stroke:#038048;stroke-width:1.0;"/><text fill="#000000" font-family="sans-serif" font-size="11" lengthAdjust="spacing" textLength="229" x="27" y="834.4183">void notifyNewName(UserID User,string Login)</text><!--MD5=[f128c86b0232d0b3b936fedb520ccca7]
class RemoteDatabaseController--><rect codeLine="45" fill="#FEFECE" filter="url(#f1a7gct86h2nn5)" height="100.7996" id="RemoteDatabaseController" style="stroke:#A80036;stroke-width:1.5;" width="286" x="324.5" y="540"/><ellipse cx="388.25" cy="556" fill="#A9DCDF" rx="11" ry="11" style="stroke:#A80036;stroke-width:1.0;"/><path d="M390.6094,560.25 L389.875,557.7813 L387.1094,557.7813 L386.3594,560.25 L384.4531,560.25 L388.0469,549.5938 L388.9531,549.5938 L392.5469,560.25 L390.6094,560.25 Z M388.5,553.1406 L387.5156,556.4063 L389.4688,556.4063 L388.5,553.1406 Z " fill="#000000"/><text fill="#000000" font-family="sans-serif" font-size="12" font-style="italic" lengthAdjust="spacing" textLength="150" x="408.75" y="561.1">RemoteDatabaseController</text><line style="stroke:#A80036;stroke-width:1.5;" x1="325.5" x2="609.5" y1="572" y2="572"/><rect fill="none" height="6" style="stroke:#C82930;stroke-width:1.0;" width="6" x="332.5" y="580"/><text fill="#000000" font-family="sans-serif" font-size="11" lengthAdjust="spacing" textLength="142" x="344.5" y="586.2189">database_ip_address : String</text><line style="stroke:#A80036;stroke-width:1.5;" x1="325.5" x2="609.5" y1="593.1999" y2="593.1999"/><rect fill="#F24D5C" height="6" style="stroke:#C82930;stroke-width:1.0;" width="6" x="332.5" y="601.1999"/><text fill="#000000" font-family="sans-serif" font-size="11" lengthAdjust="spacing" textLength="214" x="344.5" y="607.4188">void sendSQLRequest(String SQL_request)</text><ellipse cx="335.5" cy="617.3998" fill="#84BE84" rx="3" ry="3" style="stroke:#038048;stroke-width:1.0;"/><text fill="#000000" font-family="sans-serif" font-size="11" lengthAdjust="spacing" textLength="196" x="344.5" y="620.6187">message[] retrieveHistory(UserID User)</text><ellipse cx="335.5" cy="630.5997" fill="#84BE84" rx="3" ry="3" style="stroke:#038048;stroke-width:1.0;"/><text fill="#000000" font-family="sans-serif" font-size="11" lengthAdjust="spacing" textLength="260" x="344.5" y="633.8186">void updateHistory(UserID User, message Message)</text><!--MD5=[3683e84af7c729b6f15de9cf96a3133d]
class CSC_deamon--><rect codeLine="53" fill="#FEFECE" filter="url(#f1a7gct86h2nn5)" height="61.1999" id="CSC_deamon" style="stroke:#A80036;stroke-width:1.5;" width="110" x="116.5" y="339.5"/><ellipse cx="131.5" cy="355.5" fill="#ADD1B2" rx="11" ry="11" style="stroke:#A80036;stroke-width:1.0;"/><path d="M131.25,360.6875 Q130.0938,360.6875 129.125,360.125 Q128.1719,359.5469 127.5938,358.3438 Q127.0313,357.1406 127.0313,355.2656 Q127.0313,353.7031 127.4063,352.6406 Q127.7969,351.5781 128.4219,350.9531 Q129.0469,350.3125 129.7969,350.0313 Q130.5625,349.75 131.3125,349.75 Q132.5,349.75 133.3594,350.2969 Q134.2188,350.8438 134.6563,351.8281 L133.4531,352.7344 L133.3125,352.8125 L133.2344,352.6875 Q133.25,352.5625 133.2031,352.4375 Q133.1563,352.3125 133.0313,352.0625 Q132.6563,351.625 132.25,351.4688 Q131.8594,351.2969 131.4063,351.2969 Q130.7656,351.2969 130.1875,351.75 Q129.625,352.1875 129.2813,353.0469 Q128.9375,353.9063 128.9375,355.1719 Q128.9375,357.0156 129.6094,358.0625 Q130.2813,359.1094 131.2969,359.1094 Q131.9219,359.1094 132.375,358.8438 Q132.8438,358.5625 133.2188,357.9375 L134.5469,358.9219 Q133.9531,359.8906 133.1406,360.2969 Q132.3281,360.6875 131.25,360.6875 Z " fill="#000000"/><text fill="#000000" font-family="sans-serif" font-size="12" lengthAdjust="spacing" textLength="78" x="145.5" y="359.448">CSC_deamon</text><line style="stroke:#A80036;stroke-width:1.5;" x1="117.5" x2="225.5" y1="371.5" y2="371.5"/><line style="stroke:#A80036;stroke-width:1.5;" x1="117.5" x2="225.5" y1="379.5" y2="379.5"/><ellipse cx="127.5" cy="390.5" fill="#84BE84" rx="3" ry="3" style="stroke:#038048;stroke-width:1.0;"/><text fill="#000000" font-family="sans-serif" font-size="11" lengthAdjust="spacing" textLength="47" x="136.5" y="393.7189">void run()</text><!--MD5=[410a85792e878c4a58d0df776009769b]
class ChattingSession--><rect codeLine="87" fill="#FEFECE" filter="url(#f1a7gct86h2nn5)" height="219.5987" id="ChattingSession" style="stroke:#A80036;stroke-width:1.5;" width="148" x="261.5" y="260"/><ellipse cx="288.2" cy="276" fill="#ADD1B2" rx="11" ry="11" style="stroke:#A80036;stroke-width:1.0;"/><path d="M287.95,281.1875 Q286.7938,281.1875 285.825,280.625 Q284.8719,280.0469 284.2938,278.8438 Q283.7313,277.6406 283.7313,275.7656 Q283.7313,274.2031 284.1063,273.1406 Q284.4969,272.0781 285.1219,271.4531 Q285.7469,270.8125 286.4969,270.5313 Q287.2625,270.25 288.0125,270.25 Q289.2,270.25 290.0594,270.7969 Q290.9188,271.3438 291.3563,272.3281 L290.1531,273.2344 L290.0125,273.3125 L289.9344,273.1875 Q289.95,273.0625 289.9031,272.9375 Q289.8563,272.8125 289.7313,272.5625 Q289.3563,272.125 288.95,271.9688 Q288.5594,271.7969 288.1063,271.7969 Q287.4656,271.7969 286.8875,272.25 Q286.325,272.6875 285.9813,273.5469 Q285.6375,274.4063 285.6375,275.6719 Q285.6375,277.5156 286.3094,278.5625 Q286.9813,279.6094 287.9969,279.6094 Q288.6219,279.6094 289.075,279.3438 Q289.5438,279.0625 289.9188,278.4375 L291.2469,279.4219 Q290.6531,280.3906 289.8406,280.7969 Q289.0281,281.1875 287.95,281.1875 Z " fill="#000000"/><text fill="#000000" font-family="sans-serif" font-size="12" lengthAdjust="spacing" textLength="90" x="304.8" y="279.948">ChattingSession</text><line style="stroke:#A80036;stroke-width:1.5;" x1="262.5" x2="408.5" y1="292" y2="292"/><rect fill="none" height="6" style="stroke:#C82930;stroke-width:1.0;" width="6" x="269.5" y="300"/><text fill="#000000" font-family="sans-serif" font-size="11" lengthAdjust="spacing" textLength="100" x="281.5" y="306.2189">conversation : String</text><rect fill="none" height="6" style="stroke:#C82930;stroke-width:1.0;" width="6" x="269.5" y="313.1999"/><text fill="#000000" font-family="sans-serif" font-size="11" lengthAdjust="spacing" textLength="97" x="281.5" y="319.4188">other_user : UserID</text><rect fill="none" height="6" style="stroke:#C82930;stroke-width:1.0;" width="6" x="269.5" y="326.3998"/><text fill="#000000" font-family="sans-serif" font-size="11" lengthAdjust="spacing" textLength="76" x="281.5" y="332.6187">socket : Socket</text><rect fill="none" height="6" style="stroke:#C82930;stroke-width:1.0;" width="6" x="269.5" y="339.5997"/><text fill="#000000" font-family="sans-serif" font-size="11" lengthAdjust="spacing" textLength="90" x="281.5" y="345.8186">output : PrintWriter</text><rect fill="none" height="6" style="stroke:#C82930;stroke-width:1.0;" width="6" x="269.5" y="352.7996"/><text fill="#000000" font-family="sans-serif" font-size="11" lengthAdjust="spacing" textLength="109" x="281.5" y="359.0185">input : BufferedReader</text><rect fill="none" height="6" style="stroke:#C82930;stroke-width:1.0;" width="6" x="269.5" y="365.9995"/><text fill="#000000" font-family="sans-serif" font-size="11" lengthAdjust="spacing" textLength="97" x="281.5" y="372.2184">other_user : UserID</text><rect fill="none" height="6" style="stroke:#C82930;stroke-width:1.0;" width="6" x="269.5" y="379.1994"/><text fill="#000000" font-family="sans-serif" font-size="11" lengthAdjust="spacing" textLength="76" x="281.5" y="385.4183">socket : Socket</text><line style="stroke:#A80036;stroke-width:1.5;" x1="262.5" x2="408.5" y1="392.3993" y2="392.3993"/><ellipse cx="272.5" cy="403.3993" fill="#84BE84" rx="3" ry="3" style="stroke:#038048;stroke-width:1.0;"/><text fill="#000000" font-family="sans-serif" font-size="11" lengthAdjust="spacing" textLength="95" x="281.5" y="406.6182">void send(String M)</text><ellipse cx="272.5" cy="416.5992" fill="#84BE84" rx="3" ry="3" style="stroke:#038048;stroke-width:1.0;"/><text fill="#000000" font-family="sans-serif" font-size="11" lengthAdjust="spacing" textLength="47" x="281.5" y="419.8181">void run()</text><ellipse cx="272.5" cy="429.7991" fill="#84BE84" rx="3" ry="3" style="stroke:#038048;stroke-width:1.0;"/><text fill="#000000" font-family="sans-serif" font-size="11" lengthAdjust="spacing" textLength="119" x="281.5" y="433.018">String getConversation()</text><ellipse cx="272.5" cy="442.999" fill="#84BE84" rx="3" ry="3" style="stroke:#038048;stroke-width:1.0;"/><text fill="#000000" font-family="sans-serif" font-size="11" lengthAdjust="spacing" textLength="72" x="281.5" y="446.2179">UserID getID()</text><ellipse cx="272.5" cy="456.1989" fill="#84BE84" rx="3" ry="3" style="stroke:#038048;stroke-width:1.0;"/><text fill="#000000" font-family="sans-serif" font-size="11" lengthAdjust="spacing" textLength="122" x="281.5" y="459.4178">void send(String content)</text><ellipse cx="272.5" cy="469.3988" fill="#84BE84" rx="3" ry="3" style="stroke:#038048;stroke-width:1.0;"/><text fill="#000000" font-family="sans-serif" font-size="11" lengthAdjust="spacing" textLength="47" x="281.5" y="472.6177">void run()</text><!--MD5=[3fd236a06c913dad0d8eaf940e2ad225]
class ChattingSessionController--><rect codeLine="70" fill="#FEFECE" filter="url(#f1a7gct86h2nn5)" height="140.3993" id="ChattingSessionController" style="stroke:#A80036;stroke-width:1.5;" width="264" x="128.5" y="33.5"/><ellipse cx="184.25" cy="49.5" fill="#A9DCDF" rx="11" ry="11" style="stroke:#A80036;stroke-width:1.0;"/><path d="M186.6094,53.75 L185.875,51.2813 L183.1094,51.2813 L182.3594,53.75 L180.4531,53.75 L184.0469,43.0938 L184.9531,43.0938 L188.5469,53.75 L186.6094,53.75 Z M184.5,46.6406 L183.5156,49.9063 L185.4688,49.9063 L184.5,46.6406 Z " fill="#000000"/><text fill="#000000" font-family="sans-serif" font-size="12" font-style="italic" lengthAdjust="spacing" textLength="144" x="204.75" y="54.6">ChattingSessionController</text><line style="stroke:#A80036;stroke-width:1.5;" x1="129.5" x2="391.5" y1="65.5" y2="65.5"/><rect fill="none" height="6" style="stroke:#C82930;stroke-width:1.0;" width="6" x="136.5" y="73.5"/><text fill="#000000" font-family="sans-serif" font-size="11" lengthAdjust="spacing" textLength="140" x="148.5" y="79.7189">csc_deamon : CSC_deamon</text><rect fill="none" height="6" style="stroke:#C82930;stroke-width:1.0;" width="6" x="136.5" y="86.6999"/><text fill="#000000" font-family="sans-serif" font-size="11" lengthAdjust="spacing" textLength="184" x="148.5" y="92.9188">chat_list : ArrayList&lt;ChattingSession&gt;</text><line style="stroke:#A80036;stroke-width:1.5;" x1="129.5" x2="391.5" y1="99.8998" y2="99.8998"/><ellipse cx="139.5" cy="110.8998" fill="#84BE84" rx="3" ry="3" style="stroke:#038048;stroke-width:1.0;"/><text fill="#000000" font-family="sans-serif" font-size="11" lengthAdjust="spacing" textLength="98" x="148.5" y="114.1187">void start_deamon()</text><ellipse cx="139.5" cy="124.0997" fill="#84BE84" rx="3" ry="3" style="stroke:#038048;stroke-width:1.0;"/><text fill="#000000" font-family="sans-serif" font-size="11" lengthAdjust="spacing" textLength="139" x="148.5" y="127.3186">result newChat(String name)</text><ellipse cx="139.5" cy="137.2996" fill="#84BE84" rx="3" ry="3" style="stroke:#038048;stroke-width:1.0;"/><text fill="#000000" font-family="sans-serif" font-size="11" lengthAdjust="spacing" textLength="145" x="148.5" y="140.5185">result closeChat(String name)</text><ellipse cx="139.5" cy="150.4995" fill="#84BE84" rx="3" ry="3" style="stroke:#038048;stroke-width:1.0;"/><text fill="#000000" font-family="sans-serif" font-size="11" lengthAdjust="spacing" textLength="201" x="148.5" y="153.7184">ArrayList&lt;ChattingSession&gt; getChatList()</text><ellipse cx="139.5" cy="163.6994" fill="#84BE84" rx="3" ry="3" style="stroke:#038048;stroke-width:1.0;"/><text fill="#000000" font-family="sans-serif" font-size="11" lengthAdjust="spacing" textLength="238" x="148.5" y="166.9183">result sendMessage(String content, String name)</text><!--MD5=[0278646e5a3f51edb25d463fe8c5bfab]
class MainController--><rect codeLine="80" fill="#FEFECE" filter="url(#f1a7gct86h2nn5)" height="127.1994" id="MainController" style="stroke:#A80036;stroke-width:1.5;" width="324" x="301.5" y="707.5"/><ellipse cx="418.75" cy="723.5" fill="#A9DCDF" rx="11" ry="11" style="stroke:#A80036;stroke-width:1.0;"/><path d="M421.1094,727.75 L420.375,725.2813 L417.6094,725.2813 L416.8594,727.75 L414.9531,727.75 L418.5469,717.0938 L419.4531,717.0938 L423.0469,727.75 L421.1094,727.75 Z M419,720.6406 L418.0156,723.9063 L419.9688,723.9063 L419,720.6406 Z " fill="#000000"/><text fill="#000000" font-family="sans-serif" font-size="12" font-style="italic" lengthAdjust="spacing" textLength="81" x="439.25" y="728.6">MainController</text><line style="stroke:#A80036;stroke-width:1.5;" x1="302.5" x2="624.5" y1="739.5" y2="739.5"/><ellipse cx="312.5" cy="750.5" rx="3" ry="3" style="stroke:#038048;stroke-width:1.0;fill:none;"/><text fill="#000000" font-family="sans-serif" font-size="11" lengthAdjust="spacing" textLength="86" x="321.5" y="753.7189">username : String</text><ellipse cx="312.5" cy="763.6999" rx="3" ry="3" style="stroke:#038048;stroke-width:1.0;fill:none;"/><text fill="#000000" font-family="sans-serif" font-size="11" lengthAdjust="spacing" textLength="83" x="321.5" y="766.9188">unique_id : String</text><line style="stroke:#A80036;stroke-width:1.5;" x1="302.5" x2="624.5" y1="773.8998" y2="773.8998"/><ellipse cx="312.5" cy="784.8998" fill="#84BE84" rx="3" ry="3" style="stroke:#038048;stroke-width:1.0;"/><text fill="#000000" font-family="sans-serif" font-size="11" lengthAdjust="spacing" textLength="290" x="321.5" y="788.1187">result useDatabaseSignUp(String db_URL, String db_name,</text><text fill="#000000" font-family="sans-serif" font-size="11" lengthAdjust="spacing" textLength="253" x="321.5" y="801.3186">String db_password, String Name, String Password)</text><ellipse cx="312.5" cy="811.2996" fill="#84BE84" rx="3" ry="3" style="stroke:#038048;stroke-width:1.0;"/><text fill="#000000" font-family="sans-serif" font-size="11" lengthAdjust="spacing" textLength="285" x="321.5" y="814.5185">result useDatabaseSignIn(String db_URL, String db_name,</text><text fill="#000000" font-family="sans-serif" font-size="11" lengthAdjust="spacing" textLength="298" x="321.5" y="827.7184">String db_password, String Name, String id, String Password)</text><!--MD5=[bea5b0d46523efab5ea1c1d339f396f0]
class Message--><rect codeLine="94" fill="#FEFECE" filter="url(#f1a7gct86h2nn5)" height="87.5997" id="Message" style="stroke:#A80036;stroke-width:1.5;" width="96" x="714.5" y="59.5"/><ellipse cx="735.8" cy="75.5" fill="#ADD1B2" rx="11" ry="11" style="stroke:#A80036;stroke-width:1.0;"/><path d="M735.55,80.6875 Q734.3938,80.6875 733.425,80.125 Q732.4719,79.5469 731.8938,78.3438 Q731.3313,77.1406 731.3313,75.2656 Q731.3313,73.7031 731.7063,72.6406 Q732.0969,71.5781 732.7219,70.9531 Q733.3469,70.3125 734.0969,70.0313 Q734.8625,69.75 735.6125,69.75 Q736.8,69.75 737.6594,70.2969 Q738.5188,70.8438 738.9563,71.8281 L737.7531,72.7344 L737.6125,72.8125 L737.5344,72.6875 Q737.55,72.5625 737.5031,72.4375 Q737.4563,72.3125 737.3313,72.0625 Q736.9563,71.625 736.55,71.4688 Q736.1594,71.2969 735.7063,71.2969 Q735.0656,71.2969 734.4875,71.75 Q733.925,72.1875 733.5813,73.0469 Q733.2375,73.9063 733.2375,75.1719 Q733.2375,77.0156 733.9094,78.0625 Q734.5813,79.1094 735.5969,79.1094 Q736.2219,79.1094 736.675,78.8438 Q737.1438,78.5625 737.5188,77.9375 L738.8469,78.9219 Q738.2531,79.8906 737.4406,80.2969 Q736.6281,80.6875 735.55,80.6875 Z " fill="#000000"/><text fill="#000000" font-family="sans-serif" font-size="12" lengthAdjust="spacing" textLength="50" x="751.2" y="79.448">Message</text><line style="stroke:#A80036;stroke-width:1.5;" x1="715.5" x2="809.5" y1="91.5" y2="91.5"/><text fill="#000000" font-family="sans-serif" font-size="11" lengthAdjust="spacing" textLength="84" x="720.5" y="105.7189">time : TimeStamp</text><text fill="#000000" font-family="sans-serif" font-size="11" lengthAdjust="spacing" textLength="73" x="720.5" y="118.9188">content : String</text><text fill="#000000" font-family="sans-serif" font-size="11" lengthAdjust="spacing" textLength="71" x="720.5" y="132.1187">sender : String</text><line style="stroke:#A80036;stroke-width:1.5;" x1="715.5" x2="809.5" y1="139.0997" y2="139.0997"/><!--MD5=[ef0f653ce50f4eaa0937ef128891fe80]
class UserID--><rect codeLine="100" fill="#FEFECE" filter="url(#f1a7gct86h2nn5)" height="140.3993" id="UserID" style="stroke:#A80036;stroke-width:1.5;" width="131" x="846" y="33.5"/><ellipse cx="888.45" cy="49.5" fill="#ADD1B2" rx="11" ry="11" style="stroke:#A80036;stroke-width:1.0;"/><path d="M888.2,54.6875 Q887.0438,54.6875 886.075,54.125 Q885.1219,53.5469 884.5438,52.3438 Q883.9813,51.1406 883.9813,49.2656 Q883.9813,47.7031 884.3563,46.6406 Q884.7469,45.5781 885.3719,44.9531 Q885.9969,44.3125 886.7469,44.0313 Q887.5125,43.75 888.2625,43.75 Q889.45,43.75 890.3094,44.2969 Q891.1688,44.8438 891.6063,45.8281 L890.4031,46.7344 L890.2625,46.8125 L890.1844,46.6875 Q890.2,46.5625 890.1531,46.4375 Q890.1063,46.3125 889.9813,46.0625 Q889.6063,45.625 889.2,45.4688 Q888.8094,45.2969 888.3563,45.2969 Q887.7156,45.2969 887.1375,45.75 Q886.575,46.1875 886.2313,47.0469 Q885.8875,47.9063 885.8875,49.1719 Q885.8875,51.0156 886.5594,52.0625 Q887.2313,53.1094 888.2469,53.1094 Q888.8719,53.1094 889.325,52.8438 Q889.7938,52.5625 890.1688,51.9375 L891.4969,52.9219 Q890.9031,53.8906 890.0906,54.2969 Q889.2781,54.6875 888.2,54.6875 Z " fill="#000000"/><text fill="#000000" font-family="sans-serif" font-size="12" lengthAdjust="spacing" textLength="38" x="908.55" y="53.448">UserID</text><line style="stroke:#A80036;stroke-width:1.5;" x1="847" x2="976" y1="65.5" y2="65.5"/><rect fill="none" height="6" style="stroke:#C82930;stroke-width:1.0;" width="6" x="854" y="73.5"/><text fill="#000000" font-family="sans-serif" font-size="11" lengthAdjust="spacing" textLength="86" x="866" y="79.7189">username : String</text><rect fill="none" height="6" style="stroke:#C82930;stroke-width:1.0;" width="6" x="854" y="86.6999"/><text fill="#000000" font-family="sans-serif" font-size="11" lengthAdjust="spacing" textLength="96" x="866" y="92.9188">database_id : String</text><rect fill="none" height="6" style="stroke:#C82930;stroke-width:1.0;" width="6" x="854" y="99.8998"/><text fill="#000000" font-family="sans-serif" font-size="11" lengthAdjust="spacing" textLength="78" x="866" y="106.1187">IP : InetAddress</text><line style="stroke:#A80036;stroke-width:1.5;" x1="847" x2="976" y1="113.0997" y2="113.0997"/><ellipse cx="857" cy="124.0997" fill="#84BE84" rx="3" ry="3" style="stroke:#038048;stroke-width:1.0;"/><text fill="#000000" font-family="sans-serif" font-size="11" lengthAdjust="spacing" textLength="105" x="866" y="127.3186">String getUsername()</text><ellipse cx="857" cy="137.2996" fill="#84BE84" rx="3" ry="3" style="stroke:#038048;stroke-width:1.0;"/><text fill="#000000" font-family="sans-serif" font-size="11" lengthAdjust="spacing" textLength="86" x="866" y="140.5185">String getDB_ID()</text><ellipse cx="857" cy="150.4995" fill="#84BE84" rx="3" ry="3" style="stroke:#038048;stroke-width:1.0;"/><text fill="#000000" font-family="sans-serif" font-size="11" lengthAdjust="spacing" textLength="86" x="866" y="153.7184">String setDB_ID()</text><ellipse cx="857" cy="163.6994" fill="#84BE84" rx="3" ry="3" style="stroke:#038048;stroke-width:1.0;"/><text fill="#000000" font-family="sans-serif" font-size="11" lengthAdjust="spacing" textLength="95" x="866" y="166.9183">InetAddress getIP()</text><!--MD5=[db3170b8313bf70303600a68db1112cb]
class Launcher--><rect codeLine="110" fill="#FEFECE" filter="url(#f1a7gct86h2nn5)" height="48" id="Launcher" style="stroke:#A80036;stroke-width:1.5;" width="84" x="444.5" y="346"/><ellipse cx="459.5" cy="362" fill="#ADD1B2" rx="11" ry="11" style="stroke:#A80036;stroke-width:1.0;"/><path d="M459.25,367.1875 Q458.0938,367.1875 457.125,366.625 Q456.1719,366.0469 455.5938,364.8438 Q455.0313,363.6406 455.0313,361.7656 Q455.0313,360.2031 455.4063,359.1406 Q455.7969,358.0781 456.4219,357.4531 Q457.0469,356.8125 457.7969,356.5313 Q458.5625,356.25 459.3125,356.25 Q460.5,356.25 461.3594,356.7969 Q462.2188,357.3438 462.6563,358.3281 L461.4531,359.2344 L461.3125,359.3125 L461.2344,359.1875 Q461.25,359.0625 461.2031,358.9375 Q461.1563,358.8125 461.0313,358.5625 Q460.6563,358.125 460.25,357.9688 Q459.8594,357.7969 459.4063,357.7969 Q458.7656,357.7969 458.1875,358.25 Q457.625,358.6875 457.2813,359.5469 Q456.9375,360.4063 456.9375,361.6719 Q456.9375,363.5156 457.6094,364.5625 Q458.2813,365.6094 459.2969,365.6094 Q459.9219,365.6094 460.375,365.3438 Q460.8438,365.0625 461.2188,364.4375 L462.5469,365.4219 Q461.9531,366.3906 461.1406,366.7969 Q460.3281,367.1875 459.25,367.1875 Z " fill="#000000"/><text fill="#000000" font-family="sans-serif" font-size="12" lengthAdjust="spacing" textLength="52" x="473.5" y="365.948">Launcher</text><line style="stroke:#A80036;stroke-width:1.5;" x1="445.5" x2="527.5" y1="378" y2="378"/><line style="stroke:#A80036;stroke-width:1.5;" x1="445.5" x2="527.5" y1="386" y2="386"/><!--MD5=[948346f2dfe9866ea883595a582714fa]
class Thread--><rect fill="#FEFECE" filter="url(#f1a7gct86h2nn5)" height="48" id="Thread" style="stroke:#A80036;stroke-width:1.5;" width="71" x="218" y="566.5"/><ellipse cx="233" cy="582.5" fill="#ADD1B2" rx="11" ry="11" style="stroke:#A80036;stroke-width:1.0;"/><path d="M232.75,587.6875 Q231.5938,587.6875 230.625,587.125 Q229.6719,586.5469 229.0938,585.3438 Q228.5313,584.1406 228.5313,582.2656 Q228.5313,580.7031 228.9063,579.6406 Q229.2969,578.5781 229.9219,577.9531 Q230.5469,577.3125 231.2969,577.0313 Q232.0625,576.75 232.8125,576.75 Q234,576.75 234.8594,577.2969 Q235.7188,577.8438 236.1563,578.8281 L234.9531,579.7344 L234.8125,579.8125 L234.7344,579.6875 Q234.75,579.5625 234.7031,579.4375 Q234.6563,579.3125 234.5313,579.0625 Q234.1563,578.625 233.75,578.4688 Q233.3594,578.2969 232.9063,578.2969 Q232.2656,578.2969 231.6875,578.75 Q231.125,579.1875 230.7813,580.0469 Q230.4375,580.9063 230.4375,582.1719 Q230.4375,584.0156 231.1094,585.0625 Q231.7813,586.1094 232.7969,586.1094 Q233.4219,586.1094 233.875,585.8438 Q234.3438,585.5625 234.7188,584.9375 L236.0469,585.9219 Q235.4531,586.8906 234.6406,587.2969 Q233.8281,587.6875 232.75,587.6875 Z " fill="#000000"/><text fill="#000000" font-family="sans-serif" font-size="12" lengthAdjust="spacing" textLength="39" x="247" y="586.448">Thread</text><line style="stroke:#A80036;stroke-width:1.5;" x1="219" x2="288" y1="598.5" y2="598.5"/><line style="stroke:#A80036;stroke-width:1.5;" x1="219" x2="288" y1="606.5" y2="606.5"/><!--MD5=[36348b42d641b79b3cb675a84b025148]
link ChatWindow to JFrame--><path codeLine="114" d="M743.68,370 C748.7,370 753.72,370 758.75,370 " fill="none" id="ChatWindow-to-JFrame" style="stroke:#A80036;stroke-width:1.0;"/><polygon fill="none" points="758.75,363,778.75,370,758.75,377,758.75,363" style="stroke:#A80036;stroke-width:1.0;"/><!--MD5=[99d9a4a60106e525fece165846951cf2]
reverse link JFrame to ChangeNameWindow--><path codeLine="115" d="M815.5,414.45 C815.5,455.11 815.5,515.15 815.5,553.28 " fill="none" id="JFrame-backto-ChangeNameWindow" style="stroke:#A80036;stroke-width:1.0;"/><polygon fill="none" points="808.5,414.38,815.5,394.38,822.5,414.38,808.5,414.38" style="stroke:#A80036;stroke-width:1.0;"/><!--MD5=[141281a61981a615c5fffdd96dd1cc8d]
link ConnectWindow to JFrame--><path codeLine="116" d="M679.76,189.77 C714.97,216.43 747.77,243.23 761.5,260 C777.91,280.04 790.99,305.89 800.16,327.39 " fill="none" id="ConnectWindow-to-JFrame" style="stroke:#A80036;stroke-width:1.0;"/><polygon fill="none" points="806.67,324.81,807.61,345.98,793.67,330.01,806.67,324.81" style="stroke:#A80036;stroke-width:1.0;"/><!--MD5=[cb777d82cf1eac391495a31deb2020b2]
link ConnectWindow to Launcher--><path codeLine="118" d="M533.68,200.36 C519,252.85 501.99,313.62 492.95,345.96 " fill="none" id="ConnectWindow-Launcher" style="stroke:#A80036;stroke-width:1.0;"/><text fill="#000000" font-family="sans-serif" font-size="13" lengthAdjust="spacing" textLength="7" x="524.4534" y="220.1157">1</text><!--MD5=[ab69cc83a4133dac584f067546d9579f]
reverse link Thread to DDC_deamon--><path codeLine="120" d="M197.73,590.5 C192.86,590.5 187.99,590.5 183.12,590.5 " fill="none" id="Thread-backto-DDC_deamon" style="stroke:#A80036;stroke-width:1.0;"/><polygon fill="none" points="197.76,583.5,217.76,590.5,197.76,597.5,197.76,583.5" style="stroke:#A80036;stroke-width:1.0;"/><!--MD5=[ebe49eac0f977ffe48f6110e40e9a350]
link CSC_deamon to Thread--><path codeLine="121" d="M182.73,400.92 C196.97,438.88 221.62,504.54 237.74,547.5 " fill="none" id="CSC_deamon-to-Thread" style="stroke:#A80036;stroke-width:1.0;"/><polygon fill="none" points="244.31,545.09,244.78,566.27,231.2,550.01,244.31,545.09" style="stroke:#A80036;stroke-width:1.0;"/><!--MD5=[ebd6c65e867b8376c21ba04ef1fe4549]
link ChattingSession to Thread--><path codeLine="122" d="M294.5,480.25 C285.56,504.07 276.62,527.89 269.38,547.18 " fill="none" id="ChattingSession-to-Thread" style="stroke:#A80036;stroke-width:1.0;"/><polygon fill="none" points="275.86,549.85,262.28,566.12,262.75,544.93,275.86,549.85" style="stroke:#A80036;stroke-width:1.0;"/><!--MD5=[6aca516deea0cf3ce9b2fd4e5ffb7d4a]
link ChattingSessionController to CSC_deamon--><path codeLine="124" d="M237.23,173.65 C219.1,227.53 194.83,299.66 181.43,339.48 " fill="none" id="ChattingSessionController-CSC_deamon" style="stroke:#A80036;stroke-width:1.0;"/><text fill="#000000" font-family="sans-serif" font-size="13" lengthAdjust="spacing" textLength="7" x="175.9169" y="327.8111">1</text><!--MD5=[c1aacb849c10388c2551ddadede377c2]
link ChattingSessionController to ChattingSession--><path codeLine="125" d="M280.11,173.65 C287.57,199.98 296.27,230.66 304.54,259.8 " fill="none" id="ChattingSessionController-ChattingSession" style="stroke:#A80036;stroke-width:1.0;"/><text fill="#000000" font-family="sans-serif" font-size="13" lengthAdjust="spacing" textLength="20" x="281.66" y="248.6364">0..*</text><!--MD5=[232136457d93615679fb5c8bd0ee7f13]
link DDC_deamon to DistributedDataController--><path codeLine="127" d="M128.67,621.38 C129.52,643.01 130.7,673.17 131.78,700.67 " fill="none" id="DDC_deamon-DistributedDataController" style="stroke:#A80036;stroke-width:1.0;"/><text fill="#000000" font-family="sans-serif" font-size="13" lengthAdjust="spacing" textLength="7" x="121.1894" y="641.4141">1</text><!--MD5=[d1b44fdf14a99e635dd20f89cf7760ff]
link DistributedDataController to MainController--><path codeLine="129" d="M262.05,771 C275.17,771 288.28,771 301.4,771 " fill="none" id="DistributedDataController-MainController" style="stroke:#A80036;stroke-width:1.0;"/><!--MD5=[28b8e615da79ae83d1286e1d3fedcc85]
link RemoteDatabaseController to MainController--><path codeLine="130" d="M466.39,641.22 C465.93,661.75 465.39,685.78 464.9,707.48 " fill="none" id="RemoteDatabaseController-MainController" style="stroke:#A80036;stroke-width:1.0;"/><!--MD5=[585e53fbf721b1e74e2f755909ad95fc]
@startuml class
abstract class JFrame

class ChangeNameWindow{
    + textFieldUsername : JTextField
    + ButtonChange : JButton
}
class ChatWindow{
    + remoteUserList : JList<UserID>
    + ButtonChangeName : JButton
    + ButtonSend : JButton
    + ButtonSendFile : JButton
    + ButtonExit : JButton
    + message_history : JTextArea
    + message : JTextArea
}
class ConnectWindow{

    + textFieldUsername : JTextField
    + textFieldURL : JTextField
    + textFieldDatabase : JTextField
    + textFieldPasswordDB : JTextField
    + textFieldID : JTextField
    + textFieldPassword : JTextField
    + chckbxUseCentralizedHistory : JCheckBox
    + rdbtnSignIn : JRadioButton
    + rdbtnSignUp : JRadioButton
    + ButtonExit : JButton
    + ButtonConnect : JButton
}

class DDC_deamon{
    + void run()
}

abstract class DistributedDataController{
    - ddc_deamon : DDC_deamon
    - user_list : ArrayList<UserID>
    -void sendUPDBroadcast(String )
    +void start_deamon()
    +UserList getConnectedUserList()
    +void notifyUsers()
    +void notifyNewName(UserID User,string Login)
}

abstract class  RemoteDatabaseController{
    - database_ip_address : String 
    -void sendSQLRequest(String SQL_request)
    +message[] retrieveHistory(UserID User)
    +void updateHistory(UserID User, message Message)
}


class CSC_deamon{
    + void run()
}


class ChattingSession{
    - conversation : String
    - other_user : UserID
    - socket : Socket
    - output : PrintWriter
    - input : BufferedReader
    + void send(String M)
    + void run()
    + String getConversation()
    + UserID getID()
}

abstract class ChattingSessionController{
    - csc_deamon : CSC_deamon
    - chat_list : ArrayList<ChattingSession>
    +void start_deamon()
    +result newChat(String name)
    +result closeChat(String name)
    +ArrayList<ChattingSession> getChatList()
    +result sendMessage(String content, String name)
}

abstract class MainController{
    +username : String
    +unique_id : String
    +result useDatabaseSignUp(String db_URL, String db_name, \nString db_password, String Name, String Password)
    +result useDatabaseSignIn(String db_URL, String db_name, \nString db_password, String Name, String id, String Password)
}

class ChattingSession {
    - other_user : UserID
    - socket : Socket
    + void send(String content)
    + void run()
}

class Message{
    time : TimeStamp
    content : String
    sender : String
}

class UserID{
    -username : String
    -database_id : String
    -IP : InetAddress
    +String getUsername()
    +String getDB_ID()
    +String setDB_ID()
    +InetAddress getIP()
} 

class Launcher



ChatWindow -r-|> JFrame
ChangeNameWindow -u-|> JFrame
ConnectWindow -d-|> JFrame

Launcher -u- "1" ConnectWindow

DDC_deamon -l-|> Thread
CSC_deamon -r-|> Thread
ChattingSession -d-|> Thread

ChattingSessionController - "1" CSC_deamon
ChattingSessionController - - "0..*" ChattingSession

DistributedDataController -u- "1" DDC_deamon

DistributedDataController - MainController
RemoteDatabaseController -d- MainController


@enduml

PlantUML version 1.2021.14(Fri Nov 12 17:46:50 CET 2021)
(GPL source distribution)
Java Runtime: OpenJDK Runtime Environment
JVM: OpenJDK 64-Bit Server VM
Default Encoding: UTF-8
Language: en
Country: US
--></g></svg>