<?xml version="1.0" encoding="UTF-8" standalone="no"?><svg xmlns="http://www.w3.org/2000/svg" xmlns:xlink="http://www.w3.org/1999/xlink" contentScriptType="application/ecmascript" contentStyleType="text/css" height="338px" preserveAspectRatio="none" style="width:818px;height:338px;background:#FFFFFF;" version="1.1" viewBox="0 0 818 338" width="818px" zoomAndPan="magnify"><defs><filter height="300%" id="f1thc52ybblnp3" width="300%" x="-1" y="-1"><feGaussianBlur result="blurOut" stdDeviation="2.0"/><feColorMatrix in="blurOut" result="blurOut2" type="matrix" values="0 0 0 0 0 0 0 0 0 0 0 0 0 0 0 0 0 0 .4 0"/><feOffset dx="4.0" dy="4.0" in="blurOut2" result="blurOut3"/><feBlend in="SourceGraphic" in2="blurOut3" mode="normal"/></filter></defs><g><!--MD5=[f3cea06e74b8c7355fa3161a567319b7]
cluster ChatAgent--><rect fill="#FFFFFF" filter="url(#f1thc52ybblnp3)" height="317" style="stroke:#000000;stroke-width:1.5;" width="711" x="7" y="7"/><rect fill="#FFFFFF" height="10" style="stroke:#000000;stroke-width:1.5;" width="15" x="698" y="12"/><rect fill="#FFFFFF" height="2" style="stroke:#000000;stroke-width:1.5;" width="4" x="696" y="14"/><rect fill="#FFFFFF" height="2" style="stroke:#000000;stroke-width:1.5;" width="4" x="696" y="18"/><text fill="#000000" font-family="sans-serif" font-size="14" font-weight="bold" lengthAdjust="spacing" textLength="73" x="326" y="33.0059">ChatAgent</text><!--MD5=[c36e3c0bad1408cd807bc2c11c75980c]
entity UIEvents--><ellipse cx="463" cy="65.5" fill="#FEFECE" filter="url(#f1thc52ybblnp3)" rx="8" ry="8" style="stroke:#A80036;stroke-width:1.5;"/><text fill="#000000" font-family="sans-serif" font-size="14" lengthAdjust="spacing" textLength="60" x="433" y="95.5059">UI events</text><!--MD5=[a642eef719637567564b4c5c018fcbd7]
entity toDb--><ellipse cx="201" cy="189.5" fill="#FEFECE" filter="url(#f1thc52ybblnp3)" rx="8" ry="8" style="stroke:#A80036;stroke-width:1.5;"/><text fill="#000000" font-family="sans-serif" font-size="14" lengthAdjust="spacing" textLength="77" x="162.5" y="219.5059">to Database</text><!--MD5=[dff87c09850ca9bda2cd7606c4212d97]
entity fromDb--><ellipse cx="411" cy="299" fill="#FEFECE" filter="url(#f1thc52ybblnp3)" rx="8" ry="8" style="stroke:#A80036;stroke-width:1.5;"/><text fill="#000000" font-family="sans-serif" font-size="14" lengthAdjust="spacing" textLength="94" x="364" y="329.0059">from Database</text><!--MD5=[6d4fb58b32880459c3f9f7e725d14108]
entity DistributedDataManager--><rect fill="#FEFECE" filter="url(#f1thc52ybblnp3)" height="46.7999" style="stroke:#A80036;stroke-width:1.5;" width="195" x="507.5" y="42"/><rect fill="#FEFECE" height="10" style="stroke:#A80036;stroke-width:1.5;" width="15" x="682.5" y="47"/><rect fill="#FEFECE" height="2" style="stroke:#A80036;stroke-width:1.5;" width="4" x="680.5" y="49"/><rect fill="#FEFECE" height="2" style="stroke:#A80036;stroke-width:1.5;" width="4" x="680.5" y="53"/><text fill="#000000" font-family="sans-serif" font-size="14" lengthAdjust="spacing" textLength="155" x="522.5" y="75.0059">DistributedDataManager</text><!--MD5=[4b768be5da11e8ceab754911fdd9c219]
entity UIManager--><rect fill="#FEFECE" filter="url(#f1thc52ybblnp3)" height="46.7999" style="stroke:#A80036;stroke-width:1.5;" width="111" x="307.5" y="42"/><rect fill="#FEFECE" height="10" style="stroke:#A80036;stroke-width:1.5;" width="15" x="398.5" y="47"/><rect fill="#FEFECE" height="2" style="stroke:#A80036;stroke-width:1.5;" width="4" x="396.5" y="49"/><rect fill="#FEFECE" height="2" style="stroke:#A80036;stroke-width:1.5;" width="4" x="396.5" y="53"/><text fill="#000000" font-family="sans-serif" font-size="14" lengthAdjust="spacing" textLength="71" x="322.5" y="75.0059">UIManager</text><!--MD5=[1cc6b6ac3160092d89ed9eb577dc3851]
entity ChattingSession--><rect fill="#FEFECE" filter="url(#f1thc52ybblnp3)" height="46.7999" style="stroke:#A80036;stroke-width:1.5;" width="143" x="129.5" y="42"/><rect fill="#FEFECE" height="10" style="stroke:#A80036;stroke-width:1.5;" width="15" x="252.5" y="47"/><rect fill="#FEFECE" height="2" style="stroke:#A80036;stroke-width:1.5;" width="4" x="250.5" y="49"/><rect fill="#FEFECE" height="2" style="stroke:#A80036;stroke-width:1.5;" width="4" x="250.5" y="53"/><text fill="#000000" font-family="sans-serif" font-size="14" lengthAdjust="spacing" textLength="103" x="144.5" y="75.0059">ChattingSession</text><!--MD5=[da4f355fd6c1893f6add84b7931cd903]
entity RemoteDatabaseManager--><rect fill="#FEFECE" filter="url(#f1thc52ybblnp3)" height="46.7999" style="stroke:#A80036;stroke-width:1.5;" width="208" x="491" y="166"/><rect fill="#FEFECE" height="10" style="stroke:#A80036;stroke-width:1.5;" width="15" x="679" y="171"/><rect fill="#FEFECE" height="2" style="stroke:#A80036;stroke-width:1.5;" width="4" x="677" y="173"/><rect fill="#FEFECE" height="2" style="stroke:#A80036;stroke-width:1.5;" width="4" x="677" y="177"/><text fill="#000000" font-family="sans-serif" font-size="14" lengthAdjust="spacing" textLength="168" x="506" y="199.0059">RemoteDatabaseManager</text><!--MD5=[53ccf4b3ee6cf4337a0ab93ac09644f3]
entity main--><rect fill="#FEFECE" filter="url(#f1thc52ybblnp3)" height="46.7999" style="stroke:#A80036;stroke-width:1.5;" width="71" x="23.5" y="42"/><rect fill="#FEFECE" height="10" style="stroke:#A80036;stroke-width:1.5;" width="15" x="74.5" y="47"/><rect fill="#FEFECE" height="2" style="stroke:#A80036;stroke-width:1.5;" width="4" x="72.5" y="49"/><rect fill="#FEFECE" height="2" style="stroke:#A80036;stroke-width:1.5;" width="4" x="72.5" y="53"/><text fill="#000000" font-family="sans-serif" font-size="14" lengthAdjust="spacing" textLength="31" x="38.5" y="75.0059">main</text><!--MD5=[cea2b2863e8364faa8f358077eec7007]
entity UDP--><ellipse cx="796" cy="189.5" fill="#FEFECE" filter="url(#f1thc52ybblnp3)" rx="8" ry="8" style="stroke:#A80036;stroke-width:1.5;"/><text fill="#000000" font-family="sans-serif" font-size="14" lengthAdjust="spacing" textLength="29" x="781.5" y="219.5059">UDP</text><!--MD5=[1c6f0381035d37faabcf8172735cb275]
entity TCP--><ellipse cx="743" cy="189.5" fill="#FEFECE" filter="url(#f1thc52ybblnp3)" rx="8" ry="8" style="stroke:#A80036;stroke-width:1.5;"/><text fill="#000000" font-family="sans-serif" font-size="14" lengthAdjust="spacing" textLength="28" x="729" y="219.5059">TCP</text><!--MD5=[7468467f3b6b392f1d176d828c753b77]
entity db--><ellipse cx="743" cy="299" fill="#FEFECE" filter="url(#f1thc52ybblnp3)" rx="8" ry="8" style="stroke:#A80036;stroke-width:1.5;"/><text fill="#000000" font-family="sans-serif" font-size="14" lengthAdjust="spacing" textLength="61" x="712.5" y="329.0059">Database</text><!--MD5=[6e8565570969d74d03fa7f32a82caadd]
link DistributedDataManager to UDP--><path d="M676.96,89.08 C696.41,96.92 716.81,106.87 734,119 C756.51,134.88 776.52,160.41 787.39,175.71 " fill="none" id="DistributedDataManager-to-UDP" style="stroke:#A80036;stroke-width:1.0;stroke-dasharray:7.0,7.0;"/><polygon fill="#A80036" points="790.46,180.1,788.5735,170.4335,787.5917,176.0045,782.0207,175.0227,790.46,180.1" style="stroke:#A80036;stroke-width:1.0;"/><text fill="#000000" font-family="sans-serif" font-size="13" lengthAdjust="spacing" textLength="42" x="754" y="132.077">«uses»</text><!--MD5=[e21709dca023697a062c47de4a3bc05f]
link UDP to DistributedDataManager--><path d="M788.47,180.44 C783.61,175.65 776.91,169.78 770,166 C728.93,143.51 708.73,160.78 669,136 C649.65,123.93 632.45,104.48 620.76,89.22 " fill="none" id="UDP-DistributedDataManager" style="stroke:#A80036;stroke-width:1.0;"/><text fill="#000000" font-family="sans-serif" font-size="13" lengthAdjust="spacing" textLength="59" x="670" y="132.077">«realizes»</text><!--MD5=[8623b098688c1d18cca052df567128e0]
link UIManager to UIEvents--><path d="M418.86,65.5 C430.47,65.5 442.08,65.5 453.69,65.5 " fill="none" id="UIManager-UIEvents" style="stroke:#A80036;stroke-width:1.0;"/><!--MD5=[f735bf3c3f175198d9f03d36481ca850]
link ChattingSession to TCP--><path d="M272.75,85.28 C278.57,86.61 284.38,87.87 290,89 C377.25,106.59 400.37,103.42 488,119 C513.68,123.57 694.71,154.25 718,166 C723.16,168.6 728.07,172.56 732.15,176.43 " fill="none" id="ChattingSession-to-TCP" style="stroke:#A80036;stroke-width:1.0;stroke-dasharray:7.0,7.0;"/><polygon fill="#A80036" points="735.93,180.22,732.3945,171.0276,732.3945,176.6845,726.7376,176.6845,735.93,180.22" style="stroke:#A80036;stroke-width:1.0;"/><text fill="#000000" font-family="sans-serif" font-size="13" lengthAdjust="spacing" textLength="42" x="580" y="132.077">«uses»</text><!--MD5=[59435aa9fdf1dd7e7d07de3d65623d72]
link TCP to ChattingSession--><path d="M736.46,180.42 C731.86,175.37 725.26,169.22 718,166 C597.51,112.61 552.1,162.49 423,136 C367.22,124.55 305.54,104.63 261.38,89.05 " fill="none" id="TCP-ChattingSession" style="stroke:#A80036;stroke-width:1.0;"/><text fill="#000000" font-family="sans-serif" font-size="13" lengthAdjust="spacing" textLength="59" x="424" y="132.077">«realizes»</text><!--MD5=[0a7254f07e44160f1b021c0c22858ca8]
link RemoteDatabaseManager to db--><path d="M644.29,213.19 C660.2,221.54 677.47,231.74 692,243 C708.31,255.65 723.98,273.72 733.55,285.65 " fill="none" id="RemoteDatabaseManager-to-db" style="stroke:#A80036;stroke-width:1.0;stroke-dasharray:7.0,7.0;"/><polygon fill="#A80036" points="736.78,289.75,734.3281,280.2112,733.6758,285.8304,728.0566,285.178,736.78,289.75" style="stroke:#A80036;stroke-width:1.0;"/><text fill="#000000" font-family="sans-serif" font-size="13" lengthAdjust="spacing" textLength="42" x="711" y="256.077">«uses»</text><!--MD5=[0fe0514f912333aabc42bb7606a5676c]
link db to RemoteDatabaseManager--><path d="M733.99,295.1 C706.91,286.38 628.05,260.93 627,260 C613.22,247.72 604.97,228.28 600.3,213.08 " fill="none" id="db-RemoteDatabaseManager" style="stroke:#A80036;stroke-width:1.0;"/><text fill="#000000" font-family="sans-serif" font-size="13" lengthAdjust="spacing" textLength="59" x="628" y="256.077">«realizes»</text><!--MD5=[198aac1777c4d1107520ba18dffb7b34]
link RemoteDatabaseManager to fromDb--><path d="M556.43,213.04 C515.19,237.13 452.02,274.03 424.55,290.08 " fill="none" id="RemoteDatabaseManager-to-fromDb" style="stroke:#A80036;stroke-width:1.0;stroke-dasharray:7.0,7.0;"/><polygon fill="#A80036" points="420.15,292.65,429.9373,291.5501,424.4637,290.1218,425.8921,284.6482,420.15,292.65" style="stroke:#A80036;stroke-width:1.0;"/><text fill="#000000" font-family="sans-serif" font-size="13" lengthAdjust="spacing" textLength="42" x="504" y="256.077">«uses»</text><!--MD5=[87304ab0505a2d43192ba60a9ae729c7]
link fromDb to ChattingSession--><path d="M403.92,289.64 C381.99,263.82 313.02,183.18 253,119 C243.71,109.07 233.2,98.36 224.07,89.22 " fill="none" id="fromDb-ChattingSession" style="stroke:#A80036;stroke-width:1.0;"/><!--MD5=[c95fa928bd3b564bf3668aecb125cc72]
link ChattingSession to toDb--><path d="M201,89.16 C201,114.46 201,154.57 201,175.23 " fill="none" id="ChattingSession-to-toDb" style="stroke:#A80036;stroke-width:1.0;stroke-dasharray:7.0,7.0;"/><polygon fill="#A80036" points="201,180.28,205,171.28,201,175.28,197,171.28,201,180.28" style="stroke:#A80036;stroke-width:1.0;"/><text fill="#000000" font-family="sans-serif" font-size="13" lengthAdjust="spacing" textLength="42" x="202" y="132.077">«uses»</text><!--MD5=[7e1929e0b283b0bf268da23671069d55]
link toDb to RemoteDatabaseManager--><path d="M210.35,189.5 C247.87,189.5 390.34,189.5 490.91,189.5 " fill="none" id="toDb-RemoteDatabaseManager" style="stroke:#A80036;stroke-width:1.0;"/><text fill="#000000" font-family="sans-serif" font-size="13" lengthAdjust="spacing" textLength="59" x="321" y="182.577">«realizes»</text><!--MD5=[86c9e0a84425d7d563eefb6a99b7c90f]
@startuml component

() "UDP" as UDP
() "TCP" as TCP
() "Database" as db

component ChatAgent{
() "UI events" as UIEvents
() "to Database" as toDb
() "from Database" as fromDb

[DistributedDataManager] ..> UDP :<<uses>>
UDP-[DistributedDataManager] :<<realizes>>
[UIManager] - UIEvents
[ChattingSession] ..> TCP :<<uses>>
TCP-[ChattingSession] :<<realizes>>
[RemoteDatabaseManager] ..> db :<<uses>>
db - [RemoteDatabaseManager] : <<realizes>>

[RemoteDatabaseManager] ..> fromDb:<<uses>>
fromDb - [ChattingSession]

[ChattingSession] ..> toDb :<<uses>>
toDb - [RemoteDatabaseManager]: <<realizes>>

[main]
}
@enduml

PlantUML version 1.2021.14(Fri Nov 12 17:46:50 CET 2021)
(GPL source distribution)
Java Runtime: OpenJDK Runtime Environment
JVM: OpenJDK 64-Bit Server VM
Default Encoding: UTF-8
Language: en
Country: US
--></g></svg>