<?xml version="1.0" encoding="UTF-8" standalone="no"?><svg xmlns="http://www.w3.org/2000/svg" xmlns:xlink="http://www.w3.org/1999/xlink" contentScriptType="application/ecmascript" contentStyleType="text/css" height="613px" preserveAspectRatio="none" style="width:842px;height:613px;background:#FFFFFF;" version="1.1" viewBox="0 0 842 613" width="842px" zoomAndPan="magnify"><defs><filter height="300%" id="fe97jycg7isbs" width="300%" x="-1" y="-1"><feGaussianBlur result="blurOut" stdDeviation="2.0"/><feColorMatrix in="blurOut" result="blurOut2" type="matrix" values="0 0 0 0 0 0 0 0 0 0 0 0 0 0 0 0 0 0 .4 0"/><feOffset dx="4.0" dy="4.0" in="blurOut2" result="blurOut3"/><feBlend in="SourceGraphic" in2="blurOut3" mode="normal"/></filter></defs><g><!--MD5=[f3cea06e74b8c7355fa3161a567319b7]
cluster ChatAgent--><rect fill="#FFFFFF" filter="url(#fe97jycg7isbs)" height="594" style="stroke:#000000;stroke-width:1.5;" width="526" x="139" y="7"/><text fill="#000000" font-family="sans-serif" font-size="14" font-weight="bold" lengthAdjust="spacing" textLength="73" x="365.5" y="22.0059">ChatAgent</text><ellipse cx="245.4254" cy="497.0851" fill="#FEFECE" filter="url(#fe97jycg7isbs)" rx="65.9254" ry="15.5851" style="stroke:#A80036;stroke-width:1.5;"/><text fill="#000000" font-family="sans-serif" font-size="14" lengthAdjust="spacing" textLength="76" x="204.4254" y="500.8381">Open Agent</text><ellipse cx="245.2523" cy="431.1505" fill="#FEFECE" filter="url(#fe97jycg7isbs)" rx="66.2523" ry="15.6505" style="stroke:#A80036;stroke-width:1.5;"/><text fill="#000000" font-family="sans-serif" font-size="14" lengthAdjust="spacing" textLength="77" x="203.7523" y="434.9034">Close Agent</text><ellipse cx="245.5418" cy="288.8084" fill="#FEFECE" filter="url(#fe97jycg7isbs)" rx="82.0418" ry="18.8084" style="stroke:#A80036;stroke-width:1.5;"/><text fill="#000000" font-family="sans-serif" font-size="14" lengthAdjust="spacing" textLength="120" x="182.5418" y="292.5613">Change Username</text><ellipse cx="245.6439" cy="362.2288" fill="#FEFECE" filter="url(#fe97jycg7isbs)" rx="81.6439" ry="18.7288" style="stroke:#A80036;stroke-width:1.5;"/><text fill="#000000" font-family="sans-serif" font-size="14" lengthAdjust="spacing" textLength="119" x="183.1439" y="365.9817">Choose Username</text><ellipse cx="245.6405" cy="214.0281" fill="#FEFECE" filter="url(#fe97jycg7isbs)" rx="90.6405" ry="20.5281" style="stroke:#A80036;stroke-width:1.5;"/><text fill="#000000" font-family="sans-serif" font-size="14" lengthAdjust="spacing" textLength="141" x="172.1405" y="217.7811">Start Chatting Session</text><ellipse cx="551.1019" cy="409.1204" fill="#FEFECE" filter="url(#fe97jycg7isbs)" rx="68.6019" ry="16.1204" style="stroke:#A80036;stroke-width:1.5;"/><text fill="#000000" font-family="sans-serif" font-size="14" lengthAdjust="spacing" textLength="84" x="506.1019" y="412.8734">Notify Agents</text><ellipse cx="550.92" cy="339.984" fill="#FEFECE" filter="url(#fe97jycg7isbs)" rx="67.92" ry="15.984" style="stroke:#A80036;stroke-width:1.5;"/><text fill="#000000" font-family="sans-serif" font-size="14" lengthAdjust="spacing" textLength="82" x="506.92" y="343.737">Verify Unicity</text><ellipse cx="550.8207" cy="500.0638" fill="#FEFECE" filter="url(#fe97jycg7isbs)" rx="96.8207" ry="27.0638" style="stroke:#A80036;stroke-width:1.5;"/><text fill="#000000" font-family="sans-serif" font-size="14" lengthAdjust="spacing" textLength="119" x="488.3207" y="495.4168">Update Connected</text><text fill="#000000" font-family="sans-serif" font-size="14" lengthAdjust="spacing" textLength="56" x="519.8207" y="512.2168">User List</text><ellipse cx="550.9073" cy="174.9815" fill="#FEFECE" filter="url(#fe97jycg7isbs)" rx="97.9073" ry="21.9815" style="stroke:#A80036;stroke-width:1.5;"/><text fill="#000000" font-family="sans-serif" font-size="14" lengthAdjust="spacing" textLength="158" x="470.0069" y="178.3566">Access History Database</text><ellipse cx="550.9917" cy="62.1983" fill="#FEFECE" filter="url(#fe97jycg7isbs)" rx="86.4917" ry="19.6983" style="stroke:#008000;stroke-width:1.5;"/><text fill="#000000" font-family="sans-serif" font-size="14" lengthAdjust="spacing" textLength="131" x="482.4917" y="65.9513">Provide Date &amp; Time</text><ellipse cx="245.49" cy="58.898" fill="#FEFECE" filter="url(#fe97jycg7isbs)" rx="72.49" ry="16.898" style="stroke:#A80036;stroke-width:1.5;"/><text fill="#000000" font-family="sans-serif" font-size="14" lengthAdjust="spacing" textLength="95" x="194.99" y="62.651">Send Message</text><ellipse cx="245.5651" cy="142.7651" fill="#FEFECE" filter="url(#fe97jycg7isbs)" rx="55.5651" ry="15.2651" style="stroke:#A80036;stroke-width:1.5;"/><text fill="#000000" font-family="sans-serif" font-size="14" lengthAdjust="spacing" textLength="60" x="212.5651" y="146.5181">Send File</text><ellipse cx="245.2814" cy="565.7563" fill="#FEFECE" filter="url(#fe97jycg7isbs)" rx="79.2814" ry="18.2563" style="stroke:#A80036;stroke-width:1.5;"/><text fill="#000000" font-family="sans-serif" font-size="14" lengthAdjust="spacing" textLength="113" x="185.7814" y="569.5093">Receive Message</text><!--MD5=[8fc3522a43f8c7199df5e09e5bb0188e]
entity user--><ellipse cx="21" cy="302.5" fill="#FEFECE" filter="url(#fe97jycg7isbs)" rx="8" ry="8" style="stroke:#A80036;stroke-width:1.5;"/><path d="M21,310.5 L21,337.5 M8,318.5 L34,318.5 M21,337.5 L8,352.5 M21,337.5 L34,352.5 " fill="none" filter="url(#fe97jycg7isbs)" style="stroke:#A80036;stroke-width:1.5;"/><text fill="#000000" font-family="sans-serif" font-size="14" lengthAdjust="spacing" textLength="30" x="6" y="371.0059">User</text><!--MD5=[57220784cd10fd02b95ed95124c16164]
entity network--><ellipse cx="804.5" cy="379.5" fill="#FEFECE" filter="url(#fe97jycg7isbs)" rx="8" ry="8" style="stroke:#FF0000;stroke-width:1.5;"/><path d="M804.5,387.5 L804.5,414.5 M791.5,395.5 L817.5,395.5 M804.5,414.5 L791.5,429.5 M804.5,414.5 L817.5,429.5 " fill="none" filter="url(#fe97jycg7isbs)" style="stroke:#FF0000;stroke-width:1.5;"/><text fill="#FF0000" font-family="sans-serif" font-size="14" lengthAdjust="spacing" textLength="52" x="778.5" y="448.0059">Network</text><!--MD5=[7468467f3b6b392f1d176d828c753b77]
entity db--><ellipse cx="804.5" cy="145.5" fill="#FEFECE" filter="url(#fe97jycg7isbs)" rx="8" ry="8" style="stroke:#FF0000;stroke-width:1.5;"/><path d="M804.5,153.5 L804.5,180.5 M791.5,161.5 L817.5,161.5 M804.5,180.5 L791.5,195.5 M804.5,180.5 L817.5,195.5 " fill="none" filter="url(#fe97jycg7isbs)" style="stroke:#FF0000;stroke-width:1.5;"/><text fill="#FF0000" font-family="sans-serif" font-size="14" lengthAdjust="spacing" textLength="61" x="774" y="214.0059">Database</text><!--MD5=[7ab29d5a77da579a3d1f19f49a4e31e2]
entity clock--><ellipse cx="804.5" cy="28.5" fill="#FEFECE" filter="url(#fe97jycg7isbs)" rx="8" ry="8" style="stroke:#008000;stroke-width:1.5;"/><path d="M804.5,36.5 L804.5,63.5 M791.5,44.5 L817.5,44.5 M804.5,63.5 L791.5,78.5 M804.5,63.5 L817.5,78.5 " fill="none" filter="url(#fe97jycg7isbs)" style="stroke:#008000;stroke-width:1.5;"/><text fill="#008000" font-family="sans-serif" font-size="14" lengthAdjust="spacing" textLength="35" x="787" y="97.0059">Clock</text><!--MD5=[c30f4012e5b6126a79e01b4514cb43bb]
link user to Open Agent--><path d="M36.11,359.97 C53.98,390.18 87.73,439.09 131,464 C149.94,474.9 172.76,482.45 192.96,487.54 " fill="none" id="user-Open Agent" style="stroke:#A80036;stroke-width:1.0;"/><!--MD5=[d339f393df8ac86009cc18a3756ad95a]
link user to Close Agent--><path d="M36.2,343.9 C56.44,357.64 95.13,382.54 131,398 C152.29,407.18 176.9,414.68 197.75,420.2 " fill="none" id="user-Close Agent" style="stroke:#A80036;stroke-width:1.0;"/><!--MD5=[c9e237ca7a1cd81b4916f81bc3a82ae6]
link user to Change Username--><path d="M36.09,328.54 C44.64,325.4 55.83,321.57 66,319 C101.04,310.15 140.62,303.19 173.59,298.22 " fill="none" id="user-Change Username" style="stroke:#A80036;stroke-width:1.0;"/><!--MD5=[2dd8632ff0b2bd1a2643fddeeb58c1e3]
link user to Choose Username--><path d="M36.26,335.79 C63.54,339.23 124.8,346.94 173.86,353.11 " fill="none" id="user-Choose Username" style="stroke:#A80036;stroke-width:1.0;"/><!--MD5=[56cbe6eb279b4401a2c7b36e8dc2f03d]
link user to Start Chatting Session--><path d="M36.37,316.6 C44.48,307.42 55.15,296.37 66,288 C101.74,260.45 149.19,241.43 186.19,229.57 " fill="none" id="user-Start Chatting Session" style="stroke:#A80036;stroke-width:1.0;"/><!--MD5=[8c06610dbff135908f67469c2510eebd]
link Notify Agents to network--><path d="M619.73,409.54 C672.1,409.96 741.68,410.51 778.38,410.8 " fill="none" id="Notify Agents-network" style="stroke:#A80036;stroke-width:1.0;"/><!--MD5=[25e8e3e132570b673ae4e86c6c8523b4]
link Verify Unicity to network--><path d="M605.28,349.78 C644.22,357.57 698.03,369.71 744,385 C755.55,388.84 767.95,394.07 778.42,398.83 " fill="none" id="Verify Unicity-network" style="stroke:#A80036;stroke-width:1.0;"/><!--MD5=[dc3f5fe9e2266cefa451323d264c3369]
link Update Connected\nUser List to network--><path d="M611.6,478.91 C664.62,460.15 739.57,433.62 778.24,419.94 " fill="none" id="Update Connected\nUser List-network" style="stroke:#A80036;stroke-width:1.0;"/><!--MD5=[e34b04a3940f0a3d4f3f78624c2a4e0b]
link Access History Database to db--><path d="M649.24,175.77 C693.75,176.13 743.29,176.52 773.92,176.76 " fill="none" id="Access History Database-db" style="stroke:#A80036;stroke-width:1.0;"/><!--MD5=[e96eee8947a693da28a7c29cc4cee586]
link Provide Date & Time to clock--><path d="M637.5,61.32 C691.61,60.89 756.84,60.37 786.88,60.13 " fill="none" id="Provide Date &amp; Time-clock" style="stroke:#008000;stroke-width:1.0;"/><!--MD5=[a533e6ba8b369f2884123f66db2034dd]
link user to Send Message--><path d="M26.23,292.71 C32.39,240.16 45.38,153.27 66,129 C95.42,94.37 144.21,76.77 183.36,67.88 " fill="none" id="user-Send Message" style="stroke:#A80036;stroke-width:1.0;"/><!--MD5=[c5d646ad7f5d257821a88c498c06c9e1]
link user to Send File--><path d="M27.63,292.96 C34.48,249.34 47.48,184.42 66,168 C100.89,137.07 155.63,133.67 195.3,136.24 " fill="none" id="user-Send File" style="stroke:#A80036;stroke-width:1.0;"/><!--MD5=[6fcb806ed457bed92b374c56544f6788]
link user to Receive Message--><path d="M30.61,375.08 C37.47,402.03 48.81,437.26 66,465 C87.52,499.73 96.09,508.78 131,530 C147.96,540.31 168.16,547.95 186.78,553.47 " fill="none" id="user-Receive Message" style="stroke:#A80036;stroke-width:1.0;"/><!--MD5=[748036114cf2ba44a378ea1d41fde19b]
reverse link Send Message to Send File--><path d="M245.5,96.33 C245.5,107.18 245.5,118.45 245.5,127.2 " fill="none" id="Send Message-backto-Send File" style="stroke:#A80036;stroke-width:1.0;stroke-dasharray:7.0,7.0;"/><polygon fill="none" points="238.5,96.17,245.5,76.17,252.5,96.17,238.5,96.17" style="stroke:#A80036;stroke-width:1.0;"/><text fill="#000000" font-family="sans-serif" font-size="13" lengthAdjust="spacing" textLength="55" x="206.5" y="106.327">«include»</text><!--MD5=[f279530711dba5f0fc250cf8d3ac1a87]
link Close Agent to Notify Agents--><path d="M279.11,444.38 C314.59,457.2 372.96,473.2 423,463 C451.76,457.14 482.07,444.53 505.86,432.96 " fill="none" id="Close Agent-to-Notify Agents" style="stroke:#A80036;stroke-width:1.0;stroke-dasharray:7.0,7.0;"/><polygon fill="none" points="502.77,426.68,523.77,423.87,509.11,439.17,502.77,426.68" style="stroke:#A80036;stroke-width:1.0;"/><text fill="#000000" font-family="sans-serif" font-size="13" lengthAdjust="spacing" textLength="55" x="367" y="459.077">«include»</text><!--MD5=[5e80f820bffb67cf6e7000c8536cc4c9]
reverse link Start Chatting Session to Send Message--><path d="M140.14,217.43 C122.81,213.06 106.71,205.1 95,191.5 C73.28,166.29 88.31,149.01 131,110 C150.2,92.46 176.42,80.18 198.93,72.07 " fill="none" id="Start Chatting Session-backto-Send Message" style="stroke:#A80036;stroke-width:1.0;stroke-dasharray:7.0,7.0;"/><polygon fill="none" points="141.57,210.57,160.05,220.93,139.14,224.36,141.57,210.57" style="stroke:#A80036;stroke-width:1.0;"/><text fill="#000000" font-family="sans-serif" font-size="13" lengthAdjust="spacing" textLength="55" x="67" y="187.577">«include»</text><!--MD5=[128ab069f2794e8724532908d4d1bc55]
link Start Chatting Session to Access History Database--><path d="M324.66,203.96 C361.46,199.23 405.88,193.52 445.52,188.43 " fill="none" id="Start Chatting Session-to-Access History Database" style="stroke:#A80036;stroke-width:1.0;stroke-dasharray:7.0,7.0;"/><polygon fill="none" points="444.72,181.47,465.45,185.87,446.5,195.36,444.72,181.47" style="stroke:#A80036;stroke-width:1.0;"/><text fill="#000000" font-family="sans-serif" font-size="13" lengthAdjust="spacing" textLength="55" x="367" y="189.077">«include»</text><!--MD5=[61dbfcd7312701736d24cd0f6de9e241]
link Send Message to Access History Database--><path d="M284.32,73.46 C333.65,92.31 420.82,125.63 481.81,148.94 " fill="none" id="Send Message-to-Access History Database" style="stroke:#A80036;stroke-width:1.0;stroke-dasharray:7.0,7.0;"/><polygon fill="none" points="484.43,142.45,500.61,156.12,479.43,155.52,484.43,142.45" style="stroke:#A80036;stroke-width:1.0;"/><text fill="#000000" font-family="sans-serif" font-size="13" lengthAdjust="spacing" textLength="55" x="367" y="103.077">«include»</text><!--MD5=[c8a820765338173f26f75756c671e73f]
link Send Message to Provide Date & Time--><path d="M318.04,59.71 C355.69,60.08 402.59,60.54 444.34,60.96 " fill="none" id="Send Message-to-Provide Date &amp; Time" style="stroke:#A80036;stroke-width:1.0;stroke-dasharray:7.0,7.0;"/><polygon fill="none" points="444.43,53.96,464.36,61.15,444.29,67.96,444.43,53.96" style="stroke:#A80036;stroke-width:1.0;"/><text fill="#000000" font-family="sans-serif" font-size="13" lengthAdjust="spacing" textLength="55" x="367" y="57.077">«include»</text><!--MD5=[c3f66508caef6be0a419ec7c64676f3d]
link Open Agent to Update Connected\nUser List--><path d="M292.45,507.96 C314.55,512.69 341.5,517.66 366,520 C393.79,522.65 423.91,521.2 451.58,518.12 " fill="none" id="Open Agent-to-Update Connected\nUser List" style="stroke:#A80036;stroke-width:1.0;stroke-dasharray:7.0,7.0;"/><polygon fill="none" points="450.98,511.14,471.7,515.56,452.75,525.03,450.98,511.14" style="stroke:#A80036;stroke-width:1.0;"/><text fill="#000000" font-family="sans-serif" font-size="13" lengthAdjust="spacing" textLength="55" x="367" y="516.077">«include»</text><!--MD5=[dd97be084615c178c0b439dafae825cd]
link Change Username to Notify Agents--><path d="M325.45,293.56 C357.92,298.56 394.51,308.51 423,328 C442.84,341.57 434.15,358.09 453,373 C462.01,380.12 472.56,385.93 483.33,390.64 " fill="none" id="Change Username-to-Notify Agents" style="stroke:#A80036;stroke-width:1.0;stroke-dasharray:7.0,7.0;"/><polygon fill="none" points="485.84,384.1,502.03,397.77,480.85,397.19,485.84,384.1" style="stroke:#A80036;stroke-width:1.0;"/><text fill="#000000" font-family="sans-serif" font-size="13" lengthAdjust="spacing" textLength="55" x="367" y="300.077">«include»</text><!--MD5=[d8a5d294bfa6fce3a1c9e1bf8c869cec]
link Choose Username to Notify Agents--><path d="M313.48,372.37 C360.78,379.7 424.27,389.53 473.55,397.16 " fill="none" id="Choose Username-to-Notify Agents" style="stroke:#A80036;stroke-width:1.0;stroke-dasharray:7.0,7.0;"/><polygon fill="none" points="474.69,390.25,493.38,400.23,472.54,404.09,474.69,390.25" style="stroke:#A80036;stroke-width:1.0;"/><text fill="#000000" font-family="sans-serif" font-size="13" lengthAdjust="spacing" textLength="55" x="367" y="378.077">«include»</text><!--MD5=[c274801177e582b01d5ae0d3e3720d23]
link Choose Username to Verify Unicity--><path d="M323.48,356.42 C366.94,353.27 421.3,349.33 465.88,346.1 " fill="none" id="Choose Username-to-Verify Unicity" style="stroke:#A80036;stroke-width:1.0;stroke-dasharray:7.0,7.0;"/><polygon fill="none" points="465.46,339.11,485.92,344.65,466.47,353.07,465.46,339.11" style="stroke:#A80036;stroke-width:1.0;"/><text fill="#000000" font-family="sans-serif" font-size="13" lengthAdjust="spacing" textLength="55" x="367" y="346.077">«include»</text><!--MD5=[c1f017786ee158705c7417054bc7c632]
link Change Username to Verify Unicity--><path d="M298.17,274.38 C333.73,266.58 381.8,260.53 423,271 C455.36,279.22 488.4,297.54 512.66,313.24 " fill="none" id="Change Username-to-Verify Unicity" style="stroke:#A80036;stroke-width:1.0;stroke-dasharray:7.0,7.0;"/><polygon fill="none" points="516.7,307.52,529.35,324.52,508.86,319.12,516.7,307.52" style="stroke:#A80036;stroke-width:1.0;"/><text fill="#000000" font-family="sans-serif" font-size="13" lengthAdjust="spacing" textLength="55" x="367" y="262.077">«include»</text><!--MD5=[933e4a681130f3eb77dfc55f846bf93f]
@startuml usecase
left to right direction
:User: as user
    :Network: as network #line:red;text:red
    :Database: as db #line:red;text:red
    :Clock: as clock #line:green;text:green
rectangle ChatAgent{
 
 user- -(Open Agent)
 user- -(Close Agent)
 user- -(Change Username)
 user- -(Choose Username)
 user- -(Start Chatting Session)

(Notify Agents)- - -network
(Verify Unicity)- - -network
(Update Connected\nUser List)- -network
(Access History Database)- - -db
 
 (Provide Date & Time) #line:green
 (Provide Date & Time)- - -clock #green

 user- -(Send Message)
 user- -(Send File) 
 user- -(Receive Message)
 
 (Send Message)<|.(Send File) : <<include>>
 
 (Close Agent)..|>(Notify Agents) : <<include>>

 (Start Chatting Session)<|.(Send Message) : <<include>>
 (Start Chatting Session).|>(Access History Database) : <<include>>
 (Send Message)..|>(Access History Database) : <<include>>
 (Send Message)..|>(Provide Date & Time) : <<include>>

 (Open Agent)..|>(Update Connected\nUser List) : <<include>>
 (Change Username)..|>(Notify Agents) : <<include>>
 (Choose Username)..|>(Notify Agents) : <<include>>
 (Choose Username)..|>(Verify Unicity) : <<include>>
 (Change Username)..|>(Verify Unicity) : <<include>>

}
@enduml

PlantUML version 1.2021.14(Fri Nov 12 17:46:50 CET 2021)
(GPL source distribution)
Java Runtime: OpenJDK Runtime Environment
JVM: OpenJDK 64-Bit Server VM
Default Encoding: UTF-8
Language: en
Country: US
--></g></svg>