<?xml version="1.0" encoding="UTF-8" standalone="no"?><svg xmlns="http://www.w3.org/2000/svg" xmlns:xlink="http://www.w3.org/1999/xlink" contentScriptType="application/ecmascript" contentStyleType="text/css" height="588px" preserveAspectRatio="none" style="width:837px;height:588px;background:#FFFFFF;" version="1.1" viewBox="0 0 837 588" width="837px" zoomAndPan="magnify"><defs><filter height="300%" id="fg17bad7l1gdb" width="300%" x="-1" y="-1"><feGaussianBlur result="blurOut" stdDeviation="2.0"/><feColorMatrix in="blurOut" result="blurOut2" type="matrix" values="0 0 0 0 0 0 0 0 0 0 0 0 0 0 0 0 0 0 .4 0"/><feOffset dx="4.0" dy="4.0" in="blurOut2" result="blurOut3"/><feBlend in="SourceGraphic" in2="blurOut3" mode="normal"/></filter></defs><g><!--MD5=[f3cea06e74b8c7355fa3161a567319b7]
cluster ChatAgent--><rect fill="#FFFFFF" filter="url(#fg17bad7l1gdb)" height="569" style="stroke:#000000;stroke-width:1.5;" width="529" x="82" y="7"/><text fill="#000000" font-family="sans-serif" font-size="14" font-weight="bold" lengthAdjust="spacing" textLength="73" x="310" y="23.5332">ChatAgent</text><ellipse cx="189.58" cy="248.1227" fill="#FEFECE" filter="url(#fg17bad7l1gdb)" rx="66.08" ry="15.6227" style="stroke:#A80036;stroke-width:1.5;"/><text fill="#000000" font-family="sans-serif" font-size="14" lengthAdjust="spacing" textLength="76" x="148.58" y="252.6393">Open Agent</text><ellipse cx="189.4254" cy="314.1851" fill="#FEFECE" filter="url(#fg17bad7l1gdb)" rx="66.4254" ry="15.6851" style="stroke:#A80036;stroke-width:1.5;"/><text fill="#000000" font-family="sans-serif" font-size="14" lengthAdjust="spacing" textLength="77" x="147.9254" y="318.7017">Close Agent</text><ellipse cx="189.5075" cy="461.2015" fill="#FEFECE" filter="url(#fg17bad7l1gdb)" rx="81.5075" ry="18.7015" style="stroke:#A80036;stroke-width:1.5;"/><text fill="#000000" font-family="sans-serif" font-size="14" lengthAdjust="spacing" textLength="118" x="130.1675" y="465.0304">Change Username</text><ellipse cx="189.597" cy="383.1194" fill="#FEFECE" filter="url(#fg17bad7l1gdb)" rx="81.097" ry="18.6194" style="stroke:#A80036;stroke-width:1.5;"/><text fill="#000000" font-family="sans-serif" font-size="14" lengthAdjust="spacing" textLength="117" x="130.5843" y="386.9982">Choose Username</text><ellipse cx="189.2628" cy="177.1526" fill="#FEFECE" filter="url(#fg17bad7l1gdb)" rx="91.2628" ry="20.6526" style="stroke:#A80036;stroke-width:1.5;"/><text fill="#000000" font-family="sans-serif" font-size="14" lengthAdjust="spacing" textLength="141" x="118.7628" y="180.8811">Start Chatting Session</text><ellipse cx="496.4277" cy="346.0855" fill="#FEFECE" filter="url(#fg17bad7l1gdb)" rx="68.4277" ry="16.0855" style="stroke:#A80036;stroke-width:1.5;"/><text fill="#000000" font-family="sans-serif" font-size="14" lengthAdjust="spacing" textLength="83" x="451.9277" y="350.6021">Notify Agents</text><ellipse cx="496.2517" cy="414.9503" fill="#FEFECE" filter="url(#fg17bad7l1gdb)" rx="67.7517" ry="15.9503" style="stroke:#A80036;stroke-width:1.5;"/><text fill="#000000" font-family="sans-serif" font-size="14" lengthAdjust="spacing" textLength="81" x="452.7517" y="419.4669">Verify Unicity</text><ellipse cx="496.4654" cy="252.9147" fill="#FEFECE" filter="url(#fg17bad7l1gdb)" rx="94.9654" ry="27.9147" style="stroke:#A80036;stroke-width:1.5;"/><text fill="#000000" font-family="sans-serif" font-size="14" lengthAdjust="spacing" textLength="118" x="435.5113" y="248.3679">Update Connected</text><text fill="#000000" font-family="sans-serif" font-size="14" lengthAdjust="spacing" textLength="55" x="467.0113" y="265.9773">User List</text><ellipse cx="496.2802" cy="65.056" fill="#FEFECE" filter="url(#fg17bad7l1gdb)" rx="98.2802" ry="22.056" style="stroke:#A80036;stroke-width:1.5;"/><text fill="#000000" font-family="sans-serif" font-size="14" lengthAdjust="spacing" textLength="157" x="417.7802" y="68.7846">Access History Database</text><ellipse cx="496.5408" cy="151.2082" fill="#FEFECE" filter="url(#fg17bad7l1gdb)" rx="86.5408" ry="19.7082" style="stroke:#008000;stroke-width:1.5;"/><text fill="#000000" font-family="sans-serif" font-size="14" lengthAdjust="spacing" textLength="130" x="431.5408" y="154.9367">Provide Date &amp; Time</text><ellipse cx="189.2859" cy="86.8572" fill="#FEFECE" filter="url(#fg17bad7l1gdb)" rx="72.2859" ry="16.8572" style="stroke:#A80036;stroke-width:1.5;"/><text fill="#000000" font-family="sans-serif" font-size="14" lengthAdjust="spacing" textLength="94" x="139.2859" y="91.3738">Send Message</text><ellipse cx="189.5785" cy="533.2157" fill="#FEFECE" filter="url(#fg17bad7l1gdb)" rx="79.0785" ry="18.2157" style="stroke:#A80036;stroke-width:1.5;"/><text fill="#000000" font-family="sans-serif" font-size="14" lengthAdjust="spacing" textLength="112" x="132.1751" y="537.3395">Receive Message</text><!--MD5=[8fc3522a43f8c7199df5e09e5bb0188e]
entity user--><ellipse cx="20.5" cy="282" fill="#FEFECE" filter="url(#fg17bad7l1gdb)" rx="8" ry="8" style="stroke:#A80036;stroke-width:1.5;"/><path d="M20.5,290 L20.5,317 M7.5,298 L33.5,298 M20.5,317 L7.5,332 M20.5,317 L33.5,332 " fill="none" filter="url(#fg17bad7l1gdb)" style="stroke:#A80036;stroke-width:1.5;"/><text fill="#000000" font-family="sans-serif" font-size="14" lengthAdjust="spacing" textLength="29" x="6" y="352.0332">User</text><!--MD5=[57220784cd10fd02b95ed95124c16164]
entity network--><ellipse cx="805" cy="312" fill="#FEFECE" filter="url(#fg17bad7l1gdb)" rx="8" ry="8" style="stroke:#FF0000;stroke-width:1.5;"/><path d="M805,320 L805,347 M792,328 L818,328 M805,347 L792,362 M805,347 L818,362 " fill="none" filter="url(#fg17bad7l1gdb)" style="stroke:#FF0000;stroke-width:1.5;"/><text fill="#FF0000" font-family="sans-serif" font-size="14" lengthAdjust="spacing" textLength="50" x="780" y="382.0332">Network</text><!--MD5=[7468467f3b6b392f1d176d828c753b77]
entity db--><ellipse cx="688.5" cy="29" fill="#FEFECE" filter="url(#fg17bad7l1gdb)" rx="8" ry="8" style="stroke:#FF0000;stroke-width:1.5;"/><path d="M688.5,37 L688.5,64 M675.5,45 L701.5,45 M688.5,64 L675.5,79 M688.5,64 L701.5,79 " fill="none" filter="url(#fg17bad7l1gdb)" style="stroke:#FF0000;stroke-width:1.5;"/><text fill="#FF0000" font-family="sans-serif" font-size="14" lengthAdjust="spacing" textLength="61" x="658" y="99.0332">Database</text><!--MD5=[7ab29d5a77da579a3d1f19f49a4e31e2]
entity clock--><ellipse cx="805" cy="124" fill="#FEFECE" filter="url(#fg17bad7l1gdb)" rx="8" ry="8" style="stroke:#008000;stroke-width:1.5;"/><path d="M805,132 L805,159 M792,140 L818,140 M805,159 L792,174 M805,159 L818,174 " fill="none" filter="url(#fg17bad7l1gdb)" style="stroke:#008000;stroke-width:1.5;"/><text fill="#008000" font-family="sans-serif" font-size="14" lengthAdjust="spacing" textLength="35" x="787.5" y="194.0332">Clock</text><!--MD5=[c30f4012e5b6126a79e01b4514cb43bb]
link user to Open Agent--><path d="M35.16,303.91 C45.42,296.72 60.05,287.25 74,281 C95.24,271.49 119.93,263.97 140.93,258.52 " fill="none" id="user-Open Agent" style="stroke:#A80036;stroke-width:1.0;"/><!--MD5=[d339f393df8ac86009cc18a3756ad95a]
link user to Close Agent--><path d="M35.17,314 C54.33,314 90.48,314 122.86,314 " fill="none" id="user-Close Agent" style="stroke:#A80036;stroke-width:1.0;"/><!--MD5=[c9e237ca7a1cd81b4916f81bc3a82ae6]
link user to Change Username--><path d="M33.95,355.53 C42.25,377 55.16,402.16 74,419 C89.47,432.83 109.88,442.22 129.17,448.55 " fill="none" id="user-Change Username" style="stroke:#A80036;stroke-width:1.0;"/><!--MD5=[2dd8632ff0b2bd1a2643fddeeb58c1e3]
link user to Choose Username--><path d="M35.2,323.99 C45.49,331.14 60.12,340.59 74,347 C93.29,355.92 115.39,363.44 134.99,369.27 " fill="none" id="user-Choose Username" style="stroke:#A80036;stroke-width:1.0;"/><!--MD5=[56cbe6eb279b4401a2c7b36e8dc2f03d]
link user to Start Chatting Session--><path d="M35.11,272.63 C43.52,252.77 56.17,230.07 74,215 C87.12,203.91 103.58,196.03 119.89,190.43 " fill="none" id="user-Start Chatting Session" style="stroke:#A80036;stroke-width:1.0;"/><!--MD5=[8c06610dbff135908f67469c2510eebd]
link Notify Agents to network--><path d="M565.14,345.56 C633.01,345.12 733.87,344.46 779.73,344.16 " fill="none" id="Notify Agents-network" style="stroke:#A80036;stroke-width:1.0;"/><!--MD5=[25e8e3e132570b673ae4e86c6c8523b4]
link Verify Unicity to network--><path d="M545.73,403.83 C612.15,388.44 729.29,361.31 779.75,349.62 " fill="none" id="Verify Unicity-network" style="stroke:#A80036;stroke-width:1.0;"/><!--MD5=[dc3f5fe9e2266cefa451323d264c3369]
link Update Connected\nUser List to network--><path d="M573.98,269.25 C624.61,280.92 692.11,298.22 750,319 C760.02,322.59 770.71,327.34 779.92,331.74 " fill="none" id="Update Connected\nUser List-network" style="stroke:#A80036;stroke-width:1.0;"/><!--MD5=[e34b04a3940f0a3d4f3f78624c2a4e0b]
link Access History Database to db--><path d="M594.73,62.95 C617.73,62.47 640.57,61.99 657.83,61.62 " fill="none" id="Access History Database-db" style="stroke:#A80036;stroke-width:1.0;"/><!--MD5=[e96eee8947a693da28a7c29cc4cee586]
link Provide Date & Time to clock--><path d="M582.88,152.39 C653.91,153.55 749.31,155.11 787.34,155.73 " fill="none" id="Provide Date &amp; Time-clock" style="stroke:#008000;stroke-width:1.0;"/><!--MD5=[a533e6ba8b369f2884123f66db2034dd]
link user to Send Message--><path d="M24.33,272.18 C28.99,233.46 41.34,176.39 74,139 C90.88,119.68 116.38,107.14 139.04,99.23 " fill="none" id="user-Send Message" style="stroke:#A80036;stroke-width:1.0;"/><!--MD5=[6fcb806ed457bed92b374c56544f6788]
link user to Receive Message--><path d="M22.51,355.54 C25.73,396.73 36.97,459.02 74,497 C86.73,510.05 104.13,518.39 121.53,523.71 " fill="none" id="user-Receive Message" style="stroke:#A80036;stroke-width:1.0;"/><!--MD5=[f279530711dba5f0fc250cf8d3ac1a87]
link Close Agent to Notify Agents--><path d="M250.9,320 C285.24,323.44 329.03,327.89 368,332 C382.93,333.58 398.84,335.29 414.17,336.97 " fill="none" id="Close Agent-to-Notify Agents" style="stroke:#A80036;stroke-width:1.0;stroke-dasharray:7.0,7.0;"/><polygon fill="none" points="415.11,330.03,434.23,339.17,413.58,343.94,415.11,330.03" style="stroke:#A80036;stroke-width:1.0;"/><text fill="#000000" font-family="sans-serif" font-size="13" lengthAdjust="spacing" textLength="55" x="312" y="323.4951">«include»</text><!--MD5=[5e80f820bffb67cf6e7000c8536cc4c9]
reverse link Start Chatting Session to Send Message--><path d="M189.5,135.78 C189.5,124.62 189.5,113.15 189.5,104.14 " fill="none" id="Start Chatting Session-backto-Send Message" style="stroke:#A80036;stroke-width:1.0;stroke-dasharray:7.0,7.0;"/><polygon fill="none" points="196.5,136.13,189.5,156.13,182.5,136.13,196.5,136.13" style="stroke:#A80036;stroke-width:1.0;"/><text fill="#000000" font-family="sans-serif" font-size="13" lengthAdjust="spacing" textLength="55" x="150" y="135.7451">«include»</text><!--MD5=[128ab069f2794e8724532908d4d1bc55]
link Start Chatting Session to Access History Database--><path d="M280.74,175.03 C310.03,171.27 341.72,163.68 368,149 C385.89,139.01 381.86,126.63 398,114 C407.77,106.35 418.92,99.41 430.11,93.32 " fill="none" id="Start Chatting Session-to-Access History Database" style="stroke:#A80036;stroke-width:1.0;stroke-dasharray:7.0,7.0;"/><polygon fill="none" points="427.13,86.98,448.13,84.17,433.46,99.47,427.13,86.98" style="stroke:#A80036;stroke-width:1.0;"/><text fill="#000000" font-family="sans-serif" font-size="13" lengthAdjust="spacing" textLength="55" x="312" y="145.4951">«include»</text><!--MD5=[61dbfcd7312701736d24cd0f6de9e241]
link Send Message to Access History Database--><path d="M258.95,82.06 C295.32,79.44 340.98,76.15 382.45,73.15 " fill="none" id="Send Message-to-Access History Database" style="stroke:#A80036;stroke-width:1.0;stroke-dasharray:7.0,7.0;"/><polygon fill="none" points="381.96,66.17,402.42,71.71,382.97,80.14,381.96,66.17" style="stroke:#A80036;stroke-width:1.0;"/><text fill="#000000" font-family="sans-serif" font-size="13" lengthAdjust="spacing" textLength="55" x="312" y="71.4951">«include»</text><!--MD5=[c8a820765338173f26f75756c671e73f]
link Send Message to Provide Date & Time--><path d="M243.98,98.22 C290.64,108.01 359.08,122.37 412.8,133.65 " fill="none" id="Send Message-to-Provide Date &amp; Time" style="stroke:#A80036;stroke-width:1.0;stroke-dasharray:7.0,7.0;"/><polygon fill="none" points="414.45,126.84,432.59,137.8,411.58,140.54,414.45,126.84" style="stroke:#A80036;stroke-width:1.0;"/><text fill="#000000" font-family="sans-serif" font-size="13" lengthAdjust="spacing" textLength="55" x="312" y="110.4951">«include»</text><!--MD5=[c3f66508caef6be0a419ec7c64676f3d]
link Open Agent to Update Connected\nUser List--><path d="M255.56,249.07 C292.17,249.67 338.95,250.43 381.46,251.13 " fill="none" id="Open Agent-to-Update Connected\nUser List" style="stroke:#A80036;stroke-width:1.0;stroke-dasharray:7.0,7.0;"/><polygon fill="none" points="381.72,244.13,401.6,251.46,381.49,258.13,381.72,244.13" style="stroke:#A80036;stroke-width:1.0;"/><text fill="#000000" font-family="sans-serif" font-size="13" lengthAdjust="spacing" textLength="55" x="312" y="247.4951">«include»</text><!--MD5=[dd97be084615c178c0b439dafae825cd]
link Change Username to Notify Agents--><path d="M262.65,469.21 C297.32,469.51 337.8,464.13 368,443 C393.08,425.45 375.24,401.47 398,381 C405.82,373.97 415.16,368.32 424.92,363.79 " fill="none" id="Change Username-to-Notify Agents" style="stroke:#A80036;stroke-width:1.0;stroke-dasharray:7.0,7.0;"/><polygon fill="none" points="422.72,357.14,443.89,356.4,427.8,370.18,422.72,357.14" style="stroke:#A80036;stroke-width:1.0;"/><text fill="#000000" font-family="sans-serif" font-size="13" lengthAdjust="spacing" textLength="55" x="312" y="439.4951">«include»</text><!--MD5=[d8a5d294bfa6fce3a1c9e1bf8c869cec]
link Choose Username to Notify Agents--><path d="M261.62,374.37 C307.65,368.79 367.66,361.51 415.37,355.72 " fill="none" id="Choose Username-to-Notify Agents" style="stroke:#A80036;stroke-width:1.0;stroke-dasharray:7.0,7.0;"/><polygon fill="none" points="414.63,348.76,435.32,353.3,416.31,362.66,414.63,348.76" style="stroke:#A80036;stroke-width:1.0;"/><text fill="#000000" font-family="sans-serif" font-size="13" lengthAdjust="spacing" textLength="55" x="312" y="359.4951">«include»</text><!--MD5=[c274801177e582b01d5ae0d3e3720d23]
link Choose Username to Verify Unicity--><path d="M240.17,397.55 C261.74,403.19 287.41,409.01 311,412 C342.78,416.03 377.89,417.37 408.88,417.51 " fill="none" id="Choose Username-to-Verify Unicity" style="stroke:#A80036;stroke-width:1.0;stroke-dasharray:7.0,7.0;"/><polygon fill="none" points="409.04,410.51,429.07,417.43,409.1,424.51,409.04,410.51" style="stroke:#A80036;stroke-width:1.0;"/><text fill="#000000" font-family="sans-serif" font-size="13" lengthAdjust="spacing" textLength="55" x="312" y="408.4951">«include»</text><!--MD5=[c1f017786ee158705c7417054bc7c632]
link Change Username to Verify Unicity--><path d="M238.89,475.91 C253.08,481.41 268.22,488.44 281,497 C296.93,507.67 293.35,520.52 311,528 C334.32,537.89 344.31,536.99 368,528 C410.62,511.83 448.14,474.17 471.25,446.76 " fill="none" id="Change Username-to-Verify Unicity" style="stroke:#A80036;stroke-width:1.0;stroke-dasharray:7.0,7.0;"/><polygon fill="none" points="465.99,442.13,483.98,430.93,476.9,450.9,465.99,442.13" style="stroke:#A80036;stroke-width:1.0;"/><text fill="#000000" font-family="sans-serif" font-size="13" lengthAdjust="spacing" textLength="55" x="312" y="524.4951">«include»</text><!--MD5=[10a39820be01c76f25680709c18d5adc]
@startuml usecase
left to right direction
:User: as user
    :Network: as network #line:red;text:red
    :Database: as db #line:red;text:red
    :Clock: as clock #line:green;text:green
rectangle ChatAgent{

 user- -(Open Agent)
 user- -(Close Agent)
 user- -(Change Username)
 user- -(Choose Username)
 user- -(Start Chatting Session)

(Notify Agents)- - -network
(Verify Unicity)- - -network
(Update Connected\nUser List)- -network
(Access History Database)- -db
 
 (Provide Date & Time) #line:green
 (Provide Date & Time)- - -clock #green

 user- -(Send Message)
 user- -(Receive Message)
 
 (Close Agent)..|>(Notify Agents) : <<include>>

 (Start Chatting Session)<|.(Send Message) : <<include>>
 (Start Chatting Session)..|>(Access History Database) : <<include>>
 (Send Message)..|>(Access History Database) : <<include>>
 (Send Message)..|>(Provide Date & Time) : <<include>>

 (Open Agent)..|>(Update Connected\nUser List) : <<include>>
 (Change Username)..|>(Notify Agents) : <<include>>
 (Choose Username)..|>(Notify Agents) : <<include>>
 (Choose Username)..|>(Verify Unicity) : <<include>>
 (Change Username)..|>(Verify Unicity) : <<include>>

}
@enduml

PlantUML version 1.2021.14(Fri Nov 12 17:46:50 CET 2021)
(GPL source distribution)
Java Runtime: Java(TM) SE Runtime Environment
JVM: Java HotSpot(TM) 64-Bit Server VM
Default Encoding: Cp1252
Language: en
Country: US
--></g></svg>