<?xml version="1.0" encoding="UTF-8" standalone="no"?><svg xmlns="http://www.w3.org/2000/svg" xmlns:xlink="http://www.w3.org/1999/xlink" contentScriptType="application/ecmascript" contentStyleType="text/css" height="635px" preserveAspectRatio="none" style="width:842px;height:635px;background:#FFFFFF;" version="1.1" viewBox="0 0 842 635" width="842px" zoomAndPan="magnify"><defs><filter height="300%" id="f1u92dhi45oub6" width="300%" x="-1" y="-1"><feGaussianBlur result="blurOut" stdDeviation="2.0"/><feColorMatrix in="blurOut" result="blurOut2" type="matrix" values="0 0 0 0 0 0 0 0 0 0 0 0 0 0 0 0 0 0 .4 0"/><feOffset dx="4.0" dy="4.0" in="blurOut2" result="blurOut3"/><feBlend in="SourceGraphic" in2="blurOut3" mode="normal"/></filter></defs><g><!--MD5=[f3cea06e74b8c7355fa3161a567319b7]
cluster ChatAgent--><rect fill="#FFFFFF" filter="url(#f1u92dhi45oub6)" height="616" style="stroke:#000000;stroke-width:1.5;" width="526" x="139" y="7"/><text fill="#000000" font-family="sans-serif" font-size="14" font-weight="bold" lengthAdjust="spacing" textLength="73" x="365.5" y="22.0059">ChatAgent</text><ellipse cx="245.4254" cy="571.0851" fill="#FEFECE" filter="url(#f1u92dhi45oub6)" rx="65.9254" ry="15.5851" style="stroke:#A80036;stroke-width:1.5;"/><text fill="#000000" font-family="sans-serif" font-size="14" lengthAdjust="spacing" textLength="76" x="204.4254" y="574.8381">Open Agent</text><ellipse cx="245.2523" cy="504.1505" fill="#FEFECE" filter="url(#f1u92dhi45oub6)" rx="66.2523" ry="15.6505" style="stroke:#A80036;stroke-width:1.5;"/><text fill="#000000" font-family="sans-serif" font-size="14" lengthAdjust="spacing" textLength="77" x="203.7523" y="507.9034">Close Agent</text><ellipse cx="245.5418" cy="360.8084" fill="#FEFECE" filter="url(#f1u92dhi45oub6)" rx="82.0418" ry="18.8084" style="stroke:#A80036;stroke-width:1.5;"/><text fill="#000000" font-family="sans-serif" font-size="14" lengthAdjust="spacing" textLength="120" x="182.5418" y="364.5613">Change Username</text><ellipse cx="245.6439" cy="434.2288" fill="#FEFECE" filter="url(#f1u92dhi45oub6)" rx="81.6439" ry="18.7288" style="stroke:#A80036;stroke-width:1.5;"/><text fill="#000000" font-family="sans-serif" font-size="14" lengthAdjust="spacing" textLength="119" x="183.1439" y="437.9817">Choose Username</text><ellipse cx="245.6405" cy="214.0281" fill="#FEFECE" filter="url(#f1u92dhi45oub6)" rx="90.6405" ry="20.5281" style="stroke:#A80036;stroke-width:1.5;"/><text fill="#000000" font-family="sans-serif" font-size="14" lengthAdjust="spacing" textLength="141" x="172.1405" y="217.7811">Start Chatting Session</text><ellipse cx="551.1019" cy="464.1204" fill="#FEFECE" filter="url(#f1u92dhi45oub6)" rx="68.6019" ry="16.1204" style="stroke:#A80036;stroke-width:1.5;"/><text fill="#000000" font-family="sans-serif" font-size="14" lengthAdjust="spacing" textLength="84" x="506.1019" y="467.8734">Notify Agents</text><ellipse cx="550.92" cy="394.984" fill="#FEFECE" filter="url(#f1u92dhi45oub6)" rx="67.92" ry="15.984" style="stroke:#A80036;stroke-width:1.5;"/><text fill="#000000" font-family="sans-serif" font-size="14" lengthAdjust="spacing" textLength="82" x="506.92" y="398.737">Verify Unicity</text><ellipse cx="550.8207" cy="555.0638" fill="#FEFECE" filter="url(#f1u92dhi45oub6)" rx="96.8207" ry="27.0638" style="stroke:#A80036;stroke-width:1.5;"/><text fill="#000000" font-family="sans-serif" font-size="14" lengthAdjust="spacing" textLength="119" x="488.3207" y="550.4168">Update Connected</text><text fill="#000000" font-family="sans-serif" font-size="14" lengthAdjust="spacing" textLength="56" x="519.8207" y="567.2168">User List</text><ellipse cx="550.9073" cy="76.9815" fill="#FEFECE" filter="url(#f1u92dhi45oub6)" rx="97.9073" ry="21.9815" style="stroke:#A80036;stroke-width:1.5;"/><text fill="#000000" font-family="sans-serif" font-size="14" lengthAdjust="spacing" textLength="158" x="470.0069" y="80.3566">Access History Database</text><ellipse cx="550.9917" cy="218.1983" fill="#FEFECE" filter="url(#f1u92dhi45oub6)" rx="86.4917" ry="19.6983" style="stroke:#008000;stroke-width:1.5;"/><text fill="#000000" font-family="sans-serif" font-size="14" lengthAdjust="spacing" textLength="131" x="482.4917" y="221.9513">Provide Date &amp; Time</text><ellipse cx="245.49" cy="58.898" fill="#FEFECE" filter="url(#f1u92dhi45oub6)" rx="72.49" ry="16.898" style="stroke:#A80036;stroke-width:1.5;"/><text fill="#000000" font-family="sans-serif" font-size="14" lengthAdjust="spacing" textLength="95" x="194.99" y="62.651">Send Message</text><ellipse cx="245.5651" cy="142.7651" fill="#FEFECE" filter="url(#f1u92dhi45oub6)" rx="55.5651" ry="15.2651" style="stroke:#A80036;stroke-width:1.5;"/><text fill="#000000" font-family="sans-serif" font-size="14" lengthAdjust="spacing" textLength="60" x="212.5651" y="146.5181">Send File</text><ellipse cx="245.2814" cy="287.7563" fill="#FEFECE" filter="url(#f1u92dhi45oub6)" rx="79.2814" ry="18.2563" style="stroke:#A80036;stroke-width:1.5;"/><text fill="#000000" font-family="sans-serif" font-size="14" lengthAdjust="spacing" textLength="113" x="185.7814" y="291.5093">Receive Message</text><!--MD5=[8fc3522a43f8c7199df5e09e5bb0188e]
entity user--><ellipse cx="21" cy="301.5" fill="#FEFECE" filter="url(#f1u92dhi45oub6)" rx="8" ry="8" style="stroke:#A80036;stroke-width:1.5;"/><path d="M21,309.5 L21,336.5 M8,317.5 L34,317.5 M21,336.5 L8,351.5 M21,336.5 L34,351.5 " fill="none" filter="url(#f1u92dhi45oub6)" style="stroke:#A80036;stroke-width:1.5;"/><text fill="#000000" font-family="sans-serif" font-size="14" lengthAdjust="spacing" textLength="30" x="6" y="370.0059">User</text><!--MD5=[57220784cd10fd02b95ed95124c16164]
entity network--><ellipse cx="804.5" cy="434.5" fill="#FEFECE" filter="url(#f1u92dhi45oub6)" rx="8" ry="8" style="stroke:#FF0000;stroke-width:1.5;"/><path d="M804.5,442.5 L804.5,469.5 M791.5,450.5 L817.5,450.5 M804.5,469.5 L791.5,484.5 M804.5,469.5 L817.5,484.5 " fill="none" filter="url(#f1u92dhi45oub6)" style="stroke:#FF0000;stroke-width:1.5;"/><text fill="#FF0000" font-family="sans-serif" font-size="14" lengthAdjust="spacing" textLength="52" x="778.5" y="503.0059">Network</text><!--MD5=[7468467f3b6b392f1d176d828c753b77]
entity db--><ellipse cx="804.5" cy="45.5" fill="#FEFECE" filter="url(#f1u92dhi45oub6)" rx="8" ry="8" style="stroke:#FF0000;stroke-width:1.5;"/><path d="M804.5,53.5 L804.5,80.5 M791.5,61.5 L817.5,61.5 M804.5,80.5 L791.5,95.5 M804.5,80.5 L817.5,95.5 " fill="none" filter="url(#f1u92dhi45oub6)" style="stroke:#FF0000;stroke-width:1.5;"/><text fill="#FF0000" font-family="sans-serif" font-size="14" lengthAdjust="spacing" textLength="61" x="774" y="114.0059">Database</text><!--MD5=[7ab29d5a77da579a3d1f19f49a4e31e2]
entity clock--><ellipse cx="804.5" cy="186.5" fill="#FEFECE" filter="url(#f1u92dhi45oub6)" rx="8" ry="8" style="stroke:#008000;stroke-width:1.5;"/><path d="M804.5,194.5 L804.5,221.5 M791.5,202.5 L817.5,202.5 M804.5,221.5 L791.5,236.5 M804.5,221.5 L817.5,236.5 " fill="none" filter="url(#f1u92dhi45oub6)" style="stroke:#008000;stroke-width:1.5;"/><text fill="#008000" font-family="sans-serif" font-size="14" lengthAdjust="spacing" textLength="35" x="787" y="255.0059">Clock</text><!--MD5=[c30f4012e5b6126a79e01b4514cb43bb]
link user to Open Agent--><path d="M29.97,374.03 C36.7,402.39 48.13,440.23 66,470 C87.35,505.57 95.54,515.46 131,537 C149.81,548.43 172.73,556.24 193.03,561.47 " fill="none" id="user-Open Agent" style="stroke:#A80036;stroke-width:1.0;"/><!--MD5=[d339f393df8ac86009cc18a3756ad95a]
link user to Close Agent--><path d="M36.07,360.36 C53.79,391.95 87.29,443.01 131,470 C149.64,481.51 172.41,489.33 192.66,494.53 " fill="none" id="user-Close Agent" style="stroke:#A80036;stroke-width:1.0;"/><!--MD5=[c9e237ca7a1cd81b4916f81bc3a82ae6]
link user to Change Username--><path d="M36.26,334.79 C63.4,338.21 124.16,345.86 173.08,352.01 " fill="none" id="user-Change Username" style="stroke:#A80036;stroke-width:1.0;"/><!--MD5=[2dd8632ff0b2bd1a2643fddeeb58c1e3]
link user to Choose Username--><path d="M36.27,342.74 C56.6,356.29 95.38,380.96 131,397 C150.75,405.89 173.29,413.69 193.05,419.8 " fill="none" id="user-Choose Username" style="stroke:#A80036;stroke-width:1.0;"/><!--MD5=[56cbe6eb279b4401a2c7b36e8dc2f03d]
link user to Start Chatting Session--><path d="M36.33,315.54 C44.43,306.35 55.1,295.3 66,287 C101.69,259.82 148.93,241.09 185.84,229.42 " fill="none" id="user-Start Chatting Session" style="stroke:#A80036;stroke-width:1.0;"/><!--MD5=[8c06610dbff135908f67469c2510eebd]
link Notify Agents to network--><path d="M619.73,464.54 C672.1,464.96 741.68,465.51 778.38,465.8 " fill="none" id="Notify Agents-network" style="stroke:#A80036;stroke-width:1.0;"/><!--MD5=[25e8e3e132570b673ae4e86c6c8523b4]
link Verify Unicity to network--><path d="M606.18,404.4 C645.09,411.88 698.48,423.63 744,439 C755.61,442.92 768.01,448.34 778.47,453.29 " fill="none" id="Verify Unicity-network" style="stroke:#A80036;stroke-width:1.0;"/><!--MD5=[dc3f5fe9e2266cefa451323d264c3369]
link Update Connected\nUser List to network--><path d="M611.6,533.91 C664.62,515.15 739.57,488.62 778.24,474.94 " fill="none" id="Update Connected\nUser List-network" style="stroke:#A80036;stroke-width:1.0;"/><!--MD5=[e34b04a3940f0a3d4f3f78624c2a4e0b]
link Access History Database to db--><path d="M649.24,77 C693.75,77 743.29,77 773.92,77 " fill="none" id="Access History Database-db" style="stroke:#A80036;stroke-width:1.0;"/><!--MD5=[e96eee8947a693da28a7c29cc4cee586]
link Provide Date & Time to clock--><path d="M637.85,218 C691.92,218 756.98,218 786.93,218 " fill="none" id="Provide Date &amp; Time-clock" style="stroke:#008000;stroke-width:1.0;"/><!--MD5=[a533e6ba8b369f2884123f66db2034dd]
link user to Send Message--><path d="M26.26,291.91 C32.44,239.61 45.46,153.15 66,129 C95.44,94.39 144.23,76.78 183.37,67.89 " fill="none" id="user-Send Message" style="stroke:#A80036;stroke-width:1.0;"/><!--MD5=[c5d646ad7f5d257821a88c498c06c9e1]
link user to Send File--><path d="M27.72,291.81 C34.62,248.46 47.63,184.26 66,168 C100.91,137.09 155.65,133.69 195.31,136.25 " fill="none" id="user-Send File" style="stroke:#A80036;stroke-width:1.0;"/><!--MD5=[6fcb806ed457bed92b374c56544f6788]
link user to Receive Message--><path d="M36.09,327.54 C44.64,324.4 55.83,320.57 66,318 C101.8,308.95 142.34,301.89 175.73,296.9 " fill="none" id="user-Receive Message" style="stroke:#A80036;stroke-width:1.0;"/><!--MD5=[748036114cf2ba44a378ea1d41fde19b]
reverse link Send Message to Send File--><path d="M245.5,96.33 C245.5,107.18 245.5,118.45 245.5,127.2 " fill="none" id="Send Message-backto-Send File" style="stroke:#A80036;stroke-width:1.0;stroke-dasharray:7.0,7.0;"/><polygon fill="none" points="238.5,96.17,245.5,76.17,252.5,96.17,238.5,96.17" style="stroke:#A80036;stroke-width:1.0;"/><text fill="#000000" font-family="sans-serif" font-size="13" lengthAdjust="spacing" textLength="55" x="206.5" y="106.327">«include»</text><!--MD5=[f279530711dba5f0fc250cf8d3ac1a87]
link Close Agent to Notify Agents--><path d="M310.84,500.8 C344.39,498.65 386.02,495.23 423,490 C442.31,487.27 463.1,483.41 482.15,479.49 " fill="none" id="Close Agent-to-Notify Agents" style="stroke:#A80036;stroke-width:1.0;stroke-dasharray:7.0,7.0;"/><polygon fill="none" points="480.98,472.59,502,475.28,483.89,486.28,480.98,472.59" style="stroke:#A80036;stroke-width:1.0;"/><text fill="#000000" font-family="sans-serif" font-size="13" lengthAdjust="spacing" textLength="55" x="367" y="486.077">«include»</text><!--MD5=[5e80f820bffb67cf6e7000c8536cc4c9]
reverse link Start Chatting Session to Send Message--><path d="M140.14,217.43 C122.81,213.06 106.71,205.1 95,191.5 C73.28,166.29 88.31,149.01 131,110 C150.2,92.46 176.42,80.18 198.93,72.07 " fill="none" id="Start Chatting Session-backto-Send Message" style="stroke:#A80036;stroke-width:1.0;stroke-dasharray:7.0,7.0;"/><polygon fill="none" points="141.57,210.57,160.05,220.93,139.14,224.36,141.57,210.57" style="stroke:#A80036;stroke-width:1.0;"/><text fill="#000000" font-family="sans-serif" font-size="13" lengthAdjust="spacing" textLength="55" x="67" y="187.577">«include»</text><!--MD5=[128ab069f2794e8724532908d4d1bc55]
link Start Chatting Session to Access History Database--><path d="M326.27,204.64 C357.46,199 392.9,190.06 423,176 C456.91,160.16 490.09,133.8 514.03,112.27 " fill="none" id="Start Chatting Session-to-Access History Database" style="stroke:#A80036;stroke-width:1.0;stroke-dasharray:7.0,7.0;"/><polygon fill="none" points="509.26,107.14,528.68,98.65,518.8,117.39,509.26,107.14" style="stroke:#A80036;stroke-width:1.0;"/><text fill="#000000" font-family="sans-serif" font-size="13" lengthAdjust="spacing" textLength="55" x="367" y="172.077">«include»</text><!--MD5=[61dbfcd7312701736d24cd0f6de9e241]
link Send Message to Access History Database--><path d="M316.13,63.13 C351.61,65.23 395.66,67.85 435.94,70.24 " fill="none" id="Send Message-to-Access History Database" style="stroke:#A80036;stroke-width:1.0;stroke-dasharray:7.0,7.0;"/><polygon fill="none" points="436.42,63.25,455.97,71.42,435.59,77.23,436.42,63.25" style="stroke:#A80036;stroke-width:1.0;"/><text fill="#000000" font-family="sans-serif" font-size="13" lengthAdjust="spacing" textLength="55" x="367" y="63.077">«include»</text><!--MD5=[c8a820765338173f26f75756c671e73f]
link Send Message to Provide Date & Time--><path d="M276.15,74.54 C327.49,101.43 433.57,157.01 497.59,190.54 " fill="none" id="Send Message-to-Provide Date &amp; Time" style="stroke:#A80036;stroke-width:1.0;stroke-dasharray:7.0,7.0;"/><polygon fill="none" points="501.14,184.5,515.61,199.98,494.64,196.9,501.14,184.5" style="stroke:#A80036;stroke-width:1.0;"/><text fill="#000000" font-family="sans-serif" font-size="13" lengthAdjust="spacing" textLength="55" x="367" y="121.077">«include»</text><!--MD5=[5f13ca7dc2961abb4120841f9e9d001d]
link Receive Message to Provide Date & Time--><path d="M302.52,275.08 C349.57,264.23 417.38,248.59 470.13,236.42 " fill="none" id="Receive Message-to-Provide Date &amp; Time" style="stroke:#A80036;stroke-width:1.0;stroke-dasharray:7.0,7.0;"/><polygon fill="none" points="468.83,229.54,489.89,231.86,471.97,243.18,468.83,229.54" style="stroke:#A80036;stroke-width:1.0;"/><text fill="#000000" font-family="sans-serif" font-size="13" lengthAdjust="spacing" textLength="55" x="367" y="245.077">«include»</text><!--MD5=[c3f66508caef6be0a419ec7c64676f3d]
link Open Agent to Update Connected\nUser List--><path d="M310.68,573.54 C328.58,574.15 348.05,574.7 366,575 C391.33,575.42 397.74,576.98 423,575 C431.57,574.33 440.43,573.41 449.3,572.33 " fill="none" id="Open Agent-to-Update Connected\nUser List" style="stroke:#A80036;stroke-width:1.0;stroke-dasharray:7.0,7.0;"/><polygon fill="none" points="448.51,565.37,469.26,569.65,450.37,579.25,448.51,565.37" style="stroke:#A80036;stroke-width:1.0;"/><text fill="#000000" font-family="sans-serif" font-size="13" lengthAdjust="spacing" textLength="55" x="367" y="571.077">«include»</text><!--MD5=[dd97be084615c178c0b439dafae825cd]
link Change Username to Notify Agents--><path d="M327.46,360.3 C359.16,363.25 394.64,370.79 423,388 C442.3,399.71 434.93,415.47 453,429 C461.96,435.71 472.32,441.22 482.87,445.73 " fill="none" id="Change Username-to-Notify Agents" style="stroke:#A80036;stroke-width:1.0;stroke-dasharray:7.0,7.0;"/><polygon fill="none" points="485.52,439.25,501.8,452.8,480.62,452.36,485.52,439.25" style="stroke:#A80036;stroke-width:1.0;"/><text fill="#000000" font-family="sans-serif" font-size="13" lengthAdjust="spacing" textLength="55" x="367" y="363.077">«include»</text><!--MD5=[d8a5d294bfa6fce3a1c9e1bf8c869cec]
link Choose Username to Notify Agents--><path d="M298.45,448.18 C319.28,453.23 343.61,458.32 366,461 C397.47,464.77 432.17,466.07 462.88,466.25 " fill="none" id="Choose Username-to-Notify Agents" style="stroke:#A80036;stroke-width:1.0;stroke-dasharray:7.0,7.0;"/><polygon fill="none" points="462.9,459.25,482.92,466.21,462.93,473.25,462.9,459.25" style="stroke:#A80036;stroke-width:1.0;"/><text fill="#000000" font-family="sans-serif" font-size="13" lengthAdjust="spacing" textLength="55" x="367" y="457.077">«include»</text><!--MD5=[c274801177e582b01d5ae0d3e3720d23]
link Choose Username to Verify Unicity--><path d="M316.89,424.95 C362.91,419.04 423.1,411.31 470.79,405.18 " fill="none" id="Choose Username-to-Verify Unicity" style="stroke:#A80036;stroke-width:1.0;stroke-dasharray:7.0,7.0;"/><polygon fill="none" points="469.99,398.22,490.72,402.62,471.77,412.11,469.99,398.22" style="stroke:#A80036;stroke-width:1.0;"/><text fill="#000000" font-family="sans-serif" font-size="13" lengthAdjust="spacing" textLength="55" x="367" y="409.077">«include»</text><!--MD5=[c1f017786ee158705c7417054bc7c632]
link Change Username to Verify Unicity--><path d="M283.6,344.06 C319.5,329.92 375.31,313.88 423,326 C455.36,334.22 488.4,352.54 512.66,368.24 " fill="none" id="Change Username-to-Verify Unicity" style="stroke:#A80036;stroke-width:1.0;stroke-dasharray:7.0,7.0;"/><polygon fill="none" points="516.7,362.52,529.35,379.52,508.86,374.12,516.7,362.52" style="stroke:#A80036;stroke-width:1.0;"/><text fill="#000000" font-family="sans-serif" font-size="13" lengthAdjust="spacing" textLength="55" x="367" y="318.077">«include»</text><!--MD5=[45e21230d9bb1ba24d1ddb29aa0fb565]
@startuml usecase
left to right direction
:User: as user
    :Network: as network #line:red;text:red
    :Database: as db #line:red;text:red
    :Clock: as clock #line:green;text:green
rectangle ChatAgent{
 
 user- -(Open Agent)
 user- -(Close Agent)
 user- -(Change Username)
 user- -(Choose Username)
 user- -(Start Chatting Session)

(Notify Agents)- - -network
(Verify Unicity)- - -network
(Update Connected\nUser List)- -network
(Access History Database)- - -db
 
 (Provide Date & Time) #line:green
 (Provide Date & Time)- - -clock #green

 user- -(Send Message)
 user- -(Send File) 
 user- -(Receive Message)
 
 (Send Message)<|.(Send File) : <<include>>
 
 (Close Agent)..|>(Notify Agents) : <<include>>

 (Start Chatting Session)<|.(Send Message) : <<include>>
 (Start Chatting Session).|>(Access History Database) : <<include>>
 (Send Message)..|>(Access History Database) : <<include>>
 (Send Message)..|>(Provide Date & Time) : <<include>>
 (Receive Message)..|>(Provide Date & Time) : <<include>>
 (Open Agent)..|>(Update Connected\nUser List) : <<include>>
 (Change Username)..|>(Notify Agents) : <<include>>
 (Choose Username)..|>(Notify Agents) : <<include>>
 (Choose Username)..|>(Verify Unicity) : <<include>>
 (Change Username)..|>(Verify Unicity) : <<include>>

}
@enduml

PlantUML version 1.2021.14(Fri Nov 12 17:46:50 CET 2021)
(GPL source distribution)
Java Runtime: OpenJDK Runtime Environment
JVM: OpenJDK 64-Bit Server VM
Default Encoding: UTF-8
Language: en
Country: US
--></g></svg>