<?xml version="1.0" encoding="UTF-8" standalone="no"?><svg xmlns="http://www.w3.org/2000/svg" xmlns:xlink="http://www.w3.org/1999/xlink" contentScriptType="application/ecmascript" contentStyleType="text/css" height="612px" preserveAspectRatio="none" style="width:844px;height:612px;background:#FFFFFF;" version="1.1" viewBox="0 0 844 612" width="844px" zoomAndPan="magnify"><defs><filter height="300%" id="fe97jycg7isbs" width="300%" x="-1" y="-1"><feGaussianBlur result="blurOut" stdDeviation="2.0"/><feColorMatrix in="blurOut" result="blurOut2" type="matrix" values="0 0 0 0 0 0 0 0 0 0 0 0 0 0 0 0 0 0 .4 0"/><feOffset dx="4.0" dy="4.0" in="blurOut2" result="blurOut3"/><feBlend in="SourceGraphic" in2="blurOut3" mode="normal"/></filter></defs><g><!--MD5=[f3cea06e74b8c7355fa3161a567319b7]
cluster ChatAgent--><rect fill="#FFFFFF" filter="url(#fe97jycg7isbs)" height="593" style="stroke:#000000;stroke-width:1.5;" width="529" x="138" y="7"/><text fill="#000000" font-family="sans-serif" font-size="14" font-weight="bold" lengthAdjust="spacing" textLength="73" x="366" y="23.5332">ChatAgent</text><ellipse cx="245.58" cy="497.1227" fill="#FEFECE" filter="url(#fe97jycg7isbs)" rx="66.08" ry="15.6227" style="stroke:#A80036;stroke-width:1.5;"/><text fill="#000000" font-family="sans-serif" font-size="14" lengthAdjust="spacing" textLength="76" x="204.58" y="501.6393">Open Agent</text><ellipse cx="245.4254" cy="431.1851" fill="#FEFECE" filter="url(#fe97jycg7isbs)" rx="66.4254" ry="15.6851" style="stroke:#A80036;stroke-width:1.5;"/><text fill="#000000" font-family="sans-serif" font-size="14" lengthAdjust="spacing" textLength="77" x="203.9254" y="435.7017">Close Agent</text><ellipse cx="245.5075" cy="290.2015" fill="#FEFECE" filter="url(#fe97jycg7isbs)" rx="81.5075" ry="18.7015" style="stroke:#A80036;stroke-width:1.5;"/><text fill="#000000" font-family="sans-serif" font-size="14" lengthAdjust="spacing" textLength="118" x="186.1675" y="294.0304">Change Username</text><ellipse cx="245.597" cy="362.1194" fill="#FEFECE" filter="url(#fe97jycg7isbs)" rx="81.097" ry="18.6194" style="stroke:#A80036;stroke-width:1.5;"/><text fill="#000000" font-family="sans-serif" font-size="14" lengthAdjust="spacing" textLength="117" x="186.5843" y="365.9982">Choose Username</text><ellipse cx="245.2628" cy="216.1526" fill="#FEFECE" filter="url(#fe97jycg7isbs)" rx="91.2628" ry="20.6526" style="stroke:#A80036;stroke-width:1.5;"/><text fill="#000000" font-family="sans-serif" font-size="14" lengthAdjust="spacing" textLength="141" x="174.7628" y="219.8811">Start Chatting Session</text><ellipse cx="552.4277" cy="415.0855" fill="#FEFECE" filter="url(#fe97jycg7isbs)" rx="68.4277" ry="16.0855" style="stroke:#A80036;stroke-width:1.5;"/><text fill="#000000" font-family="sans-serif" font-size="14" lengthAdjust="spacing" textLength="83" x="507.9277" y="419.6021">Notify Agents</text><ellipse cx="552.2517" cy="345.9503" fill="#FEFECE" filter="url(#fe97jycg7isbs)" rx="67.7517" ry="15.9503" style="stroke:#A80036;stroke-width:1.5;"/><text fill="#000000" font-family="sans-serif" font-size="14" lengthAdjust="spacing" textLength="81" x="508.7517" y="350.4669">Verify Unicity</text><ellipse cx="552.4654" cy="507.9147" fill="#FEFECE" filter="url(#fe97jycg7isbs)" rx="94.9654" ry="27.9147" style="stroke:#A80036;stroke-width:1.5;"/><text fill="#000000" font-family="sans-serif" font-size="14" lengthAdjust="spacing" textLength="118" x="491.5113" y="503.3679">Update Connected</text><text fill="#000000" font-family="sans-serif" font-size="14" lengthAdjust="spacing" textLength="55" x="523.0113" y="520.9773">User List</text><ellipse cx="552.2802" cy="177.056" fill="#FEFECE" filter="url(#fe97jycg7isbs)" rx="98.2802" ry="22.056" style="stroke:#A80036;stroke-width:1.5;"/><text fill="#000000" font-family="sans-serif" font-size="14" lengthAdjust="spacing" textLength="157" x="473.7802" y="180.7846">Access History Database</text><ellipse cx="552.5408" cy="63.2082" fill="#FEFECE" filter="url(#fe97jycg7isbs)" rx="86.5408" ry="19.7082" style="stroke:#008000;stroke-width:1.5;"/><text fill="#000000" font-family="sans-serif" font-size="14" lengthAdjust="spacing" textLength="130" x="487.5408" y="66.9367">Provide Date &amp; Time</text><ellipse cx="245.2859" cy="59.8572" fill="#FEFECE" filter="url(#fe97jycg7isbs)" rx="72.2859" ry="16.8572" style="stroke:#A80036;stroke-width:1.5;"/><text fill="#000000" font-family="sans-serif" font-size="14" lengthAdjust="spacing" textLength="94" x="195.2859" y="64.3738">Send Message</text><ellipse cx="245.258" cy="145.0364" fill="#FEFECE" filter="url(#fe97jycg7isbs)" rx="54.258" ry="15.5364" style="stroke:#A80036;stroke-width:1.5;"/><text fill="#000000" font-family="sans-serif" font-size="14" lengthAdjust="spacing" textLength="60" x="212.258" y="149.553">Send File</text><ellipse cx="245.5785" cy="566.2157" fill="#FEFECE" filter="url(#fe97jycg7isbs)" rx="79.0785" ry="18.2157" style="stroke:#A80036;stroke-width:1.5;"/><text fill="#000000" font-family="sans-serif" font-size="14" lengthAdjust="spacing" textLength="112" x="188.1751" y="570.3395">Receive Message</text><!--MD5=[8fc3522a43f8c7199df5e09e5bb0188e]
entity user--><ellipse cx="20.5" cy="302" fill="#FEFECE" filter="url(#fe97jycg7isbs)" rx="8" ry="8" style="stroke:#A80036;stroke-width:1.5;"/><path d="M20.5,310 L20.5,337 M7.5,318 L33.5,318 M20.5,337 L7.5,352 M20.5,337 L33.5,352 " fill="none" filter="url(#fe97jycg7isbs)" style="stroke:#A80036;stroke-width:1.5;"/><text fill="#000000" font-family="sans-serif" font-size="14" lengthAdjust="spacing" textLength="29" x="6" y="372.0332">User</text><!--MD5=[57220784cd10fd02b95ed95124c16164]
entity network--><ellipse cx="806.5" cy="385" fill="#FEFECE" filter="url(#fe97jycg7isbs)" rx="8" ry="8" style="stroke:#FF0000;stroke-width:1.5;"/><path d="M806.5,393 L806.5,420 M793.5,401 L819.5,401 M806.5,420 L793.5,435 M806.5,420 L819.5,435 " fill="none" filter="url(#fe97jycg7isbs)" style="stroke:#FF0000;stroke-width:1.5;"/><text fill="#FF0000" font-family="sans-serif" font-size="14" lengthAdjust="spacing" textLength="50" x="781.5" y="455.0332">Network</text><!--MD5=[7468467f3b6b392f1d176d828c753b77]
entity db--><ellipse cx="806.5" cy="147" fill="#FEFECE" filter="url(#fe97jycg7isbs)" rx="8" ry="8" style="stroke:#FF0000;stroke-width:1.5;"/><path d="M806.5,155 L806.5,182 M793.5,163 L819.5,163 M806.5,182 L793.5,197 M806.5,182 L819.5,197 " fill="none" filter="url(#fe97jycg7isbs)" style="stroke:#FF0000;stroke-width:1.5;"/><text fill="#FF0000" font-family="sans-serif" font-size="14" lengthAdjust="spacing" textLength="61" x="776" y="217.0332">Database</text><!--MD5=[7ab29d5a77da579a3d1f19f49a4e31e2]
entity clock--><ellipse cx="806.5" cy="29" fill="#FEFECE" filter="url(#fe97jycg7isbs)" rx="8" ry="8" style="stroke:#008000;stroke-width:1.5;"/><path d="M806.5,37 L806.5,64 M793.5,45 L819.5,45 M806.5,64 L793.5,79 M806.5,64 L819.5,79 " fill="none" filter="url(#fe97jycg7isbs)" style="stroke:#008000;stroke-width:1.5;"/><text fill="#008000" font-family="sans-serif" font-size="14" lengthAdjust="spacing" textLength="35" x="789" y="99.0332">Clock</text><!--MD5=[c30f4012e5b6126a79e01b4514cb43bb]
link user to Open Agent--><path d="M35.02,359.2 C52.64,389.37 86.4,438.97 130,464 C149.11,474.97 172.13,482.52 192.51,487.61 " fill="none" id="user-Open Agent" style="stroke:#A80036;stroke-width:1.0;"/><!--MD5=[d339f393df8ac86009cc18a3756ad95a]
link user to Close Agent--><path d="M35.29,343.68 C55.33,357.39 94.05,382.51 130,398 C151.47,407.25 176.29,414.76 197.33,420.27 " fill="none" id="user-Close Agent" style="stroke:#A80036;stroke-width:1.0;"/><!--MD5=[c9e237ca7a1cd81b4916f81bc3a82ae6]
link user to Change Username--><path d="M35.07,329.07 C43.58,326.12 54.82,322.47 65,320 C100.77,311.3 141.15,304.31 174.55,299.27 " fill="none" id="user-Change Username" style="stroke:#A80036;stroke-width:1.0;"/><!--MD5=[2dd8632ff0b2bd1a2643fddeeb58c1e3]
link user to Choose Username--><path d="M35.11,335.71 C62.21,339.11 124.54,346.94 174.19,353.17 " fill="none" id="user-Choose Username" style="stroke:#A80036;stroke-width:1.0;"/><!--MD5=[56cbe6eb279b4401a2c7b36e8dc2f03d]
link user to Start Chatting Session--><path d="M35.32,317.37 C43.38,308.3 54.09,297.27 65,289 C100.8,261.89 148.08,243.2 185.13,231.52 " fill="none" id="user-Start Chatting Session" style="stroke:#A80036;stroke-width:1.0;"/><!--MD5=[8c06610dbff135908f67469c2510eebd]
link Notify Agents to network--><path d="M621.03,415.54 C674.1,415.96 744.95,416.52 781.47,416.81 " fill="none" id="Notify Agents-network" style="stroke:#A80036;stroke-width:1.0;"/><!--MD5=[25e8e3e132570b673ae4e86c6c8523b4]
link Verify Unicity to network--><path d="M606.92,355.76 C645.96,363.55 699.91,375.69 746,391 C757.87,394.95 770.64,400.36 781.29,405.22 " fill="none" id="Verify Unicity-network" style="stroke:#A80036;stroke-width:1.0;"/><!--MD5=[dc3f5fe9e2266cefa451323d264c3369]
link Update Connected\nUser List to network--><path d="M613.22,486.43 C666.93,467.04 743.09,439.54 781.45,425.68 " fill="none" id="Update Connected\nUser List-network" style="stroke:#A80036;stroke-width:1.0;"/><!--MD5=[e34b04a3940f0a3d4f3f78624c2a4e0b]
link Access History Database to db--><path d="M651.29,177.78 C695.84,178.13 745.35,178.52 775.96,178.77 " fill="none" id="Access History Database-db" style="stroke:#A80036;stroke-width:1.0;"/><!--MD5=[e96eee8947a693da28a7c29cc4cee586]
link Provide Date & Time to clock--><path d="M639.17,62.32 C693.39,61.89 758.75,61.37 788.85,61.13 " fill="none" id="Provide Date &amp; Time-clock" style="stroke:#008000;stroke-width:1.0;"/><!--MD5=[a533e6ba8b369f2884123f66db2034dd]
link user to Send Message--><path d="M25.79,292.23 C31.92,240.11 44.74,154.93 65,131 C94.67,95.96 143.99,78.09 183.43,69.05 " fill="none" id="user-Send Message" style="stroke:#A80036;stroke-width:1.0;"/><!--MD5=[c5d646ad7f5d257821a88c498c06c9e1]
link user to Send File--><path d="M27.25,292.28 C34.07,249.2 46.86,186.07 65,170 C100.45,138.6 156.25,135.48 196.23,138.24 " fill="none" id="user-Send File" style="stroke:#A80036;stroke-width:1.0;"/><!--MD5=[6fcb806ed457bed92b374c56544f6788]
link user to Receive Message--><path d="M30.08,375.68 C36.84,402.55 48.01,437.47 65,465 C86.46,499.77 95.06,508.82 130,530 C147.37,540.53 168.12,548.26 187.15,553.8 " fill="none" id="user-Receive Message" style="stroke:#A80036;stroke-width:1.0;"/><!--MD5=[748036114cf2ba44a378ea1d41fde19b]
reverse link Send Message to Send File--><path d="M245.5,97.44 C245.5,108.69 245.5,120.41 245.5,129.41 " fill="none" id="Send Message-backto-Send File" style="stroke:#A80036;stroke-width:1.0;stroke-dasharray:7.0,7.0;"/><polygon fill="none" points="238.5,97.25,245.5,77.25,252.5,97.25,238.5,97.25" style="stroke:#A80036;stroke-width:1.0;"/><text fill="#000000" font-family="sans-serif" font-size="13" lengthAdjust="spacing" textLength="55" x="206" y="108.7451">«include»</text><!--MD5=[f279530711dba5f0fc250cf8d3ac1a87]
link Close Agent to Notify Agents--><path d="M278.81,444.52 C302.69,453.75 336.27,465.15 367,470 C392.02,473.95 399.19,475.12 424,470 C453.1,463.99 483.74,451.02 507.69,439.18 " fill="none" id="Close Agent-to-Notify Agents" style="stroke:#A80036;stroke-width:1.0;stroke-dasharray:7.0,7.0;"/><polygon fill="none" points="504.69,432.85,525.67,429.88,511.12,445.28,504.69,432.85" style="stroke:#A80036;stroke-width:1.0;"/><text fill="#000000" font-family="sans-serif" font-size="13" lengthAdjust="spacing" textLength="55" x="368" y="466.4951">«include»</text><!--MD5=[5e80f820bffb67cf6e7000c8536cc4c9]
reverse link Start Chatting Session to Send Message--><path d="M140.03,220.07 C122.38,215.78 105.94,207.8 94,194 C71.95,168.52 91.97,146.78 130,112 C149.64,94.04 176.51,81.44 199.4,73.15 " fill="none" id="Start Chatting Session-backto-Send Message" style="stroke:#A80036;stroke-width:1.0;stroke-dasharray:7.0,7.0;"/><polygon fill="none" points="141.36,213.19,159.92,223.42,139.03,227,141.36,213.19" style="stroke:#A80036;stroke-width:1.0;"/><text fill="#000000" font-family="sans-serif" font-size="13" lengthAdjust="spacing" textLength="55" x="66" y="190.4951">«include»</text><!--MD5=[128ab069f2794e8724532908d4d1bc55]
link Start Chatting Session to Access History Database--><path d="M325.44,205.91 C362.43,201.18 407,195.48 446.76,190.39 " fill="none" id="Start Chatting Session-to-Access History Database" style="stroke:#A80036;stroke-width:1.0;stroke-dasharray:7.0,7.0;"/><polygon fill="none" points="446.01,183.43,466.74,187.84,447.79,197.32,446.01,183.43" style="stroke:#A80036;stroke-width:1.0;"/><text fill="#000000" font-family="sans-serif" font-size="13" lengthAdjust="spacing" textLength="55" x="368" y="191.4951">«include»</text><!--MD5=[61dbfcd7312701736d24cd0f6de9e241]
link Send Message to Access History Database--><path d="M284.2,74.46 C333.75,93.47 421.66,127.19 483.09,150.76 " fill="none" id="Send Message-to-Access History Database" style="stroke:#A80036;stroke-width:1.0;stroke-dasharray:7.0,7.0;"/><polygon fill="none" points="485.86,144.32,502.02,158.02,480.84,157.39,485.86,144.32" style="stroke:#A80036;stroke-width:1.0;"/><text fill="#000000" font-family="sans-serif" font-size="13" lengthAdjust="spacing" textLength="55" x="368" y="105.4951">«include»</text><!--MD5=[c8a820765338173f26f75756c671e73f]
link Send Message to Provide Date & Time--><path d="M318.01,60.7 C356.06,61.08 403.6,61.55 445.83,61.96 " fill="none" id="Send Message-to-Provide Date &amp; Time" style="stroke:#A80036;stroke-width:1.0;stroke-dasharray:7.0,7.0;"/><polygon fill="none" points="446.14,54.96,466.07,62.16,446,68.96,446.14,54.96" style="stroke:#A80036;stroke-width:1.0;"/><text fill="#000000" font-family="sans-serif" font-size="13" lengthAdjust="spacing" textLength="55" x="368" y="58.4951">«include»</text><!--MD5=[c3f66508caef6be0a419ec7c64676f3d]
link Open Agent to Update Connected\nUser List--><path d="M284.82,509.49 C308.27,516.47 339.03,524.46 367,528 C395.55,531.61 426.64,530.27 455.02,526.99 " fill="none" id="Open Agent-to-Update Connected\nUser List" style="stroke:#A80036;stroke-width:1.0;stroke-dasharray:7.0,7.0;"/><polygon fill="none" points="454.38,520.01,475.13,524.3,456.23,533.89,454.38,520.01" style="stroke:#A80036;stroke-width:1.0;"/><text fill="#000000" font-family="sans-serif" font-size="13" lengthAdjust="spacing" textLength="55" x="368" y="524.4951">«include»</text><!--MD5=[dd97be084615c178c0b439dafae825cd]
link Change Username to Notify Agents--><path d="M323.91,295.35 C357.16,300.76 394.95,311.37 424,332 C444.2,346.35 434.7,363.45 454,379 C462.78,386.08 473.09,391.84 483.65,396.52 " fill="none" id="Change Username-to-Notify Agents" style="stroke:#A80036;stroke-width:1.0;stroke-dasharray:7.0,7.0;"/><polygon fill="none" points="486.49,390.11,502.66,403.8,481.48,403.18,486.49,390.11" style="stroke:#A80036;stroke-width:1.0;"/><text fill="#000000" font-family="sans-serif" font-size="13" lengthAdjust="spacing" textLength="55" x="368" y="303.4951">«include»</text><!--MD5=[d8a5d294bfa6fce3a1c9e1bf8c869cec]
link Choose Username to Notify Agents--><path d="M310.29,373.13 C328.6,376.32 348.59,379.8 367,383 C403.21,389.29 443.41,396.27 477.02,402.1 " fill="none" id="Choose Username-to-Notify Agents" style="stroke:#A80036;stroke-width:1.0;stroke-dasharray:7.0,7.0;"/><polygon fill="none" points="478.49,395.25,497,405.56,476.1,409.04,478.49,395.25" style="stroke:#A80036;stroke-width:1.0;"/><text fill="#000000" font-family="sans-serif" font-size="13" lengthAdjust="spacing" textLength="55" x="368" y="379.4951">«include»</text><!--MD5=[c274801177e582b01d5ae0d3e3720d23]
link Choose Username to Verify Unicity--><path d="M325.6,358.73 C356.32,357.39 391.81,355.74 424,354 C437.69,353.26 452.2,352.41 466.34,351.55 " fill="none" id="Choose Username-to-Verify Unicity" style="stroke:#A80036;stroke-width:1.0;stroke-dasharray:7.0,7.0;"/><polygon fill="none" points="466.25,344.54,486.65,350.29,467.12,358.52,466.25,344.54" style="stroke:#A80036;stroke-width:1.0;"/><text fill="#000000" font-family="sans-serif" font-size="13" lengthAdjust="spacing" textLength="55" x="368" y="350.4951">«include»</text><!--MD5=[c1f017786ee158705c7417054bc7c632]
link Change Username to Verify Unicity--><path d="M298.94,275.94 C334.7,268.6 382.85,263.18 424,274 C457.27,282.75 491,302.37 515.4,318.92 " fill="none" id="Change Username-to-Verify Unicity" style="stroke:#A80036;stroke-width:1.0;stroke-dasharray:7.0,7.0;"/><polygon fill="none" points="519.46,313.22,531.73,330.49,511.36,324.64,519.46,313.22" style="stroke:#A80036;stroke-width:1.0;"/><text fill="#000000" font-family="sans-serif" font-size="13" lengthAdjust="spacing" textLength="55" x="368" y="264.4951">«include»</text><!--MD5=[a804f5bc25045544e9ed61583b359da3]
@startuml usecase
left to right direction
:User: as user
    :Network: as network #line:red;text:red
    :Database: as db #line:red;text:red
    :Clock: as clock #line:green;text:green
rectangle ChatAgent{
 
 user- -(Open Agent)
 user- -(Close Agent)
 user- -(Change Username)
 user- -(Choose Username)
 user- -(Start Chatting Session)

(Notify Agents)- - -network
(Verify Unicity)- - -network
(Update Connected\nUser List)- -network
(Access History Database)- - -db
 
 (Provide Date & Time) #line:green
 (Provide Date & Time)- - -clock #green

 user- -(Send Message)
 user- -(Send File) 
 user- -(Receive Message)
 
 (Send Message)<|.(Send File) : <<include>>
 
 (Close Agent)..|>(Notify Agents) : <<include>>

 (Start Chatting Session)<|.(Send Message) : <<include>>
 (Start Chatting Session).|>(Access History Database) : <<include>>
 (Send Message)..|>(Access History Database) : <<include>>
 (Send Message)..|>(Provide Date & Time) : <<include>>

 (Open Agent)..|>(Update Connected\nUser List) : <<include>>
 (Change Username)..|>(Notify Agents) : <<include>>
 (Choose Username)..|>(Notify Agents) : <<include>>
 (Choose Username)..|>(Verify Unicity) : <<include>>
 (Change Username)..|>(Verify Unicity) : <<include>>

}
@enduml

PlantUML version 1.2021.14(Fri Nov 12 17:46:50 CET 2021)
(GPL source distribution)
Java Runtime: Java(TM) SE Runtime Environment
JVM: Java HotSpot(TM) 64-Bit Server VM
Default Encoding: Cp1252
Language: en
Country: US
--></g></svg>